<svg width="48" height="48" viewBox="0 0 48 48" fill="none" xmlns="http://www.w3.org/2000/svg">
<rect width="48" height="48" rx="24" fill="black" fill-opacity="0.4"/>
<path d="M38 24.4856C38 24.6386 37.9395 24.7854 37.8317 24.8936C37.724 25.0017 37.5779 25.0625 37.4255 25.0625H11.9614L17.8738 31.001C17.9302 31.0538 17.9755 31.1175 18.0069 31.1883C18.0383 31.259 18.0552 31.3354 18.0565 31.4129C18.0579 31.4904 18.0437 31.5673 18.0148 31.6391C17.9859 31.711 17.9429 31.7762 17.8883 31.831C17.8338 31.8858 17.7688 31.929 17.6973 31.958C17.6257 31.987 17.5491 32.0013 17.472 31.9999C17.3948 31.9985 17.3188 31.9816 17.2483 31.9501C17.1778 31.9185 17.1144 31.8731 17.0618 31.8164L10.168 24.8933C10.0604 24.7851 10 24.6385 10 24.4856C10 24.3327 10.0604 24.1861 10.168 24.0779L17.0618 17.1548C17.1707 17.0529 17.3148 16.9975 17.4636 17.0001C17.6124 17.0027 17.7544 17.0633 17.8597 17.169C17.9649 17.2747 18.0252 17.4173 18.0279 17.5667C18.0305 17.7162 17.9752 17.8609 17.8738 17.9702L11.9614 23.9087H37.4255C37.5779 23.9087 37.724 23.9695 37.8317 24.0777C37.9395 24.1859 38 24.3326 38 24.4856Z" fill="white"/>
</svg>
