<svg width="48" height="48" viewBox="0 0 48 48" fill="none" xmlns="http://www.w3.org/2000/svg">
<rect x="48" y="48" width="48" height="48" rx="24" transform="rotate(-180 48 48)" fill="black" fill-opacity="0.4"/>
<path d="M10 23.5144C10 23.3614 10.0605 23.2146 10.1683 23.1064C10.276 22.9983 10.4221 22.9375 10.5745 22.9375L36.0386 22.9375L30.1262 16.999C30.0698 16.9462 30.0245 16.8825 29.9931 16.8117C29.9617 16.741 29.9448 16.6646 29.9435 16.5871C29.9421 16.5096 29.9563 16.4327 29.9852 16.3609C30.0141 16.289 30.0571 16.2238 30.1117 16.169C30.1662 16.1142 30.2312 16.071 30.3027 16.042C30.3743 16.013 30.4509 15.9987 30.528 16.0001C30.6052 16.0015 30.6812 16.0184 30.7517 16.0499C30.8222 16.0815 30.8856 16.1269 30.9382 16.1836L37.832 23.1067C37.9396 23.2149 38 23.3615 38 23.5144C38 23.6673 37.9396 23.8139 37.832 23.9221L30.9382 30.8452C30.8293 30.9471 30.6852 31.0025 30.5364 30.9999C30.3876 30.9973 30.2456 30.9367 30.1403 30.831C30.0351 30.7253 29.9748 30.5827 29.9721 30.4333C29.9695 30.2838 30.0248 30.1391 30.1262 30.0298L36.0386 24.0913L10.5745 24.0913C10.4221 24.0913 10.276 24.0305 10.1683 23.9223C10.0605 23.8141 10 23.6674 10 23.5144Z" fill="white"/>
</svg>
