<svg width="40" height="40" viewBox="0 0 40 40" fill="none" xmlns="http://www.w3.org/2000/svg">
<path d="M19.9482 27.4968H29.0543C29.409 27.5163 29.7627 27.4463 30.082 27.2936C30.4012 27.1408 30.6753 26.9103 30.878 26.624C31.0807 26.3378 31.2054 26.0054 31.2401 25.6584C31.2747 25.3115 31.2183 24.9616 31.0762 24.6421C30.5948 23.2141 28.6759 21.5013 28.6759 19.8161C28.6759 16.0755 28.6759 15.0911 26.7985 12.8914C26.1903 12.184 25.4372 11.6103 24.5882 11.2074L23.5412 10.7087C23.3649 10.6053 23.2129 10.4665 23.0951 10.3014C22.9773 10.1362 22.8965 9.94854 22.8579 9.75057C22.7532 9.08436 22.3943 8.48216 21.854 8.0661C21.3136 7.65005 20.6323 7.45129 19.9482 7.51015C19.2764 7.47055 18.6137 7.67817 18.0895 8.09245C17.5653 8.50673 17.2173 9.09792 17.1134 9.75057C17.0663 9.95508 16.974 10.1469 16.843 10.3125C16.7119 10.4781 16.5454 10.6133 16.3552 10.7087L15.3082 11.2074C14.4596 11.6104 13.707 12.1842 13.0991 12.8914C11.2231 15.0911 11.2231 16.0755 11.2231 19.8161C11.2231 21.5013 9.39115 23.0422 8.90977 24.5555C8.6196 25.4703 8.45914 27.4968 10.8888 27.4968H19.9482Z" fill="#1398A0" stroke="#1398A0" stroke-width="1.04" stroke-linecap="round" stroke-linejoin="round"/>
<path d="M23.7491 27.5C23.761 28.1602 23.6559 28.8163 23.4403 29.4289C23.2246 30.0415 22.9028 30.598 22.4942 31.065C22.0856 31.5319 21.5986 31.8996 21.0624 32.146C20.5263 32.3924 19.9521 32.5125 19.3744 32.4989C18.7966 32.5129 18.2223 32.3932 17.6861 32.1469C17.1498 31.9006 16.6628 31.5329 16.2542 31.0658C15.8456 30.5988 15.5239 30.0421 15.3085 29.4293C15.0932 28.8165 14.9886 28.1602 15.001 27.5" stroke="#1398A0" stroke-width="1.04" stroke-linecap="round" stroke-linejoin="round"/>
</svg>
