<svg width="14" height="14" viewBox="0 0 14 14" fill="none" xmlns="http://www.w3.org/2000/svg">
<path d="M12.886 7.574C13 7.29867 13 6.94867 13 6.25C13 5.55133 13 5.20133 12.886 4.926C12.8106 4.74395 12.7001 4.57854 12.5608 4.43922C12.4215 4.29989 12.256 4.18938 12.074 4.114C11.7987 4 11.4487 4 10.75 4H6.4C5.56 4 5.14 4 4.81933 4.16333C4.53684 4.30719 4.30719 4.53684 4.16333 4.81933C4 5.13933 4 5.55933 4 6.4V10.75C4 11.4487 4 11.7987 4.114 12.074C4.26667 12.4413 4.55867 12.734 4.926 12.886C5.20133 13 5.55133 13 6.25 13C6.94867 13 7.29867 13 7.574 12.886M12.886 7.574C12.8106 7.75605 12.7001 7.92146 12.5608 8.06078C12.4215 8.20011 12.256 8.31062 12.074 8.386C11.7987 8.5 11.4487 8.5 10.75 8.5C10.0513 8.5 9.70133 8.5 9.426 8.614C9.24395 8.68938 9.07854 8.79989 8.93922 8.93922C8.79989 9.07854 8.68938 9.24395 8.614 9.426C8.5 9.70133 8.5 10.0513 8.5 10.75C8.5 11.4487 8.5 11.7987 8.386 12.074C8.31062 12.256 8.20011 12.4215 8.06078 12.5608C7.92146 12.7001 7.75605 12.8106 7.574 12.886M12.886 7.574C12.5275 8.81065 11.8678 9.93908 10.9661 10.8582C10.0645 11.7774 8.94889 12.4585 7.71933 12.8407L7.574 12.886M10 4V3.4C10 2.56 10 2.14 9.83667 1.81933C9.69299 1.53694 9.46358 1.3073 9.18133 1.16333C8.86 1 8.44 1 7.6 1H3.4C2.56 1 2.14 1 1.81933 1.16333C1.53684 1.30719 1.30719 1.53684 1.16333 1.81933C1 2.13933 1 2.55933 1 3.4V7.6C1 8.44 1 8.86 1.16333 9.18067C1.30733 9.46333 1.53667 9.69267 1.81933 9.83667C2.13933 10 2.56 10 3.40067 10H4" stroke="white" stroke-linecap="round" stroke-linejoin="round"/>
</svg>
