<svg width="24" height="24" viewBox="0 0 24 24" fill="none" xmlns="http://www.w3.org/2000/svg">
<rect x="0.5" y="0.5" width="23" height="23" rx="11.5" stroke="white"/>
<path d="M11.5703 14.5715C12.366 14.5715 13.129 14.2555 13.6916 13.6929C14.2542 13.1302 14.5703 12.3672 14.5703 11.5715C14.5703 10.7759 14.2542 10.0128 13.6916 9.45021C13.129 8.8876 12.366 8.57153 11.5703 8.57153C10.7747 8.57153 10.0116 8.8876 9.44899 9.45021C8.88638 10.0128 8.57031 10.7759 8.57031 11.5715C8.57031 12.3672 8.88638 13.1302 9.44899 13.6929C10.0116 14.2555 10.7747 14.5715 11.5703 14.5715Z" stroke="white" stroke-width="0.857143" stroke-linecap="round" stroke-linejoin="round"/>
<path d="M5.14258 15.0476V8.95235C5.14258 7.942 5.54394 6.97303 6.25836 6.25861C6.97279 5.54418 7.94175 5.14282 8.9521 5.14282H15.0473C16.0577 5.14282 17.0267 5.54418 17.7411 6.25861C18.4555 6.97303 18.8569 7.942 18.8569 8.95235V15.0476C18.8569 16.0579 18.4555 17.0269 17.7411 17.7413C17.0267 18.4557 16.0577 18.8571 15.0473 18.8571H8.9521C7.94175 18.8571 6.97279 18.4557 6.25836 17.7413C5.54394 17.0269 5.14258 16.0579 5.14258 15.0476Z" stroke="white" stroke-width="0.857143"/>
<path d="M16.2852 7.72264L16.2927 7.71436" stroke="white" stroke-width="1.125" stroke-linecap="round" stroke-linejoin="round"/>
</svg>
