<svg width="13" height="12" viewBox="0 0 13 12" fill="none" xmlns="http://www.w3.org/2000/svg">
<path d="M4.52548 8.01005L8.20244 4.3331M3.21734 5.78266L1.83848 7.16152C1.35088 7.64912 1.06951 8.30299 1.05624 8.97929C1.04298 9.65559 1.29893 10.2989 1.76777 10.7678C2.23661 11.2366 2.87994 11.4926 3.55624 11.4793C4.23255 11.466 4.88642 11.1847 5.37401 10.6971L6.75287 9.3182M5.97505 3.02495L7.35391 1.64609C7.84151 1.15849 8.49538 0.877117 9.17168 0.863856C9.84798 0.850596 10.4913 1.10654 10.9602 1.57538C11.429 2.04422 11.6849 2.68755 11.6717 3.36386C11.6584 4.04016 11.377 4.69403 10.8894 5.18162L9.51059 6.56048" stroke="#999999" stroke-linecap="round" stroke-linejoin="round"/>
</svg>
