<svg width="27" height="27" viewBox="0 0 27 27" fill="none" xmlns="http://www.w3.org/2000/svg">
<path d="M13.5 0C6.04463 0 0 6.04463 0 13.5C0 20.9554 6.04463 27 13.5 27C20.9554 27 27 20.9554 27 13.5C27 6.04463 20.9554 0 13.5 0ZM12.1117 8.18775L19.4299 12.5325C19.5977 12.6321 19.7368 12.7737 19.8334 12.9433C19.93 13.113 19.9808 13.3048 19.9808 13.5C19.9808 13.6952 19.93 13.887 19.8334 14.0567C19.7368 14.2263 19.5977 14.3679 19.4299 14.4675L12.1117 18.8123C11.8555 18.9644 11.5636 19.0461 11.2656 19.0488C10.9675 19.0515 10.6741 18.9753 10.4151 18.8279C10.1561 18.6804 9.94082 18.467 9.79106 18.2094C9.64129 17.9517 9.56243 17.659 9.5625 17.361V9.639C9.56243 9.34098 9.64129 9.04826 9.79106 8.79061C9.94082 8.53295 10.1561 8.31955 10.4151 8.17211C10.6741 8.02467 10.9675 7.94845 11.2656 7.9512C11.5636 7.95394 11.8555 8.03556 12.1117 8.18775Z" fill="url(#paint0_linear_2751_1756)"/>
<defs>
<linearGradient id="paint0_linear_2751_1756" x1="0" y1="13.2245" x2="18.2361" y2="13.2247" gradientUnits="userSpaceOnUse">
<stop stop-color="#1398A0"/>
<stop offset="1" stop-color="#1BB8BD"/>
</linearGradient>
</defs>
</svg>
