<svg width="52" height="52" viewBox="0 0 52 52" fill="none" xmlns="http://www.w3.org/2000/svg">
<path d="M23.9996 7L18 12.0243L23.9996 18" stroke="white" stroke-width="2" stroke-linecap="round" stroke-linejoin="round"/>
<path d="M9 28.5C9 31.7634 9.96771 34.9535 11.7808 37.6669C13.5938 40.3803 16.1707 42.4952 19.1857 43.744C22.2007 44.9928 25.5183 45.3196 28.719 44.683C31.9197 44.0463 34.8597 42.4748 37.1673 40.1673C39.4748 37.8597 41.0463 34.9197 41.683 31.719C42.3196 28.5183 41.9928 25.2007 40.744 22.1857C39.4952 19.1707 37.3803 16.5938 34.6669 14.7808C31.9535 12.9677 28.7634 12 25.5 12H19.1857" stroke="white" stroke-width="2" stroke-linecap="round" stroke-linejoin="round"/>
<path d="M16.555 33V31.98L20.83 27.855C21.21 27.495 21.49 27.18 21.67 26.91C21.86 26.63 21.985 26.375 22.045 26.145C22.115 25.905 22.15 25.675 22.15 25.455C22.15 24.915 21.96 24.49 21.58 24.18C21.2 23.87 20.645 23.715 19.915 23.715C19.355 23.715 18.85 23.81 18.4 24C17.95 24.18 17.56 24.465 17.23 24.855L16.21 23.97C16.61 23.46 17.145 23.07 17.815 22.8C18.495 22.52 19.24 22.38 20.05 22.38C20.78 22.38 21.415 22.5 21.955 22.74C22.495 22.97 22.91 23.305 23.2 23.745C23.5 24.185 23.65 24.705 23.65 25.305C23.65 25.645 23.605 25.98 23.515 26.31C23.425 26.64 23.255 26.99 23.005 27.36C22.755 27.73 22.395 28.145 21.925 28.605L18.115 32.28L17.755 31.695H24.1V33H16.555ZM29.9086 33.12C29.0886 33.12 28.3536 32.91 27.7036 32.49C27.0636 32.07 26.5536 31.46 26.1736 30.66C25.8036 29.86 25.6186 28.89 25.6186 27.75C25.6186 26.61 25.8036 25.64 26.1736 24.84C26.5536 24.04 27.0636 23.43 27.7036 23.01C28.3536 22.59 29.0886 22.38 29.9086 22.38C30.7186 22.38 31.4486 22.59 32.0986 23.01C32.7486 23.43 33.2586 24.04 33.6286 24.84C33.9986 25.64 34.1836 26.61 34.1836 27.75C34.1836 28.89 33.9986 29.86 33.6286 30.66C33.2586 31.46 32.7486 32.07 32.0986 32.49C31.4486 32.91 30.7186 33.12 29.9086 33.12ZM29.9086 31.785C30.4586 31.785 30.9386 31.635 31.3486 31.335C31.7686 31.035 32.0936 30.585 32.3236 29.985C32.5636 29.385 32.6836 28.64 32.6836 27.75C32.6836 26.86 32.5636 26.115 32.3236 25.515C32.0936 24.915 31.7686 24.465 31.3486 24.165C30.9386 23.865 30.4586 23.715 29.9086 23.715C29.3586 23.715 28.8736 23.865 28.4536 24.165C28.0336 24.465 27.7036 24.915 27.4636 25.515C27.2336 26.115 27.1186 26.86 27.1186 27.75C27.1186 28.64 27.2336 29.385 27.4636 29.985C27.7036 30.585 28.0336 31.035 28.4536 31.335C28.8736 31.635 29.3586 31.785 29.9086 31.785Z" fill="white"/>
</svg>
