<svg width="32" height="32" viewBox="0 0 32 32" fill="none" xmlns="http://www.w3.org/2000/svg">
<rect width="32" height="32" rx="8" fill="black" fill-opacity="0.52"/>
<path d="M13 16C13 16.663 12.7366 17.2989 12.2678 17.7678C11.7989 18.2366 11.163 18.5 10.5 18.5C9.83696 18.5 9.20107 18.2366 8.73223 17.7678C8.26339 17.2989 8 16.663 8 16C8 15.337 8.26339 14.7011 8.73223 14.2322C9.20107 13.7634 9.83696 13.5 10.5 13.5C11.163 13.5 11.7989 13.7634 12.2678 14.2322C12.7366 14.7011 13 15.337 13 16Z" stroke="white" stroke-width="1.5"/>
<path d="M18 10.5L13 14M18 21.5L13 18" stroke="white" stroke-width="1.5" stroke-linecap="round"/>
<path d="M23 22.5C23 23.163 22.7366 23.7989 22.2678 24.2678C21.7989 24.7366 21.163 25 20.5 25C19.837 25 19.2011 24.7366 18.7322 24.2678C18.2634 23.7989 18 23.163 18 22.5C18 21.837 18.2634 21.2011 18.7322 20.7322C19.2011 20.2634 19.837 20 20.5 20C21.163 20 21.7989 20.2634 22.2678 20.7322C22.7366 21.2011 23 21.837 23 22.5ZM23 9.5C23 10.163 22.7366 10.7989 22.2678 11.2678C21.7989 11.7366 21.163 12 20.5 12C19.837 12 19.2011 11.7366 18.7322 11.2678C18.2634 10.7989 18 10.163 18 9.5C18 8.83696 18.2634 8.20107 18.7322 7.73223C19.2011 7.26339 19.837 7 20.5 7C21.163 7 21.7989 7.26339 22.2678 7.73223C22.7366 8.20107 23 8.83696 23 9.5Z" stroke="white" stroke-width="1.5"/>
</svg>
