<svg width="24" height="24" viewBox="0 0 24 24" fill="none" xmlns="http://www.w3.org/2000/svg">
<rect x="0.5" y="0.5" width="23" height="23" rx="11.5" stroke="white"/>
<path d="M4.28516 8.39014C4.28516 7.76377 4.70356 7.51652 5.21853 7.48355L7.61633 7.50003C7.76116 7.50003 7.8899 7.59894 7.93818 7.74729C8.48533 9.56047 9.16122 10.6814 9.96585 11.9506C10.0141 12.0495 10.0946 12.0989 10.175 12.0989C10.2394 12.0989 10.3038 12.066 10.3521 11.9836L10.4003 11.8022L10.4164 8.95058C10.4164 8.5385 10.2233 8.47256 9.77273 8.40663C9.59572 8.37366 9.48307 8.20883 9.48307 8.04399C9.48307 8.01102 9.48307 7.97806 9.49916 7.94509C9.72446 7.2363 10.4325 6.87366 11.4303 6.87366L12.3315 6.85718C13.0717 6.85718 13.7476 7.18685 13.7476 8.15938V11.9011C13.812 11.9506 13.8763 11.9836 13.9568 11.9836C14.0856 11.9836 14.2465 11.9011 14.3752 11.6868C15.212 10.4836 16.1615 9.04949 16.2902 8.29124C16.2902 8.25828 16.3063 8.24179 16.3224 8.20883C16.4994 7.84619 16.95 7.59894 17.1431 7.533C17.1753 7.51652 17.2236 7.50003 17.288 7.50003H19.7823L19.9433 7.51652C20.1846 7.51652 20.3617 7.68135 20.4421 7.82971C20.587 8.06047 20.5548 8.30773 20.5709 8.40663V8.52201C20.3295 10.022 18.6559 11.7033 17.9478 12.7912C17.8512 12.9231 17.8029 13.0385 17.8029 13.1539C17.8029 13.2528 17.8512 13.3517 17.9317 13.4506L20.2812 16.4836C20.4099 16.6649 20.4743 16.8792 20.4743 17.0605C20.4743 17.6044 19.9754 17.9176 19.4927 17.9671L19.2191 17.9836H16.773C16.7247 17.9836 16.6926 18 16.6443 18C16.3707 18 16.1454 17.8517 15.9845 17.6868C15.4695 17.044 14.9706 16.3847 14.4718 15.7418C14.3752 15.6099 14.343 15.5934 14.2465 15.5275C14.1338 16.0055 14.0373 16.5 13.9246 16.9945L13.8763 17.2748C13.7959 17.5715 13.5867 17.8847 13.2005 17.9671L12.9752 17.9836H11.3981C8.61407 17.9836 6.11971 13.9286 4.36562 8.86817C4.31734 8.7363 4.28516 8.55498 4.28516 8.39014ZM13.9568 12.6594C13.5384 12.6594 13.0717 12.4121 13.0717 11.9506V8.15938C13.0717 7.71432 12.8786 7.54949 12.3476 7.54949L11.4303 7.58245C10.9153 7.58245 10.6256 7.66487 10.3843 7.82971C10.7544 8.01102 11.0923 8.25828 11.0923 8.95058V11.8517C11.044 12.4286 10.5774 12.8077 10.1268 12.8077C9.82101 12.8077 9.54744 12.6264 9.38651 12.3297C8.66234 11.2088 8.05083 10.1539 7.51977 8.6374L7.37494 8.20883L5.23462 8.19234C4.94495 8.19234 4.97714 8.20883 4.97714 8.35718C4.97714 8.45608 4.99323 8.58795 5.00932 8.67036L5.34727 9.59344C7.10136 14.2418 9.30605 17.2912 11.3981 17.2912H13.0073C13.2326 17.2912 13.2166 17.011 13.2648 16.8462L13.5706 15.3956C13.635 15.2473 13.6832 15.1154 13.7959 15C13.9246 14.8682 14.0695 14.8187 14.2143 14.8187C14.5201 14.8187 14.8097 15.066 15.0028 15.2967L16.3707 17.077C16.4833 17.2583 16.5799 17.2912 16.6443 17.2912H19.2996C19.557 17.2912 19.7823 17.2088 19.7823 17.044C19.7823 16.9945 19.7662 16.9286 19.7341 16.8792L17.4006 13.8956C17.2075 13.6484 17.1271 13.4011 17.1271 13.1539C17.1271 12.8901 17.2236 12.6264 17.3845 12.3956C18.0604 11.3572 19.5088 9.87366 19.8467 8.65388L19.895 8.4396C19.8789 8.35718 19.8789 8.29124 19.8628 8.20883H17.3363C17.1753 8.27476 17.0466 8.37366 16.95 8.50553L16.8535 8.81872C16.4833 9.87366 15.4695 11.3242 14.7453 12.3297C14.504 12.5605 14.2304 12.6594 13.9568 12.6594Z" fill="white"/>
</svg>
