<svg width="32" height="32" viewBox="0 0 32 32" fill="none" xmlns="http://www.w3.org/2000/svg">
<rect x="32" y="32" width="32" height="32" rx="8" transform="rotate(-180 32 32)" fill="#060606" fill-opacity="0.52"/>
<path d="M7.67772 20.3387H10.8776L15.9311 23.8737C16.0461 23.9601 16.1882 24 16.3235 24C16.4317 24 16.54 23.9734 16.6347 23.9269C16.8579 23.814 17 23.5814 17 23.3355V8.6639C17 8.41804 16.8579 8.18549 16.6347 8.07255C16.4114 7.95956 16.1408 7.97951 15.9311 8.12568L10.8776 11.6607H7.67772C6.75091 11.6607 6 12.4049 6 13.3086V18.6909C6 19.5945 6.75092 20.3387 7.67772 20.3387Z" stroke="white" stroke-width="1.2"/>
<path d="M20.1765 18.7908C20.2941 18.9303 20.4482 19 20.6024 19C20.7565 19 20.9106 18.9303 21.0282 18.7911C21.6547 18.0483 22 17.0573 22 16C22 14.9426 21.6547 13.9516 21.0282 13.2088C20.7929 12.9305 20.4118 12.9302 20.1765 13.2091C19.9412 13.4881 19.9412 13.9404 20.1765 14.2194C20.5753 14.6919 20.7953 15.3245 20.7953 16C20.7953 16.6754 20.5753 17.308 20.1765 17.7805C19.9412 18.0595 19.9412 18.5118 20.1765 18.7908Z" fill="white"/>
<path d="M23.1767 11.1968C22.9411 11.4589 22.9411 11.8844 23.1767 12.1468C24.2197 13.309 24.7939 14.855 24.7939 16.5C24.7939 18.1378 24.2191 19.6841 23.1755 20.8549C22.9405 21.1179 22.9417 21.5434 23.1779 21.8048C23.2956 21.9351 23.4494 22 23.6031 22C23.758 22 23.9128 21.9337 24.0306 21.8015C25.3009 20.3776 26 18.4947 26 16.5C26 14.4961 25.3004 12.6126 24.0294 11.1968C23.7939 10.9344 23.4122 10.9344 23.1767 11.1968Z" fill="white"/>
</svg>
