<svg width="40" height="40" viewBox="0 0 40 40" fill="none" xmlns="http://www.w3.org/2000/svg">
<rect x="0.5" y="0.5" width="39" height="39" rx="19.5" fill="black" fill-opacity="0.6"/>
<rect x="0.5" y="0.5" width="39" height="39" rx="19.5" stroke="#1398A0"/>
<path d="M20 21.7034L14.038 27.6654C13.815 27.8885 13.5311 28 13.1863 28C12.8416 28 12.5577 27.8885 12.3346 27.6654C12.1115 27.4423 12 27.1584 12 26.8137C12 26.4689 12.1115 26.185 12.3346 25.962L18.2966 20L12.3346 14.038C12.1115 13.815 12 13.5311 12 13.1863C12 12.8416 12.1115 12.5577 12.3346 12.3346C12.5577 12.1115 12.8416 12 13.1863 12C13.5311 12 13.815 12.1115 14.038 12.3346L20 18.2966L25.962 12.3346C26.185 12.1115 26.4689 12 26.8137 12C27.1584 12 27.4423 12.1115 27.6654 12.3346C27.8885 12.5577 28 12.8416 28 13.1863C28 13.5311 27.8885 13.815 27.6654 14.038L21.7034 20L27.6654 25.962C27.8885 26.185 28 26.4689 28 26.8137C28 27.1584 27.8885 27.4423 27.6654 27.6654C27.4423 27.8885 27.1584 28 26.8137 28C26.4689 28 26.185 27.8885 25.962 27.6654L20 21.7034Z" fill="white"/>
</svg>
