<svg width="24" height="20" viewBox="0 0 24 20" fill="none" xmlns="http://www.w3.org/2000/svg">
<path d="M10.603 2.08343C11.0667 2.02754 11.5332 1.99969 12 2C17.1304 2 21.24 5.31768 23 9.99992C22.574 11.1389 21.9983 12.2111 21.2895 13.1862M5.972 3.73598C3.728 5.15883 1.99 7.36337 1 9.99992C2.76 14.6822 6.8696 17.9998 12 17.9998C14.1253 18.0115 16.2121 17.4101 18.028 16.2627M9.668 7.57709C9.36154 7.89548 9.11844 8.27347 8.95259 8.68948C8.78673 9.10548 8.70137 9.55135 8.70137 10.0016C8.70137 10.4519 8.78673 10.8978 8.95259 11.3138C9.11844 11.7298 9.36154 12.1078 9.668 12.4262C9.97446 12.7446 10.3383 12.9971 10.7387 13.1695C11.1391 13.3418 11.5683 13.4305 12.0017 13.4305C12.435 13.4305 12.8642 13.3418 13.2646 13.1695C13.665 12.9971 14.0288 12.7446 14.3353 12.4262" stroke="#999999" stroke-linecap="round" stroke-linejoin="round"/>
<path d="M3 1L21 19" stroke="#999999" stroke-linecap="round"/>
</svg>
