<svg width="18" height="18" viewBox="0 0 18 18" fill="none" xmlns="http://www.w3.org/2000/svg">
<path d="M0.75 4.05H17.25M7.35 8.175V12.3M10.65 8.175V12.3M2.4 4.05H15.6L14.2965 15.7815C14.2518 16.1852 14.0598 16.5583 13.7572 16.8293C13.4545 17.1002 13.0626 17.25 12.6564 17.25H5.3436C4.9374 17.25 4.54546 17.1002 4.24284 16.8293C3.94022 16.5583 3.74818 16.1852 3.7035 15.7815L2.4 4.05ZM5.15962 1.69628C5.29307 1.41327 5.50423 1.17405 5.76848 1.0065C6.03273 0.838956 6.33916 0.749996 6.65205 0.75H11.3479C11.661 0.74984 11.9676 0.838726 12.232 1.00628C12.4964 1.17384 12.7077 1.41315 12.8412 1.69628L13.95 4.05H4.05L5.15962 1.69628V1.69628Z" stroke="white" stroke-width="1.5" stroke-linecap="round" stroke-linejoin="round"/>
</svg>
