<svg width="12" height="12" viewBox="0 0 12 12" fill="none" xmlns="http://www.w3.org/2000/svg">
<path d="M0.5 2.7H11.5M4.9 5.45V8.2M7.1 5.45V8.2M1.6 2.7H10.4L9.531 10.521C9.50121 10.7902 9.37319 11.0389 9.17144 11.2195C8.96969 11.4001 8.7084 11.5 8.4376 11.5H3.5624C3.2916 11.5 3.03031 11.4001 2.82856 11.2195C2.62681 11.0389 2.49879 10.7902 2.469 10.521L1.6 2.7ZM3.43975 1.13085C3.52871 0.942182 3.66949 0.782698 3.84565 0.671001C4.02182 0.559304 4.22611 0.499998 4.4347 0.5H7.5653C7.77398 0.499893 7.97839 0.55915 8.15467 0.670854C8.33094 0.782557 8.4718 0.942098 8.5608 1.13085L9.3 2.7H2.7L3.43975 1.13085V1.13085Z" stroke="#999999" stroke-linecap="round" stroke-linejoin="round"/>
</svg>
