<svg width="24" height="20" viewBox="0 0 24 20" fill="none" xmlns="http://www.w3.org/2000/svg">
<path d="M2.15333 20C1.54 20 1.028 19.78 0.617333 19.34C0.206667 18.9 0.000888889 18.351 0 17.6929V2.30714C0 1.65 0.205778 1.10143 0.617333 0.661428C1.02889 0.221428 1.54089 0.000952381 2.15333 0H21.8467C22.46 0 22.972 0.220476 23.3827 0.661428C23.7933 1.10238 23.9991 1.65095 24 2.30714V17.6929C24 18.35 23.7947 18.8986 23.384 19.3386C22.9733 19.7786 22.4609 19.999 21.8467 20H2.15333ZM12 10.1643L1.33333 2.69286V17.6929C1.33333 17.949 1.41022 18.1595 1.564 18.3243C1.71778 18.489 1.91422 18.5714 2.15333 18.5714H21.8467C22.0858 18.5714 22.2822 18.489 22.436 18.3243C22.5898 18.1595 22.6667 17.949 22.6667 17.6929V2.69286L12 10.1643ZM12 8.57143L22.256 1.42857H1.744L12 8.57143ZM1.33333 2.69286V1.42857V17.6929C1.33333 17.949 1.41022 18.1595 1.564 18.3243C1.71778 18.489 1.91422 18.5714 2.15333 18.5714H1.33333V2.69286Z" fill="#1398A0"/>
</svg>
