<svg width="22" height="28" viewBox="0 0 22 28" fill="none" xmlns="http://www.w3.org/2000/svg">
<path fill-rule="evenodd" clip-rule="evenodd" d="M11 14.5C12.933 14.5 14.5 12.933 14.5 11C14.5 9.067 12.933 7.5 11 7.5C9.06702 7.5 7.50001 9.067 7.50001 11C7.50001 12.933 9.06702 14.5 11 14.5ZM11 16C13.7614 16 16 13.7614 16 11C16 8.23858 13.7614 6 11 6C8.23859 6 6.00001 8.23858 6.00001 11C6.00001 13.7614 8.23859 16 11 16Z" fill="#1398A0"/>
<path d="M11 28L2.56401 18.051C2.44679 17.9016 2.33079 17.7513 2.21601 17.6C0.774992 15.7018 -0.00348119 13.3832 1.17029e-05 11C1.17029e-05 8.08262 1.15894 5.28473 3.22184 3.22183C5.28474 1.15893 8.08263 0 11 0C13.9174 0 16.7153 1.15893 18.7782 3.22183C20.8411 5.28473 22 8.08262 22 11C22.0035 13.3821 21.2254 15.6996 19.785 17.597L19.784 17.6C19.784 17.6 19.484 17.994 19.439 18.047L11 28ZM3.5 16.634C3.5 16.634 3.733 16.942 3.786 17.008L11 25.5L18 17C18.044 16.945 18.279 16.634 18.279 16.634C19.4562 15.0831 20.5023 12.947 20.5 11C20.5 8.61305 19.1878 5.68783 17.5 4C15.8122 2.31217 13.387 1.5 11 1.5C8.61306 1.5 6.18783 2.81217 4.5 4.5C2.81217 6.18783 1.5 8.61305 1.5 11C1.4979 12.9482 2.32178 15.0824 3.5 16.634Z" fill="#1398A0"/>
</svg>
