<svg width="32" height="32" viewBox="0 0 32 32" fill="none" xmlns="http://www.w3.org/2000/svg">
<path d="M6.5 4C5.30653 4 4.16193 4.47411 3.31802 5.31802C2.47411 6.16193 2 7.30653 2 8.5V23.5C2 24.6935 2.47411 25.8381 3.31802 26.682C4.16193 27.5259 5.30653 28 6.5 28H18.755C18.269 27.3938 17.8738 26.7201 17.582 26H6.5C5.83696 26 5.20107 25.7366 4.73223 25.2678C4.26339 24.7989 4 24.163 4 23.5V8.5C4 7.83696 4.26339 7.20107 4.73223 6.73223C5.20107 6.26339 5.83696 6 6.5 6H25.5C26.163 6 26.7989 6.26339 27.2678 6.73223C27.7366 7.20107 28 7.83696 28 8.5V15C29.214 15.912 30 17.364 30 19V8.5C30 7.30653 29.5259 6.16193 28.682 5.31802C27.8381 4.47411 26.6935 4 25.5 4H6.5ZM19.803 26C20.2667 26.803 20.9102 27.4876 21.683 28C22.503 28.545 23.463 28.894 24.5 28.98V30.25C24.5 30.4489 24.579 30.6397 24.7197 30.7803C24.8603 30.921 25.0511 31 25.25 31C25.4489 31 25.6397 30.921 25.7803 30.7803C25.921 30.6397 26 30.4489 26 30.25V28.917C26.8483 28.7738 27.6559 28.4498 28.368 27.967C28.9972 27.5401 29.5395 26.9974 29.966 26.368C30.6416 25.3749 31.002 24.2011 31 23C31 22.8011 30.921 22.6103 30.7803 22.4697C30.6397 22.329 30.4489 22.25 30.25 22.25C30.0511 22.25 29.8603 22.329 29.7197 22.4697C29.579 22.6103 29.5 22.8011 29.5 23C29.5 23.316 29.4683 23.6233 29.405 23.922C29.2849 24.4955 29.0539 25.04 28.725 25.525C28.405 25.997 27.997 26.405 27.525 26.725C26.997 27.0834 26.3987 27.3255 25.77 27.435L25.752 27.438C25.3791 27.501 24.9998 27.5168 24.623 27.485L24.606 27.483C23.4659 27.3857 22.4065 26.855 21.646 26C20.9064 25.176 20.4981 24.1073 20.5 23C20.5 22.8011 20.421 22.6103 20.2803 22.4697C20.1397 22.329 19.9489 22.25 19.75 22.25C19.5511 22.25 19.3603 22.329 19.2197 22.4697C19.079 22.6103 19 22.8011 19 23C19 24.093 19.292 25.117 19.803 26ZM25 16C24.2044 16 23.4413 16.3161 22.8787 16.8787C22.3161 17.4413 22 18.2044 22 19V23C22 23.394 22.0776 23.7841 22.2284 24.1481C22.3791 24.512 22.6001 24.8427 22.8787 25.1213C23.1573 25.3999 23.488 25.6209 23.8519 25.7716C24.2159 25.9224 24.606 26 25 26C25.394 26 25.7841 25.9224 26.1481 25.7716C26.512 25.6209 26.8427 25.3999 27.1213 25.1213C27.3999 24.8427 27.6209 24.512 27.7716 24.1481C27.9224 23.7841 28 23.394 28 23V19C28 18.2044 27.6839 17.4413 27.1213 16.8787C26.5587 16.3161 25.7956 16 25 16ZM9 9C8.73478 9 8.48043 9.10536 8.29289 9.29289C8.10536 9.48043 8 9.73478 8 10C8 10.2652 8.10536 10.5196 8.29289 10.7071C8.48043 10.8946 8.73478 11 9 11H15C15.2652 11 15.5196 10.8946 15.7071 10.7071C15.8946 10.5196 16 10.2652 16 10C16 9.73478 15.8946 9.48043 15.7071 9.29289C15.5196 9.10536 15.2652 9 15 9H9ZM8 20C8 19.7348 8.10536 19.4804 8.29289 19.2929C8.48043 19.1054 8.73478 19 9 19H15C15.2652 19 15.5196 19.1054 15.7071 19.2929C15.8946 19.4804 16 19.7348 16 20C16 20.2652 15.8946 20.5196 15.7071 20.7071C15.5196 20.8946 15.2652 21 15 21H9C8.73478 21 8.48043 20.8946 8.29289 20.7071C8.10536 20.5196 8 20.2652 8 20ZM9 14C8.73478 14 8.48043 14.1054 8.29289 14.2929C8.10536 14.4804 8 14.7348 8 15C8 15.2652 8.10536 15.5196 8.29289 15.7071C8.48043 15.8946 8.73478 16 9 16H18C18.2652 16 18.5196 15.8946 18.7071 15.7071C18.8946 15.5196 19 15.2652 19 15C19 14.7348 18.8946 14.4804 18.7071 14.2929C18.5196 14.1054 18.2652 14 18 14H9Z" fill="white"/>
</svg>
