<svg width="506" height="312" viewBox="0 0 506 312" fill="none" xmlns="http://www.w3.org/2000/svg">
<path d="M184.929 11.4965C185.303 11.1419 185.751 11 186.199 11H204.207C204.73 11 205.178 11.1419 205.477 11.4965C205.851 11.8512 206 12.2768 206 12.7024V111.298C206 111.794 205.851 112.22 205.477 112.503C205.103 112.858 204.655 113 204.207 113H186.274C185.751 113 185.303 112.858 185.004 112.503C184.63 112.149 184.481 111.723 184.481 111.298V71.5049C184.481 71.0083 184.257 70.7955 183.734 70.7955H168.341C167.818 70.7955 167.594 71.0083 167.594 71.5049V111.298C167.594 111.794 167.445 112.22 167.071 112.503C166.697 112.858 166.249 113 165.801 113H147.793C147.27 113 146.822 112.858 146.523 112.503C146.149 112.149 146 111.723 146 111.298V12.7024C146 12.2058 146.149 11.7802 146.523 11.4965C146.897 11.1419 147.345 11 147.793 11H165.801C166.324 11 166.772 11.1419 167.071 11.4965C167.445 11.8512 167.594 12.2768 167.594 12.7024V52.3533C167.594 52.8498 167.818 53.0626 168.341 53.0626H183.734C184.257 53.0626 184.481 52.8498 184.481 52.3533V12.7733C184.406 12.2768 184.555 11.8512 184.929 11.4965Z" fill="#1398A0"/>
<path d="M158 17.5C158 18.3571 157.357 19 156.5 19C155.643 19 155 18.3571 155 17.5C155 16.6429 155.643 16 156.5 16C157.357 16 158 16.6429 158 17.5Z" fill="#A6A6A6"/>
<path d="M197 17.5C197 18.3571 196.357 19 195.5 19C194.643 19 194 18.3571 194 17.5C194 16.6429 194.643 16 195.5 16C196.357 16 197 16.6429 197 17.5Z" fill="#A6A6A6"/>
<path d="M338.176 11.5671C338.548 11.2126 338.994 11.0709 339.441 11.0709H357.215C357.736 11.0709 358.182 11.2126 358.479 11.5671C358.851 11.9215 359 12.3468 359 12.7721V111.299C359 111.795 358.851 112.22 358.479 112.504C358.108 112.858 357.661 113 357.215 113H337.061C336.019 113 335.35 112.504 335.053 111.511L316.088 55.089C316.014 54.8054 315.791 54.6637 315.568 54.7345C315.344 54.8054 315.196 54.9472 315.196 55.2307L315.344 111.228C315.344 111.724 315.196 112.149 314.824 112.433C314.452 112.787 314.006 112.929 313.56 112.929H295.785C295.264 112.929 294.818 112.787 294.521 112.433C294.149 112.079 294 111.653 294 111.228V12.7012C294 12.205 294.149 11.7797 294.521 11.4962C294.892 11.1418 295.339 11 295.785 11H315.791C316.832 11 317.501 11.4962 317.799 12.4885L336.912 68.9111C336.986 69.1946 337.209 69.3363 337.432 69.2655C337.656 69.1946 337.804 69.0528 337.804 68.7693L337.656 12.7721C337.581 12.3468 337.804 11.9215 338.176 11.5671Z" fill="#1398A0"/>
<path d="M308 17.5C308 18.3571 307.357 19 306.5 19C305.643 19 305 18.3571 305 17.5C305 16.6429 305.643 16 306.5 16C307.357 16 308 16.6429 308 17.5Z" fill="#A6A6A6"/>
<path d="M350 17.5C350 18.3571 349.357 19 348.5 19C347.643 19 347 18.3571 347 17.5C347 16.6429 347.643 16 348.5 16C349.357 16 350 16.6429 350 17.5Z" fill="#A6A6A6"/>
<path d="M262.889 126.355L260.424 112.264C260.424 111.763 260.125 111.549 259.528 111.549H240.031C239.433 111.549 239.135 111.763 239.135 112.264L236.67 126.355C236.595 127.428 235.923 128 234.653 128H216.65C215.306 128 214.783 127.356 215.081 126.069L237.641 26.6451C237.865 25.5722 238.537 25 239.658 25H260.424C261.544 25 262.217 25.5722 262.441 26.6451L284.851 126.069L285 126.641C285 127.499 284.402 128 283.282 128H264.831C263.636 128 262.964 127.428 262.889 126.355ZM242.72 95.4549H256.54C257.062 95.4549 257.287 95.2403 257.137 94.7396L249.891 54.6125C249.817 54.3264 249.667 54.1833 249.443 54.1833C249.219 54.1833 249.07 54.3264 248.995 54.6125L242.048 94.7396C242.123 95.2403 242.347 95.4549 242.72 95.4549Z" fill="#1398A0"/>
<path d="M251 33.5C251 34.3571 250.357 35 249.5 35C248.643 35 248 34.3571 248 33.5C248 32.6429 248.643 32 249.5 32C250.357 32 251 32.7143 251 33.5Z" fill="#A6A6A6"/>
<path d="M373.52 126.575C373.148 126.22 373 125.795 373 125.37V26.8429C373 26.3468 373.148 25.9215 373.52 25.6379C373.891 25.2835 374.336 25.1418 374.782 25.1418H392.748C393.268 25.1418 393.713 25.2835 394.01 25.6379C394.381 25.9924 394.53 26.4177 394.53 26.8429V63.5601C394.53 63.9145 394.678 64.1981 394.901 64.1981C395.124 64.2689 395.346 64.0563 395.421 63.7019L415.169 26.3468C415.688 25.4962 416.357 25 417.322 25H436.253C436.995 25 437.441 25.1418 437.738 25.4962C437.961 25.8506 437.961 26.3468 437.664 27.0556L415.02 69.089C414.946 69.4434 414.872 69.7978 414.872 69.9395L438.852 125.015C438.926 125.228 439 125.511 439 125.866C439 126.646 438.48 127 437.441 127H418.361C417.247 127 416.505 126.575 416.208 125.653L400.321 87.4475C400.246 87.164 400.098 87.0222 399.875 87.0931C399.652 87.164 399.43 87.2349 399.281 87.4475L394.827 95.032C394.604 95.3864 394.53 95.7408 394.53 95.8826V125.157C394.53 125.653 394.381 126.079 394.01 126.362C393.639 126.716 393.193 126.858 392.748 126.858H374.856C374.336 127.142 373.891 126.929 373.52 126.575Z" fill="#1398A0"/>
<path d="M386 33.5C386 34.3571 385.357 35 384.5 35C383.643 35 383 34.3571 383 33.5C383 32.6429 383.643 32 384.5 32C385.357 32 386 32.7143 386 33.5Z" fill="#A6A6A6"/>
<path d="M426 33.5C426 34.3571 425.357 35 424.5 35C423.643 35 423 34.3571 423 33.5C423 32.6429 423.643 32 424.5 32C425.357 32 426 32.7143 426 33.5Z" fill="#A6A6A6"/>
<path d="M172.193 249.503C171.821 249.148 171.673 248.722 171.673 248.296V210.322L171.525 209.47L150.148 150.058C150.074 149.846 150 149.633 150 149.349C150 148.497 150.594 148 151.707 148H170.485C171.599 148 172.341 148.497 172.638 149.491L182.138 184.413C182.213 184.697 182.361 184.839 182.584 184.839C182.806 184.839 182.955 184.697 183.029 184.413L192.53 149.491C192.826 148.497 193.569 148 194.682 148H213.312C213.906 148 214.351 148.142 214.722 148.497C215.019 148.852 215.093 149.349 214.871 150.058L193.346 209.47L193.198 210.322V248.296C193.198 248.793 193.049 249.219 192.678 249.503C192.307 249.858 191.862 250 191.416 250H173.529C172.935 250 172.489 249.787 172.193 249.503Z" fill="#1398A0"/>
<path d="M164 155.5C164 156.357 163.357 157 162.5 157C161.643 157 161 156.357 161 155.5C161 154.643 161.643 154 162.5 154C163.357 154 164 154.643 164 155.5Z" fill="#A6A6A6"/>
<path d="M204 155.5C204 156.357 203.357 157 202.5 157C201.643 157 201 156.357 201 155.5C201 154.643 201.643 154 202.5 154C203.357 154 204 154.643 204 155.5Z" fill="#A6A6A6"/>
<path d="M229.421 258.082C223.832 252.804 221 245.742 221 236.968V190.032C221 181.258 223.832 174.196 229.421 168.918C235.01 163.639 242.536 161 251.925 161C261.315 161 268.841 163.639 274.505 168.918C280.168 174.196 283 181.258 283 190.032V236.968C283 245.742 280.168 252.804 274.505 258.082C268.841 263.361 261.315 266 251.925 266C242.536 266 235.01 263.361 229.421 258.082ZM258.781 245.385C260.495 243.459 261.389 240.963 261.389 237.824V189.105C261.389 185.966 260.495 183.469 258.781 181.543C257.067 179.618 254.757 178.69 251.851 178.69C249.019 178.69 246.709 179.618 244.995 181.543C243.281 183.469 242.462 185.966 242.462 189.105V237.824C242.462 240.963 243.281 243.459 244.995 245.385C246.709 247.311 248.945 248.238 251.851 248.238C254.757 248.238 257.067 247.311 258.781 245.385Z" fill="#1398A0"/>
<path d="M254 168.5C254 169.357 253.357 170 252.5 170C251.643 170 251 169.357 251 168.5C251 167.643 251.643 167 252.5 167C253.286 167 254 167.714 254 168.5Z" fill="#A6A6A6"/>
<path d="M16 301.5C168.798 300.833 340.202 300.833 493 301.5C340.202 302.167 168.798 302.167 16 301.5Z" fill="#262D38"/>
<path d="M446.826 190.777C447.127 186.553 447.652 182.329 448.704 178.178C449.605 174.455 450.957 170.661 453.436 167.583C455.689 164.791 458.918 162.5 462.674 162.071C466.279 161.641 469.659 163.216 472.438 165.364C475.818 168.084 478.371 171.592 480.775 175.099C483.478 178.965 485.732 182.974 487.985 187.126C488.06 187.269 487.835 187.412 487.76 187.269C485.957 183.761 483.704 180.397 481.3 177.247C479.047 174.24 476.644 171.234 473.865 168.657C471.386 166.366 468.232 164.218 464.627 164.075C461.021 163.932 457.717 165.865 455.614 168.514C453.21 171.449 452.009 175.099 451.032 178.679C450.056 182.616 449.53 186.625 449.155 190.633C448.479 198.937 448.253 207.241 448.028 215.545C447.953 220.27 447.878 224.923 447.803 229.647C447.803 232.009 447.727 234.443 447.727 236.806C447.727 239.096 447.803 241.459 447.427 243.678C447.352 244.107 446.526 244.107 446.451 243.678C446.075 241.53 446.15 239.311 446.15 237.164C446.15 234.873 446.075 232.654 446.075 230.363C446 225.996 446 221.558 446 217.191C446.075 208.386 446.15 199.581 446.826 190.777Z" fill="#262D38"/>
<path d="M458.869 184.598C459.321 182.244 460.149 179.247 461.58 177.392C464.139 174.11 466.85 175.537 464.29 179.176C461.504 183.1 461.128 186.239 460.751 188.023C460.751 188.023 464.968 193.731 470.087 196.585C469.861 194.373 469.184 190.949 469.636 187.738C470.614 180.674 475.132 181.031 474.002 186.668C473.099 191.163 472.722 196.014 472.948 198.084C474.454 199.154 477.089 200.153 478.444 200.652C478.143 199.796 477.842 198.868 477.466 197.655C475.659 191.305 480.101 189.307 480.251 192.875C480.327 195.8 481.531 200.367 481.983 201.865C484.467 202.65 486.5 203.149 487.705 203.577C492.9 205.29 496.062 209 496.062 209C498.396 207.002 500.278 204.648 501.784 202.008C500.203 200.723 497.718 198.868 494.33 196.514C487.931 192.233 490.114 186.81 495.234 190.164C498.923 192.59 501.784 197.085 503.064 199.439C504.871 195.444 505.774 191.02 506 186.739C500.956 182.244 488.458 175.965 492.222 175.965C495.61 175.965 503.214 180.674 506 182.458C505.925 181.174 505.774 179.961 505.548 178.748C500.805 175.822 485.296 171.185 487.78 169.9C490.491 168.473 501.257 173.182 504.569 174.681C503.892 172.469 502.913 170.543 501.709 169.044C495.158 160.696 483.263 157.842 478.068 159.412C474.379 160.554 475.508 169.33 474.68 169.044C460.149 163.55 453.448 167.474 458.869 184.598ZM494.933 183.599C495.987 182.387 500.805 185.883 499.375 187.809C498.019 189.807 493.577 185.169 494.933 183.599ZM469.711 176.108C470.991 176.893 469.108 181.316 467.151 179.961C465.495 178.819 468.431 175.323 469.711 176.108Z" fill="#1398A0"/>
<path d="M471.753 177.866C472.44 176.664 473.127 175.392 473.89 174.19C474.652 173.059 475.415 171.857 476.331 170.868C476.102 170.655 475.949 170.373 475.72 170.161C475.644 170.09 475.797 169.949 475.873 170.019C476.102 170.302 476.331 170.585 476.636 170.797C476.712 170.797 476.712 170.868 476.712 170.938C477.628 171.928 478.467 172.988 479.306 174.119C480.755 174.402 482.205 174.826 483.654 175.251C485.104 175.675 486.553 176.17 488.003 176.735C488.155 176.806 488.079 177.018 487.927 176.947C486.553 176.382 485.104 175.816 483.654 175.321C482.281 174.897 480.908 174.544 479.459 174.19C479.916 174.756 480.374 175.392 480.755 176.028C483.349 176.735 485.943 177.866 488.384 178.927C490.978 180.058 493.496 181.401 495.937 182.744C496.089 182.815 495.937 183.027 495.784 182.956C493.343 181.613 490.825 180.482 488.308 179.351C485.943 178.29 483.426 177.442 480.984 176.452C487.087 185.218 490.749 195.398 495.632 204.8C495.708 204.941 495.479 205.083 495.403 204.941C493.877 201.619 492.199 198.438 490.597 195.186C489.147 192.287 487.698 189.318 486.248 186.42C485.79 185.572 485.409 184.723 484.951 183.875C485.18 188.541 485.104 193.348 485.943 198.014C485.943 198.155 485.714 198.226 485.714 198.014C485.333 192.994 484.417 188.046 484.417 183.027V182.956C483.349 181.047 482.281 179.139 481.061 177.301C479.077 181.684 476.941 186.137 475.949 190.874C475.949 191.015 475.644 190.944 475.72 190.803C477.094 186.067 478.391 181.33 480.832 176.947C479.535 174.968 478.085 173.059 476.56 171.221C475.873 172.423 475.034 173.483 474.271 174.614C473.508 175.675 472.745 176.806 472.059 177.937C470.609 180.34 469.236 182.815 468.244 185.36C468.168 185.501 467.939 185.43 468.015 185.289C469.236 182.815 470.38 180.34 471.753 177.866Z" fill="#262D38"/>
<path d="M425.049 187.556C428.832 183.889 433.282 179 439.142 179C444.78 179 449.008 183.458 451.381 187.988C453.903 192.733 454.793 198.126 455.461 203.375C456.277 209.631 456.796 216.03 456.944 222.357C457.019 225.881 457.019 229.404 456.944 232.927C456.87 236.45 456.796 240.117 456.128 243.569C456.054 244.144 455.09 244.144 455.016 243.569C454.867 240.621 454.942 237.601 455.016 234.653C455.016 231.705 455.016 228.829 454.867 225.881C454.645 219.985 454.2 214.089 453.458 208.192C452.865 203.087 452.345 197.767 450.788 192.805C449.378 188.347 446.708 183.242 442.035 181.301C435.656 178.64 429.425 183.53 425.271 187.628C425.123 187.772 424.901 187.628 425.049 187.556Z" fill="#262D38"/>
<path d="M405.075 195.965C405.075 196.745 405.149 197.455 405.224 198.164C406.942 197.029 409.183 195.965 411.499 195.681C416.952 195.113 416.579 199.086 412.918 199.228C409.482 199.37 407.166 199.938 405.448 200.647C406.345 207.458 408.287 212.922 408.586 212.993C408.884 213.063 415.533 212.638 422.928 211.29C421.584 208.594 418.521 204.904 420.09 204.621C421.658 204.337 423.376 207.529 424.273 211.006C427.858 210.296 431.519 209.445 434.731 208.31C432.341 206.323 428.68 203.911 430.099 202.847C431.519 201.783 434.432 205.259 436.225 207.742C437.943 207.033 439.512 206.252 440.707 205.33C437.495 200.86 429.651 199.938 430.697 196.674C431.743 193.34 439.064 197.951 442.35 203.911C446.235 200.08 447.355 194.688 446.907 190.076C443.546 189.721 437.047 190.36 437.495 188.089C437.943 185.89 442.649 186.245 446.459 187.593C446.011 185.535 445.189 183.69 444.218 182.555C440.632 178.227 429.801 183.761 429.801 183.761C429.801 183.761 430.996 173.403 426.813 171.629C424.422 170.636 420.239 170.636 415.981 172.977C418.371 173.19 421.21 173.899 422.331 175.46C423.825 177.447 421.509 178.511 420.015 177.589C418.969 176.95 417.027 174.893 413.516 174.609C412.171 175.673 410.827 177.021 409.631 178.724C409.258 179.292 408.884 179.788 408.511 180.427C411.947 179.079 416.429 178.369 421.21 180.64C425.916 182.839 423.302 187.522 419.268 185.677C415.234 183.903 411.35 182.13 407.092 183.123C405.523 186.599 405 190.643 405 194.688C406.643 193.552 408.959 192.275 411.947 191.495C416.653 190.36 417.998 192.985 412.918 193.481C409.631 193.836 406.942 194.971 405.075 195.965ZM410.752 188.87C410.453 187.451 413.74 187.025 414.263 188.16C414.711 189.154 411.051 190.289 410.752 188.87ZM439.064 196.816C439.362 196.036 441.603 196.958 441.379 197.88C441.081 199.228 438.765 197.597 439.064 196.816ZM423.451 201.854C425.095 201.215 427.56 205.046 425.842 205.898C424.049 206.82 422.107 202.35 423.451 201.854Z" fill="#1398A0"/>
<path d="M409.021 211.866C411.464 208.051 413.833 204.165 416.35 200.35C417.535 198.584 418.793 196.888 420.052 195.192C419.83 195.122 419.682 195.122 419.46 195.051C419.163 194.98 418.793 194.91 418.497 194.91C417.757 194.768 417.016 194.698 416.276 194.627C415.536 194.556 414.869 194.556 414.129 194.486C413.389 194.486 412.574 194.486 411.834 194.627C411.76 194.627 411.76 194.486 411.834 194.486C412.574 194.486 413.389 194.415 414.129 194.415C414.869 194.415 415.61 194.415 416.35 194.486C417.016 194.556 417.757 194.556 418.423 194.698C418.793 194.768 419.163 194.839 419.534 194.91C419.756 194.98 419.978 194.98 420.2 195.051C421.533 193.355 422.865 191.66 424.272 190.035C420.052 188.198 415.684 186.643 411.094 186.008C411.02 186.008 411.02 185.866 411.094 185.866C415.684 186.573 420.348 187.703 424.494 189.752C425.234 188.834 426.049 187.915 426.789 187.067C427.677 186.078 428.566 185.089 429.38 184.029C429.454 183.959 429.528 184.029 429.454 184.1C428.344 185.23 427.381 186.431 426.419 187.703C428.196 188.834 429.75 190.176 431.305 191.448C432.934 192.79 434.489 194.203 435.969 195.616C436.043 195.687 435.969 195.758 435.895 195.687C434.415 194.274 432.86 192.931 431.231 191.589C429.602 190.317 427.9 189.116 426.271 187.844C425.901 188.339 425.53 188.763 425.16 189.258C424.938 189.469 424.79 189.752 424.568 189.964C424.568 189.964 424.568 189.964 424.494 190.035C423.902 190.812 423.235 191.589 422.643 192.366C423.383 193.355 423.976 194.486 424.494 195.546C425.012 196.605 425.53 197.736 425.975 198.866C426.863 201.198 427.455 203.671 427.974 206.073C427.974 206.143 427.9 206.214 427.826 206.073C427.307 203.671 426.567 201.339 425.604 199.008C425.16 197.806 424.568 196.676 424.05 195.546C423.532 194.486 422.939 193.497 422.495 192.437C421.977 193.143 421.385 193.779 420.866 194.486C420.718 194.698 420.57 194.91 420.422 195.122C420.422 195.192 420.422 195.192 420.348 195.192C418.719 197.383 417.09 199.643 415.61 201.975C415.684 202.116 415.758 202.328 415.832 202.469C415.906 202.752 416.054 203.035 416.128 203.317C416.276 203.883 416.424 204.448 416.572 205.013C416.646 205.578 416.72 206.073 416.794 206.638C416.868 207.274 416.794 207.91 416.942 208.475C416.942 208.546 416.794 208.546 416.794 208.475C416.868 207.91 416.72 207.274 416.646 206.709C416.572 206.143 416.424 205.508 416.276 204.942C416.128 204.448 415.98 203.883 415.832 203.388C415.758 203.105 415.684 202.893 415.536 202.611C415.462 202.47 415.388 202.328 415.388 202.187C414.647 203.247 413.981 204.306 413.241 205.437C411.834 207.556 410.501 209.747 409.095 211.866C409.095 212.078 408.947 212.008 409.021 211.866Z" fill="#262D38"/>
<path d="M447 241.567C447.074 239.374 447.445 237.181 447.668 234.988C447.891 232.795 448.187 230.602 448.41 228.41C448.855 224.236 449.152 219.921 450.191 215.818C451.082 212.282 452.715 208.886 455.609 206.41C457.019 205.137 458.875 204.076 460.879 204.005C462.957 203.935 464.812 204.571 466.519 205.632C468.449 206.835 469.933 208.603 471.269 210.372C472.679 212.211 473.867 214.05 474.98 216.101C475.054 216.172 474.906 216.243 474.831 216.172C472.827 212.847 470.081 210.018 466.89 207.684C465.406 206.623 463.773 205.845 461.843 205.703C459.988 205.562 458.355 206.41 456.945 207.542C454.273 209.735 452.715 212.989 451.824 216.243C450.711 220.063 450.414 224.024 449.82 227.914C449.523 230.249 449.152 232.512 448.855 234.847C448.559 237.11 448.336 239.515 447.816 241.779C447.668 242.133 447 242.062 447 241.567Z" fill="#262D38"/>
<path d="M457.972 224.384C458.649 225.214 459.477 226.044 460.531 226.736C460.155 224.66 459.703 220.924 460.832 218.987C462.639 215.943 464.746 217.465 463.617 220.094C462.112 223.899 461.886 226.459 461.886 227.635C464.144 229.019 466.854 230.126 469.639 230.956C469.413 229.918 469.263 228.673 469.413 227.289C469.79 224.038 472.499 224.107 471.822 227.497C471.521 228.95 471.446 230.402 471.446 231.509C477.693 233.308 483.489 234 483.489 234C485.823 231.163 487.403 228.465 488.457 225.836C485.522 225.145 479.726 225.006 479.801 223.138C479.951 220.578 485.672 222.516 488.984 224.384C489.812 221.962 490.113 219.61 489.963 217.465C488.683 217.05 486.274 216.566 481.984 216.22C476.037 215.736 476.338 212.622 480.629 212.692C483.79 212.761 487.855 214.56 489.737 215.459C488.457 207.987 482.285 203.213 477.317 203.006C468.962 202.729 471.973 212.276 471.973 212.276C471.973 212.276 466.327 208.61 460.983 208.748C455.638 208.956 452.251 217.05 457.972 224.384ZM480.253 210.547C480.102 209.44 483.79 209.232 484.016 210.616C484.242 212.138 480.478 211.654 480.253 210.547ZM486.274 221.755C486.199 221.063 487.78 220.924 488.156 221.824C488.382 222.446 486.35 222.446 486.274 221.755ZM466.252 222.446C467.531 222.585 468.209 226.736 466.026 226.667C464.37 226.597 465.123 222.308 466.252 222.446Z" fill="#1398A0"/>
<path d="M468.033 227.878C468.396 227.306 468.637 226.653 469 226C468.758 226.653 468.516 227.224 468.275 227.878C468.154 228.041 467.912 228.041 468.033 227.878Z" fill="#262D38"/>
<path d="M470.463 220.569C470.829 219.527 471.268 218.486 471.706 217.444C471.926 216.889 472.145 216.333 472.438 215.778C472.657 215.292 472.804 214.805 473.169 214.389C472.95 213.972 472.657 213.486 472.511 213.069C472.511 213 472.584 213 472.584 213C473.169 213.694 473.681 214.528 474.193 215.361C474.413 215.708 474.632 216.125 474.852 216.472C475.29 216.472 475.803 216.611 476.241 216.68C476.753 216.75 477.192 216.889 477.704 216.958C478.216 217.028 478.655 217.166 479.167 217.305C479.679 217.444 480.118 217.583 480.63 217.653C480.776 217.653 480.703 217.861 480.557 217.791C480.045 217.583 479.533 217.514 479.021 217.444C478.582 217.375 478.07 217.236 477.631 217.236C477.192 217.166 476.68 217.097 476.241 217.097C475.876 217.097 475.51 217.028 475.144 217.028C475.364 217.375 475.51 217.653 475.729 218C475.729 218.069 475.802 218.069 475.802 218.139C476.168 218.139 476.607 218.208 476.973 218.278C477.412 218.347 477.777 218.416 478.216 218.486C479.094 218.694 479.899 218.833 480.776 219.041C482.532 219.527 484.287 220.014 485.97 220.569C486.043 220.569 485.97 220.708 485.897 220.708C484.214 220.152 482.459 219.736 480.63 219.319C479.826 219.111 478.948 218.972 478.143 218.764C477.704 218.694 477.339 218.625 476.9 218.486C476.607 218.416 476.241 218.416 475.949 218.278C476.827 219.875 477.704 221.402 478.436 223.069C480.118 226.61 481.508 230.221 482.971 233.902C482.971 233.971 482.824 234.041 482.824 233.971C481.508 230.36 479.752 226.888 477.997 223.416C477.704 222.791 477.339 222.166 477.046 221.541C477.046 221.68 476.973 221.819 476.973 221.958C476.9 222.375 476.827 222.791 476.753 223.277C476.607 224.111 476.461 225.013 476.315 225.847C476.022 227.583 475.583 229.458 475.656 231.194C475.656 231.332 475.51 231.332 475.51 231.194C475.656 230.36 475.656 229.458 475.729 228.555C475.803 227.652 475.876 226.749 475.949 225.847C476.022 225.013 476.168 224.111 476.315 223.277C476.388 222.861 476.461 222.444 476.534 221.958C476.607 221.68 476.607 221.264 476.753 221.055C476.241 220.152 475.802 219.25 475.29 218.347C474.852 217.514 474.413 216.68 473.901 215.847C473.681 215.5 473.462 215.153 473.316 214.805C473.169 215.222 472.95 215.708 472.804 216.125C472.584 216.611 472.365 217.097 472.145 217.583C471.706 218.625 471.268 219.736 470.829 220.847C470.243 222.375 469.512 223.972 469 225.569C469.512 223.763 469.878 222.097 470.463 220.569Z" fill="#262D38"/>
<path d="M433 245L435.097 301H467.978L470 245H433Z" fill="#28363E"/>
<path d="M433 245L433.3 253L469.775 251.974L470 245H433Z" fill="#262D38"/>
<path d="M431 249H472V240H431V249Z" fill="#28363E"/>
<path d="M455 246H409V301H455V246Z" fill="#DBDBDB"/>
<path d="M456 253H408V254H456V253Z" fill="#C7C7C7"/>
<path d="M456 255H408V256H456V255Z" fill="#C7C7C7"/>
<path d="M456 256H408V257H456V256Z" fill="#C7C7C7"/>
<path d="M456 290H408V291H456V290Z" fill="#C7C7C7"/>
<path d="M456 292H408V293H456V292Z" fill="#C7C7C7"/>
<path d="M456 293H408V294H456V293Z" fill="#C7C7C7"/>
<path d="M441.922 268C432.59 268 424.154 262.176 418.705 257.216C412.807 251.895 409.075 246.575 409 246.503L409.821 246C409.971 246.216 424.677 267.065 441.922 267.065C446.251 267.065 449.611 265.771 451.776 263.111C456.777 257.144 454.538 246.431 454.463 246.359L455.434 246.144C455.508 246.575 457.823 257.431 452.522 263.686C450.133 266.562 446.55 268 441.922 268Z" fill="#262D38"/>
<path d="M421 246H445C445 246 444.392 247.824 441.886 248.635C439.304 249.446 439.532 256 434.595 256C429.658 256 427.304 249.649 426.165 248.568C424.873 247.419 421 246 421 246Z" fill="#1398A0"/>
<path d="M137 246H91V301H137V246Z" fill="#DBDBDB"/>
<path d="M138 253H90V254H138V253Z" fill="#C7C7C7"/>
<path d="M138 255H90V256H138V255Z" fill="#C7C7C7"/>
<path d="M138 256H90V257H138V256Z" fill="#C7C7C7"/>
<path d="M138 290H90V291H138V290Z" fill="#C7C7C7"/>
<path d="M138 292H90V293H138V292Z" fill="#C7C7C7"/>
<path d="M138 293H90V294H138V293Z" fill="#C7C7C7"/>
<path d="M123.922 268C114.59 268 106.154 262.176 100.705 257.216C94.8073 251.895 91.0747 246.575 91 246.503L91.8212 246C91.9705 246.216 106.677 267.065 123.922 267.065C128.251 267.065 131.611 265.771 133.776 263.111C138.777 257.144 136.538 246.431 136.463 246.359L137.434 246.144C137.508 246.575 139.823 257.431 134.522 263.686C132.133 266.562 128.55 268 123.922 268Z" fill="#262D38"/>
<path d="M309.582 301.978L310 298L186.547 286.366L186.129 290.344L309.582 301.978Z" fill="#262D38"/>
<path d="M189 288.281L179.495 287.345L181.263 270.223L168.737 269L168 276.266L168.663 276.338L169.4 269.791L180.453 270.87L178.684 287.993L188.926 289L189 288.281Z" fill="#C7C7C7"/>
<path d="M200.477 291.973L201 287L185.071 285.499L184.548 290.471L200.477 291.973Z" fill="#30586C"/>
<path d="M172.864 301.836L176 272L162.062 270.688L158.926 300.524L172.864 301.836Z" fill="#1398A0"/>
<path opacity="0.3" d="M172.864 301.836L176 272L162.062 270.688L158.926 300.524L172.864 301.836Z" fill="black"/>
<path d="M160.291 292.958C162.356 293.592 165.417 286.963 165.417 280.827C165.417 278.923 164.958 277.865 166.106 277.23C167.253 276.596 169.396 276.737 168.937 275.397C168.554 274.057 166.565 274.339 166.106 273.351C165.646 272.364 165.799 272.223 165.111 271.729C164.499 271.236 163.045 270.671 162.433 271.236C161.821 271.729 161.897 274.621 161.668 276.384C161.438 278.288 159.219 292.676 160.291 292.958Z" fill="#1398A0"/>
<path d="M136.011 251C136.011 251 138.872 259.621 142.197 268.454C145.522 277.287 148.537 297.496 147.919 297.991C147.3 298.485 139.8 278.841 137.712 269.867C135.547 260.893 134 251.636 134 251.636L136.011 251Z" fill="#1398A0"/>
<path d="M136.583 251L139 257.181L135.167 258L134 251.67L136.583 251Z" fill="#DBDBDB"/>
<path d="M135.759 251.336C136.135 250.008 136.211 248.533 134.932 246.762C133.428 244.623 133.88 243 133.88 243C133.88 243 129.97 247.943 133.428 252L135.759 251.336Z" fill="#30586C"/>
<path d="M134.309 243.063C134.564 243.356 134.055 244.894 134.903 246.066C135.666 247.165 131.681 249.069 132.021 247.238C132.36 245.261 133.885 242.551 134.309 243.063Z" fill="#1398A0"/>
<path d="M153.335 256C153.335 256 150.559 262.965 147.308 270C144.057 277.105 140.568 293.496 141.044 293.989C141.52 294.481 148.815 278.653 151.035 271.336C153.255 264.09 155 256.563 155 256.563L153.335 256Z" fill="#A6A6A6"/>
<path d="M153.038 256L151 260.295L153.792 261L155 256.577L153.038 256Z" fill="#DBDBDB"/>
<path d="M153 256.407C153.308 252.333 156.697 249 156.697 249C156.697 249 158.083 253.815 154.925 257L153 256.407Z" fill="#30586C"/>
<path d="M144.664 247C144.664 247 145.676 254.414 147.05 262.042C148.425 269.671 148.063 286.638 147.484 286.994C146.906 287.351 143.868 270.312 143.434 262.684C143 255.056 143 247.285 143 247.285L144.664 247Z" fill="#28363E"/>
<path d="M145.025 247L146 251.797L143.075 252L143 247.203L145.025 247Z" fill="#DBDBDB"/>
<path d="M142.784 247C142.784 247 144.569 246.806 144.641 246.806C144.712 246.741 146.069 242.144 145.997 242.014C145.854 241.885 140 242.662 140 243.115C140.071 243.633 142.784 247 142.784 247Z" fill="#30586C"/>
<path d="M151.674 301H136.326C134.512 301 133 299.583 133 297.883V278.117C133 276.417 134.512 275 136.326 275H151.674C153.488 275 155 276.417 155 278.117V297.883C155 299.654 153.488 301 151.674 301Z" fill="#30586C"/>
<path d="M152 271H136V275H152V271Z" fill="#30586C"/>
<path d="M137.055 275.134C140.778 274.992 149.759 274.922 151 275.134V275.205C149.759 275.417 141.362 275.629 137.055 275.205C136.982 275.205 136.982 275.134 137.055 275.134Z" fill="#262D38"/>
<path d="M262.85 301.63C264.804 302.268 321.392 302.126 323.496 300.85C323.721 300.708 324.248 283.051 324.248 283.051C324.172 282.768 325.074 281.066 326.502 278.655C330.41 271.918 338 259.864 338 259.864L304.182 251L291.031 277.379L287.649 284.115C287.649 284.115 279.984 287.093 273.371 290.071C269.237 291.915 265.705 293.546 264.879 294.184C262.624 295.815 260.896 300.992 262.85 301.63Z" fill="#AD6359"/>
<path d="M262.843 301.624C264.782 302.272 320.93 302.128 323.017 300.832C323.241 300.688 323.763 282.76 323.763 282.76C323.688 282.472 324.583 280.744 326 278.296L290.805 277L287.45 283.84C287.45 283.84 279.844 286.864 273.282 289.888C269.181 291.76 265.677 293.416 264.856 294.064C262.619 295.72 260.904 300.976 262.843 301.624Z" fill="#EBEBEB"/>
<path d="M262.902 301.677C264.86 302.309 321.72 302.029 323.828 300.694C324.657 300.203 325.485 292.058 324.657 283L288.056 283.211C288.056 283.211 267.044 292.409 264.86 294.024C262.601 295.709 260.869 301.046 262.902 301.677Z" fill="#1398A0"/>
<path opacity="0.1" d="M323.857 301C323.106 301.5 314.992 301.786 305 302L323.707 283H324.608C325.51 292.214 324.683 300.5 323.857 301Z" fill="black"/>
<path d="M264.112 299.478C273.509 299.043 311.621 298.716 320.944 299.37C321.019 299.37 321.019 299.478 320.944 299.478C311.621 300.132 273.584 300.132 264.112 299.696C263.963 299.696 263.963 299.478 264.112 299.478Z" fill="#262D38"/>
<path d="M269.057 292.004C271.326 291.932 273.52 292.934 274.806 294.151C276.017 295.368 277 297.085 277 298.946C277 299.018 276.924 299.018 276.849 298.946C276.319 295.439 272.839 292.29 269.057 292.075C268.981 292.147 268.981 292.004 269.057 292.004Z" fill="#262D38"/>
<path d="M285.269 284.003C289.143 283.937 293.549 285.117 295.98 287.803C296.056 287.934 295.904 288 295.752 288C292.258 286.493 288.991 285.313 285.193 284.461C284.89 284.396 284.966 284.003 285.269 284.003Z" fill="#262D38"/>
<path d="M282.269 285.003C286.143 284.937 290.549 286.117 292.98 288.803C293.056 288.934 292.904 289 292.752 289C289.258 287.493 285.991 286.313 282.193 285.461C281.89 285.33 281.966 285.003 282.269 285.003Z" fill="#262D38"/>
<path d="M279.269 286.003C283.143 285.937 287.549 287.117 289.98 289.803C290.056 289.934 289.904 290 289.752 290C286.258 288.493 282.991 287.313 279.193 286.461C278.89 286.396 278.966 286.003 279.269 286.003Z" fill="#262D38"/>
<path d="M276.269 287.003C280.143 286.937 284.549 288.117 286.98 290.803C287.056 290.934 286.904 291 286.752 291C283.258 289.493 279.991 288.313 276.193 287.461C275.89 287.33 275.966 287.003 276.269 287.003Z" fill="#262D38"/>
<path d="M318.973 291C323.009 291 323.009 296.999 318.973 296.999C315.009 297.068 315.009 291.068 318.973 291Z" fill="#262D38"/>
<path d="M281.357 279.968C283.369 282.505 286.498 284.099 289.18 285.912C289.478 286.129 289.776 285.912 289.851 285.622C289.925 285.622 290 285.622 290 285.549C289.776 282.36 288.435 278.735 286.498 276.198C285.306 274.603 282.922 273.081 280.985 274.676C279.197 276.053 280.165 278.445 281.357 279.968ZM281.134 276.923C281.506 272.936 285.232 275.981 286.051 277.213C286.573 278.01 287.02 278.808 287.467 279.678C288.361 281.417 288.957 283.302 289.627 285.114C288.361 284.172 287.02 283.302 285.679 282.432C284.114 281.272 280.985 279.098 281.134 276.923Z" fill="#262D38"/>
<path d="M302.975 282.445C302.682 280.232 299.901 279.762 297.999 280.098C294.852 280.701 291.412 282.311 289.071 284.322C288.997 284.389 289.071 284.457 289.071 284.457C288.924 284.658 288.997 285.06 289.363 285.06C292.51 285.462 295.877 286.334 299.096 285.865C300.926 285.597 303.268 284.524 302.975 282.445ZM294.267 284.859C292.73 284.658 291.12 284.457 289.583 284.322C291.339 283.518 293.022 282.646 294.852 281.975C295.73 281.64 296.608 281.372 297.56 281.171C298.95 280.835 303.78 281.036 301.292 283.987C299.901 285.529 296.169 285.06 294.267 284.859Z" fill="#262D38"/>
<path d="M328.9 278.322L289 273.445C289 273.445 307.225 236.581 318.625 216.571C324.925 205.454 342.925 204.522 352 217.503C364.075 234.86 373.6 251.14 379 260.177L388 260.751L386.35 274.88L356.5 281.909C345.025 283.486 336.55 264.122 336.325 264.409C335.05 266.991 328.9 278.322 328.9 278.322Z" fill="#4A545A"/>
<path d="M337.02 264.928C338.034 262.694 338.831 260.317 339.773 258.011C340.642 255.777 341.584 253.543 342.453 251.31C344.264 246.77 346.075 242.303 347.813 237.764C348.755 235.242 349.696 232.648 350.565 230.054C350.565 229.982 350.71 229.982 350.638 230.054C349.986 232.504 349.262 234.882 348.465 237.259C348.682 236.827 348.899 236.395 349.117 236.034C349.696 234.954 350.348 233.801 350.928 232.72C350.928 232.648 351 232.72 351 232.792C350.421 233.873 349.841 235.026 349.262 236.107C348.972 236.683 348.682 237.187 348.32 237.692C346.219 244.393 343.757 251.022 340.787 257.434C339.628 259.956 338.252 262.406 337.093 264.856C337.093 265.072 336.948 265 337.02 264.928Z" fill="#262D38"/>
<path d="M328.02 271.917C329.894 269.037 334.239 260.326 335.813 257.302C338.96 251.254 341.882 244.991 344.579 238.727C346.078 235.199 347.576 231.6 348.925 228H349C346.902 234.48 344.355 240.815 341.582 247.007C338.81 253.27 329.819 270.045 328.17 271.917C328.095 272.061 327.945 271.989 328.02 271.917Z" fill="#262D38"/>
<path d="M352.033 233C355.641 238.729 359.248 244.316 362.856 250.045C364.659 252.945 366.463 255.774 368.267 258.674C369.093 260.018 369.92 261.432 370.822 262.776C371.648 264.049 372.625 265.11 374.053 265.817C375.632 266.595 377.435 266.949 379.089 267.373C381.043 267.868 382.997 268.434 384.951 268.859C385.026 268.859 385.026 269 384.875 269C383.147 268.576 381.343 268.293 379.615 267.868C378.037 267.515 376.383 267.232 374.805 266.737C373.377 266.312 372.175 265.605 371.198 264.544C370.145 263.413 369.469 261.998 368.642 260.725C365.035 254.855 361.503 248.984 357.971 243.114C356.017 239.719 354.063 236.395 352.033 233Z" fill="#262D38"/>
<path d="M329.925 272.978C327.537 272.59 325.149 272.434 322.686 272.201C320.298 271.968 317.909 271.657 315.446 271.424C310.67 270.88 294.325 268.548 293.056 268.159C292.981 268.159 292.981 268.003 293.056 268.003C294.25 267.926 304.923 269.169 307.311 269.48C312.088 270.102 316.864 270.879 321.641 271.579C322.984 271.812 324.402 272.045 325.746 272.279C327.089 272.512 328.507 272.745 329.851 272.901C330.075 272.901 330 273.056 329.925 272.978Z" fill="#262D38"/>
<path d="M305.058 308.693C305.732 306.911 340.722 264.784 343.045 264C343.345 263.929 358.33 274.479 358.33 274.479C358.929 275.263 388 270.059 388 270.059L387.55 303.276L334.878 301.137C334.878 301.137 327.685 304.987 321.092 308.123C317.046 310.047 313.449 311.687 312.475 311.901C309.778 312.471 304.383 310.475 305.058 308.693Z" fill="#AD6359"/>
<path d="M312.457 311.877C313.496 311.663 316.984 310.022 320.991 308.096C327.522 304.956 334.647 301.103 334.647 301.103L346.224 301.603L365 273.776C360.992 274.347 358.024 274.704 357.801 274.49C357.801 274.49 342.959 263.859 342.662 264.001C340.361 264.786 305.703 306.954 305.035 308.738C304.516 310.521 309.859 312.519 312.457 311.877Z" fill="#EBEBEB"/>
<path d="M305.069 308.614C305.747 306.768 341.149 264.794 343.559 264.013C344.463 263.729 351.844 268.203 359 274.453L336.177 301.441C336.177 301.441 315.464 311.242 312.677 311.881C309.89 312.52 304.316 310.461 305.069 308.614Z" fill="#1398A0"/>
<path d="M307.172 308.919C313.315 302.128 337.432 274.194 342.969 267.053C343.044 266.982 342.969 266.982 342.893 267.053C336.674 273.634 312.784 301.778 307.021 308.919C306.945 308.989 307.097 309.059 307.172 308.919Z" fill="#262D38"/>
<path d="M316.052 309.971C317.67 308.356 318.236 306.109 317.913 304.494C317.589 302.879 316.78 301.123 315.081 300C315 300 315 300.07 315 300.07C317.751 302.598 318.236 307.022 315.971 309.901C315.89 309.971 315.971 310.041 316.052 309.971Z" fill="#262D38"/>
<path d="M333.475 301.918C335.943 299.308 337.717 295.492 336.715 292.077C336.715 291.943 336.483 292.01 336.406 292.077C335.635 295.425 334.632 298.437 333.012 301.651C332.935 301.918 333.243 302.119 333.475 301.918Z" fill="#262D38"/>
<path d="M330.464 303.906C332.94 301.298 334.72 297.487 333.714 294.077C333.714 293.943 333.482 294.01 333.404 294.077C332.631 297.42 331.625 300.429 330 303.638C330 303.973 330.309 304.106 330.464 303.906Z" fill="#262D38"/>
<path d="M327.473 304.906C329.943 302.298 331.718 298.487 330.715 295.077C330.715 294.943 330.483 295.01 330.406 295.077C329.634 298.42 328.631 301.429 327.01 304.638C326.933 304.973 327.319 305.106 327.473 304.906Z" fill="#262D38"/>
<path d="M325.473 306.947C327.943 304.329 329.718 300.502 328.715 297.078C328.715 296.943 328.483 297.01 328.406 297.078C327.634 300.435 326.631 303.456 325.01 306.679C324.933 306.947 325.319 307.082 325.473 306.947Z" fill="#262D38"/>
<path d="M348.239 273.859C351.003 270.793 345.554 267.115 342.791 270.112C339.948 273.177 345.475 276.924 348.239 273.859Z" fill="#262D38"/>
<path d="M338.584 311.931C341.069 311.448 341.294 308.826 340.767 307.033C339.864 304.135 337.755 301.031 335.271 299.031C335.195 298.962 335.12 299.031 335.12 299.031C334.819 298.962 334.442 299.031 334.442 299.376C334.216 302.411 333.614 305.584 334.367 308.55C334.894 310.275 336.325 312.414 338.584 311.931ZM335.195 303.998C335.271 302.48 335.421 301.031 335.421 299.583C336.475 301.169 337.605 302.687 338.508 304.342C338.96 305.17 339.337 305.929 339.638 306.826C340.09 308.137 340.24 312.621 336.777 310.551C334.894 309.309 335.12 305.722 335.195 303.998Z" fill="#262D38"/>
<path d="M340.57 290.491C338.074 292.576 336.712 295.635 335.048 298.276C334.897 298.554 335.124 298.832 335.426 298.902C335.426 298.971 335.502 299.041 335.578 298.971C338.83 298.485 342.537 296.955 345.033 295.009C346.622 293.758 347.907 291.395 346.168 289.796C344.428 288.197 342.007 289.309 340.57 290.491ZM343.747 290.074C347.907 290.074 345.109 293.758 343.898 294.662C343.142 295.218 342.31 295.704 341.478 296.121C339.738 297.094 337.847 297.79 336.032 298.554C336.939 297.303 337.696 295.982 338.528 294.731C339.435 293.202 341.402 290.074 343.747 290.074Z" fill="#262D38"/>
<path d="M370.969 262.205C370.969 262.205 416.112 255.579 431.009 258.962C451.774 263.756 454.709 286.949 439.059 296.183C419.121 307.815 349 303.021 349 303.021L367.809 271.722C367.809 271.722 397.002 266.012 423.335 267.422L370.443 274.753L370.969 262.205Z" fill="#4A545A"/>
<path d="M366.02 273.802C366.02 273.736 366.02 273.669 366.096 273.669C366.096 273.603 366.096 273.603 366.096 273.537C366.096 273.405 366.171 273.339 366.171 273.207C366.246 273.008 366.321 272.81 366.396 272.612C366.472 272.413 366.547 272.215 366.697 272.017C366.772 271.818 366.923 271.686 367.073 271.488C367.073 271.488 367.073 271.488 367.148 271.421C367.148 271.421 367.148 271.421 367.223 271.421C367.223 271.421 367.223 271.421 367.299 271.421C370.532 270.893 392.26 268.314 395.493 267.983C398.726 267.653 402.035 267.455 405.268 267.256C411.809 266.859 418.35 266.727 424.891 266.926C425.493 266.926 426.094 266.992 426.696 266.992C426.846 266.926 426.996 266.926 427.072 266.926C427.372 266.859 427.673 266.793 428.049 266.727C428.651 266.661 429.252 266.529 429.854 266.463C431.057 266.331 432.335 266.198 433.538 266C433.613 266 433.613 266.066 433.538 266.132C432.259 266.397 431.057 266.727 429.854 266.926C429.478 266.992 429.102 267.058 428.801 267.124C431.207 267.322 433.613 267.521 435.944 267.785C436.019 267.785 436.019 267.917 435.944 267.917C432.711 267.653 429.402 267.587 426.169 267.587C422.936 267.587 419.703 267.587 416.47 267.719C409.929 267.983 403.388 268.38 396.847 268.975C393.163 269.306 370.983 272.017 367.299 272.083C367.299 272.083 367.299 272.083 367.223 272.083C367.223 272.149 367.148 272.215 367.148 272.347C367.073 272.545 366.923 272.744 366.848 272.942C366.772 273.14 366.622 273.273 366.472 273.471C366.396 273.537 366.321 273.669 366.321 273.736C366.321 273.802 366.246 273.802 366.246 273.868C366.246 273.934 366.171 273.934 366.171 274C366.096 273.934 365.945 273.868 366.02 273.802Z" fill="#262D38"/>
<path d="M359 300.901C360.104 299.09 360.987 297.208 362.017 295.397C363.048 293.585 364.004 291.703 365.035 289.892C367.022 286.199 374.234 273.865 374.896 273.029C374.97 272.959 375.043 273.029 374.97 273.099C374.602 274.074 370.112 282.227 369.082 284.039C367.022 287.662 364.814 291.216 362.68 294.839C362.091 295.884 361.429 296.86 360.84 297.905C360.251 298.95 359.589 299.926 359 300.971C359.074 301.041 359 300.971 359 300.901Z" fill="#262D38"/>
<path d="M376.087 276.782C378.053 276.345 380.018 276.055 381.984 275.691C383.949 275.327 385.915 274.964 387.881 274.673C391.812 273.945 395.743 273.291 399.749 272.709C407.611 271.473 415.549 270.455 423.487 269.8C427.947 269.436 432.483 269.218 436.943 269C437.019 269 437.019 269.145 436.943 269.145C428.93 269.364 420.917 270.382 412.979 271.4C405.117 272.418 397.255 273.582 389.468 274.818C387.276 275.182 385.008 275.545 382.815 275.909C380.548 276.273 378.355 276.709 376.087 277C376.012 276.927 375.936 276.855 376.087 276.782Z" fill="#262D38"/>
<path d="M394.202 186.689C394.202 186.689 392.178 182.93 389.104 183.001C386.03 183.001 385.43 185.129 383.556 185.271C381.682 185.412 377.783 184.49 375.684 186.334C373.585 188.178 373.959 192.363 372.985 193.498C372.01 194.632 368.936 194.561 368.037 197.54C366.987 201.015 368.861 203.356 368.636 205.129C368.261 208.179 366.087 210.448 367.437 214.207C368.786 218.179 371.935 218.391 373.81 219.81C375.684 221.157 375.759 225.271 380.107 225.909C384.456 226.548 385.805 223.64 388.429 222.789C391.053 221.938 394.577 224.136 397.501 222.363C400.35 220.59 399.75 217.611 400.575 216.193C401.475 214.774 403.649 214.845 404.699 212.292C405.748 209.668 403.724 207.115 403.649 206.051C403.499 204.207 404.699 203.356 404.474 200.803C404.249 198.249 401.55 196.193 401.025 195.342C399.825 193.356 401.4 189.597 399.376 187.682C396.752 185.271 394.202 186.689 394.202 186.689Z" fill="#262D38"/>
<path d="M374 188C373.629 189.786 373.555 192 371.699 193C368.731 194.214 366.504 196.429 366.949 199.714C367.098 200.857 367.543 202 367.914 203.214C368.063 203.786 368.285 204.5 368.137 205.143C367.988 205.786 367.692 206.357 367.469 206.929C367.024 208.071 366.653 209.214 366.504 210.429C366.356 211.643 366.504 212.857 366.949 214C366.356 212.929 366.059 211.643 366.133 210.429C366.207 208.571 366.949 206.786 367.395 205.071C367.469 203.286 366.207 201.643 366.059 199.786C365.688 197.214 367.098 194.5 369.547 193.357C370.141 193.071 370.734 192.857 371.328 192.571C373.258 191.786 373.406 189.714 374 188Z" fill="#262D38"/>
<path d="M395 223.986C398.441 223.622 399.588 222.455 400.09 218.956C400.234 218.373 400.305 217.717 400.664 217.133C401.524 216.186 402.815 215.675 403.532 214.655C404.535 213.27 404.75 211.301 404.248 209.624C404.033 208.75 403.675 207.875 403.316 207C403.747 207.802 404.177 208.604 404.535 209.479C405.252 211.228 405.18 213.488 404.033 215.092C403.46 215.894 402.6 216.477 401.883 216.988C401.524 217.279 401.166 217.498 401.094 217.79C400.09 221.799 399.732 224.205 395 223.986Z" fill="#262D38"/>
<path d="M379.248 223.079C366.767 234.665 352.044 246.75 344.869 245.964C339.264 245.391 326.708 239.813 315.199 230.874C313.032 229.158 329.249 214.641 330.968 215.642C335.527 218.217 348.232 226.512 349.129 226.083C350.325 225.582 364.525 218.932 374.091 214.855C387.021 209.42 385.675 217.072 379.248 223.079Z" fill="#AD6359"/>
<path d="M318.154 233C315.952 232.081 306.08 227.065 303.65 225.086C301.22 223.108 294.765 216.96 296.208 215.123C297.651 213.286 299.701 214.911 299.701 214.911C299.701 214.911 297.423 211.943 299.018 210.177C300.612 208.41 303.726 211.095 303.726 211.095C303.726 211.095 301.599 207.845 303.346 206.22C305.093 204.595 307.75 207.774 307.75 207.774C307.75 207.774 305.7 204.877 307.75 204.1C310.256 203.182 313.446 208.834 316.255 210.813C316.863 211.237 330 219.08 330 219.08L318.154 233Z" fill="#AD6359"/>
<path d="M307.249 207.12C309.662 211.163 311.531 212.602 315.968 214.863C316.046 214.931 315.968 215 315.89 215C311.297 213.15 308.728 211.642 307.016 207.257C306.938 206.982 307.171 206.914 307.249 207.12Z" fill="#262D38"/>
<path d="M304.205 210.109C306.958 214.429 308.769 216.04 312.97 218.896C313.042 218.97 312.97 219.043 312.898 218.97C308.624 216.553 306.233 214.869 304.06 210.255C303.915 210.035 304.06 209.889 304.205 210.109Z" fill="#262D38"/>
<path d="M300.231 215.126C303.344 218.88 305.394 220.687 309.95 222.842C310.026 222.912 310.026 223.051 309.874 222.981C304.939 221.243 302.357 219.019 300.079 215.195C299.927 214.987 300.003 214.917 300.231 215.126Z" fill="#262D38"/>
<path d="M333 219.117C333 219.117 330.584 213.777 328.924 211.626C327.263 209.476 317.978 203.581 316.468 205.315C314.506 207.604 319.186 211.973 321.752 213.846C321.752 213.846 317.223 219.117 319.865 222.932C322.432 226.747 333 219.117 333 219.117Z" fill="#AD6359"/>
<path d="M316.148 206C315.996 209.282 319.564 211.587 321.917 213.543C322.069 213.682 321.993 213.892 321.841 213.962C320.095 216.336 318.425 220.108 319.564 222.901C319.564 222.971 319.488 223.041 319.412 222.971C317.742 220.108 319.033 216.266 321.158 213.822C318.729 211.867 315.237 209.422 316.148 206Z" fill="#262D38"/>
<path d="M334.627 217.505L318 235.721C318 235.721 338.195 247.554 346.015 246.98C353.835 246.406 372.132 232.35 381.015 222.381C390.126 212.198 381.699 211.481 374.79 214.708C367.881 217.935 349.508 225.824 348.976 225.752C348.445 225.752 334.627 217.505 334.627 217.505Z" fill="#DBDBDB"/>
<path d="M331.315 228.326C332.424 227.075 333.459 225.894 334.568 224.643C335.677 223.461 336.712 222.141 337.895 221.029C337.969 220.959 338.043 221.029 337.969 221.098C337.082 222.349 335.973 223.531 335.012 224.782C333.977 226.033 332.868 227.353 331.759 228.604C329.615 231.106 327.397 233.539 325.105 235.971C325.031 236.041 324.957 235.971 325.031 235.902C327.101 233.33 329.171 230.828 331.315 228.326Z" fill="#262D38"/>
<path opacity="0.1" d="M380.995 222.391C372.049 232.355 353.621 246.406 345.745 246.979C341.846 247.266 334.964 244.542 329 241.674L382.065 213C385.506 213.287 386.806 215.939 380.995 222.391Z" fill="black"/>
<path d="M361.121 244.209L357 257.18C357 257.18 358.723 257.393 364.567 258.102L365.091 258.172L403 262C403 262 396.108 227.127 390.039 219.26C385.244 213.022 378.726 212.739 374.156 216.283C373.033 217.204 361.57 229.75 359.173 235.42C357.899 238.61 361.121 244.209 361.121 244.209Z" fill="#DBDBDB"/>
<path d="M372.953 243.038C371.291 242.974 369.701 242.974 368.04 243.167C367.245 243.295 366.378 243.423 365.583 243.551C365.149 243.615 364.788 243.679 364.355 243.744C363.921 243.808 363.488 243.872 363.054 243.808C362.982 243.808 362.982 243.872 363.054 243.872C363.488 243.936 363.849 244 364.21 244C364.571 244 365.005 244 365.366 243.936C366.161 243.808 367.028 243.679 367.823 243.615C369.485 243.423 371.146 243.167 372.88 243.102C373.025 243.231 373.025 243.038 372.953 243.038Z" fill="#262D38"/>
<path d="M376.928 245.889C375.64 245.611 374.351 245.333 373.063 245.167C372.418 245.111 371.774 245.056 371.058 245C370.772 245 370.414 245 370.128 245C369.77 245 369.412 245.056 369.054 245.056C368.982 245.056 368.982 245.111 369.054 245.111C369.412 245.111 369.698 245.222 370.056 245.222C370.414 245.278 370.7 245.278 371.058 245.333C371.702 245.389 372.347 245.5 373.063 245.556C374.351 245.667 375.711 245.833 377 246C376.928 246 377 245.889 376.928 245.889Z" fill="#262D38"/>
<path d="M384.485 216.054C384.191 216.868 379.632 221.602 375.956 220.936C374.779 220.714 375.662 214.131 375.662 214.131L375.588 213.613L375 206.586L383.676 202.518L384.926 202C384.926 202 385 203.923 385 206.364C385 206.512 385 206.586 385 206.734C385 206.882 385 207.03 385 207.104C385 207.474 385 207.844 385 208.213C385 208.509 385 208.731 385 209.027C385 209.323 385 209.619 385 209.915C384.926 212.726 384.632 215.684 384.485 216.054Z" fill="#AD6359"/>
<path d="M385 206.434C382.333 211.784 377.667 213.465 375.593 214L375 206.74L383.741 202.537L385 202.002C384.926 201.926 385 203.989 385 206.434Z" fill="#262D38"/>
<path d="M370.193 192.387C363.534 202.579 369.009 207.639 371.229 209.012C373.3 210.313 380.403 214.361 388.098 204.964C395.867 195.495 393.13 189.279 388.616 186.098C384.103 182.918 376.926 182.195 370.193 192.387Z" fill="#AD6359"/>
<path d="M373.244 190.672C373.504 190.775 373.699 190.826 373.959 190.877C374.22 190.98 374.415 191.031 374.74 190.98C374.87 190.929 375 190.775 375 190.672C374.935 190.364 374.61 190.21 374.285 190.107C373.959 190.005 373.634 189.953 373.244 190.056C372.919 190.159 372.919 190.569 373.244 190.672Z" fill="#262D38"/>
<path d="M381.195 195.907C380.956 195.675 380.717 195.52 380.558 195.288C380.319 195.056 380.08 194.901 380 194.514C380 194.359 380.159 194.127 380.319 194.049C380.717 193.894 381.116 194.127 381.434 194.436C381.753 194.746 381.992 195.056 381.992 195.52C382.072 195.907 381.514 196.14 381.195 195.907Z" fill="#262D38"/>
<path d="M378 196V196.095C377.387 196.954 376.862 198.099 377.387 198.958C376.511 198.194 377.299 196.763 378 196Z" fill="#262D38"/>
<path d="M379.416 196.112C381.041 196.971 378.907 199.634 377.485 198.861C376.062 198.088 378.095 195.425 379.416 196.112Z" fill="#262D38"/>
<path d="M379.422 197.04C379.593 197.423 379.593 197.807 379.85 198.095C380.192 198.383 380.62 198.287 380.962 198.095C380.962 198.095 381.048 198.095 380.962 198.191C380.62 198.766 380.107 199.246 379.508 198.862C378.995 198.574 378.909 197.807 379.08 197.136C379.251 197.04 379.422 196.944 379.422 197.04Z" fill="#262D38"/>
<path d="M374 193H373.924C373.471 193.978 372.866 195.055 372.034 194.761C372.034 194.761 371.958 194.761 372.034 194.859C372.866 195.446 373.697 194.076 374 193Z" fill="#262D38"/>
<path d="M373.734 192.204C372.756 191.241 371.388 193.953 372.3 194.828C373.213 195.703 374.581 192.991 373.734 192.204Z" fill="#262D38"/>
<path d="M372.945 192.192C372.756 192.192 372.567 192.292 372.425 192.192C372.235 191.994 372.235 191.497 372.235 191C372.235 191 372.235 191 372.188 191C371.998 191.596 371.904 192.292 372.14 192.789C372.377 193.186 372.709 192.987 372.945 192.49C372.993 192.391 373.04 192.192 372.945 192.192Z" fill="#262D38"/>
<path d="M373.934 202.587C373.582 202.66 373.231 202.807 372.879 202.66C372.527 202.513 372.264 202.22 372.088 202H372C372 202.367 372.44 202.807 372.879 202.953C373.319 203.1 373.67 202.88 373.934 202.587C374.022 202.587 374.022 202.587 373.934 202.587Z" fill="#262D38"/>
<path d="M372.441 198.28C372.441 198.28 371.648 199.309 371.288 199.862C371.288 199.942 371.36 200.021 371.504 200.179C372.297 200.97 373.378 201.208 374.314 200.812C374.386 200.812 374.314 200.654 374.314 200.654C373.378 200.733 372.585 200.337 371.793 199.862C371.865 199.704 373.234 198.122 373.162 198.043C372.873 197.805 372.225 197.647 371.865 197.568C373.522 195.352 375.395 193.374 376.98 191.158C377.052 191.079 376.908 191 376.836 191C374.675 192.899 372.729 195.431 371 197.647C371 197.963 372.225 198.201 372.441 198.28Z" fill="#262D38"/>
<path d="M372 200C372 200 372 200.818 372.568 201.447C372.73 201.636 373.054 201.824 373.378 201.95C374.108 202.139 374.514 201.761 374.757 201.321C374.919 200.944 375 200.629 375 200.629C375 200.629 373.459 200.692 372 200Z" fill="#262D38"/>
<path d="M372 201.386C372.148 201.596 372.444 201.805 372.741 201.945C373.407 202.154 373.778 201.735 374 201.247C373.333 200.897 372.519 200.897 372 201.386Z" fill="#FF9CBD"/>
<path d="M386.56 204.946C384.361 204.066 386.484 199.227 386.484 199.227C386.484 199.227 378.522 193.067 381.783 185.734C381.783 185.734 377.763 189.327 372 188.814C372 188.814 376.702 181.407 383.754 183.314C383.754 183.314 393.006 184.78 393.916 193.067C394.826 201.28 388.077 205.533 386.56 204.946Z" fill="#262D38"/>
<path d="M381.506 185C380.794 186.017 380.366 187.106 380.152 188.341C379.939 189.503 379.939 190.81 380.224 191.972C380.295 192.263 380.366 192.553 380.437 192.844L380.58 193.279C380.651 193.425 380.722 193.57 380.794 193.715C380.936 194.006 381.007 194.296 381.15 194.514C381.292 194.804 381.435 195.022 381.649 195.313C381.72 195.458 381.791 195.603 381.862 195.676L382.147 196.039L382.717 196.765C383.145 197.201 383.572 197.564 384 198C383.644 197.492 383.216 197.056 382.931 196.62L382.432 195.894L382.219 195.531C382.147 195.385 382.076 195.24 382.005 195.168C381.862 194.877 381.72 194.659 381.577 194.369C381.435 194.078 381.364 193.86 381.221 193.57L381.079 193.134L380.936 192.698C380.865 192.408 380.722 192.117 380.722 191.827C380.437 190.665 380.437 189.503 380.58 188.341C380.651 187.76 380.794 187.179 380.936 186.598C381.007 186.089 381.221 185.508 381.506 185Z" fill="#262D38"/>
<path d="M385.193 204.123C385.193 204.123 389.644 201.987 390.815 203.607C391.986 205.301 387.301 209.279 385.037 208.984C382.773 208.69 383.007 206.701 383.007 206.701L385.193 204.123Z" fill="#AD6359"/>
<path d="M389 205.198C387.496 205.121 386.207 205.971 385.133 206.975C385.706 206.666 386.351 206.666 386.78 207.516C386.78 207.593 386.709 207.593 386.709 207.593C386.279 207.207 385.849 207.052 385.277 207.284C384.919 207.439 384.561 207.748 384.203 207.979C384.059 208.057 383.916 207.902 384.059 207.748C384.847 206.048 387.21 204.425 389 205.198Z" fill="#262D38"/>
<path d="M374.965 215C374.965 215 365.784 227.405 366.004 228.207C366.151 228.937 373.423 230.25 374.378 229.958C375.332 229.667 384 215.657 384 215.657L374.965 215Z" fill="#AD6359"/>
<path d="M300.799 240.773C295.954 234.628 294.165 226.982 295.357 217.835L304.675 146.519C304.75 146.019 304.973 145.661 305.346 145.376C305.719 145.09 306.166 144.947 306.688 145.018L324.504 147.162C325.026 147.233 325.398 147.448 325.697 147.805C325.995 148.162 326.144 148.591 326.069 149.091L316.528 222.48C316.155 225.624 316.602 228.196 317.944 230.34C319.286 232.484 321.298 233.699 323.982 234.056C326.591 234.342 328.827 233.627 330.691 231.912C332.48 230.126 333.598 227.696 334.045 224.623L343.587 151.235C343.662 150.735 343.885 150.378 344.258 150.092C344.631 149.806 345.078 149.663 345.6 149.735L363.416 151.878C363.937 151.95 364.31 152.164 364.608 152.521C364.906 152.879 365.056 153.307 364.981 153.808L355.663 225.124C354.47 234.27 350.743 241.273 344.481 246.061C338.22 250.92 330.616 252.778 321.597 251.706C312.577 250.563 305.57 246.919 300.799 240.773Z" fill="#1398A0"/>
<path d="M384.231 228.675C369.818 229.835 347.603 227.732 343.294 224.903C339.505 222.364 335.27 204.232 334.007 196.398C333.561 193.497 354.29 188.928 354.736 192.047C355.256 195.818 357.187 210.107 358.079 210.614C359.045 211.195 375.093 216.199 385.792 220.334C395.45 224.178 389.729 228.239 384.231 228.675Z" fill="#AD6359"/>
<path d="M348 182.253C348.794 183.256 349.3 182.898 349.372 180.606C349.444 178.314 347.783 169.291 351.033 169.005C354.282 168.718 356.377 181.537 355.943 185.261C355.51 189.056 353.488 195 353.488 195C352.622 192.637 349.878 186.979 348 182.253Z" fill="#AD6359"/>
<path d="M334.669 200C332.123 193.059 328.777 184.471 330.45 176.456C330.814 174.882 331.759 174.166 331.759 174.166C332.487 170.588 334.378 169.801 334.378 169.801C336.051 166.652 338.161 166.151 338.161 166.151C338.161 166.151 339.034 161.929 341.725 162.001C344.707 162.072 342.889 168.012 343.907 171.876C346.235 180.678 352.054 192.558 353 195.062L334.669 200Z" fill="#AD6359"/>
<path d="M340 182.879C339.404 180.257 338.808 177.635 338.543 174.94C338.278 171.954 338.476 169.041 338.609 166.055C338.609 165.982 338.476 165.982 338.476 166.055C337.483 171.444 338.079 177.854 339.934 182.952C339.934 183.025 340 183.025 340 182.879Z" fill="#262D38"/>
<path d="M333.985 184.843C333.591 182.328 332.972 177.926 333.872 170.031C333.872 170.031 333.816 169.961 333.816 170.031C332.691 175.061 332.747 179.882 333.872 184.843C333.928 185.052 334.041 185.052 333.985 184.843Z" fill="#262D38"/>
<path d="M331.976 185.851C331.196 181.437 331.37 178.66 331.976 174.032C331.976 174.032 331.89 173.96 331.89 174.032C330.59 179.229 330.85 181.223 331.803 185.922C331.89 186.065 332.063 185.994 331.976 185.851Z" fill="#262D38"/>
<path d="M332 199.999L355.963 196L359.183 209.68C367.195 212.767 382.696 217.888 388.238 220.554C394.678 223.641 392.356 227.569 385.018 228.411C368.244 230.305 345.18 227.218 341.735 224.974C336.718 221.817 332 199.999 332 199.999Z" fill="#DBDBDB"/>
<path d="M335.055 205C336.752 205 343.762 204.063 345.533 203.813C347.23 203.563 352.174 202.438 353.945 202.125C354.018 202.125 354.018 202 353.945 202C352.174 202.25 336.679 204.437 335.055 204.937C334.982 204.937 334.982 205 335.055 205Z" fill="#262D38"/>
<path d="M337 217C337.671 218.783 338.417 220.566 339.387 222.278C340.208 223.633 341.028 225.274 342.67 225.916C346.623 227.271 350.876 227.699 355.053 228.198C359.007 228.626 363.036 228.911 366.989 229.196C370.496 229.482 375.419 229.767 379 229.981C374.972 230.052 371.018 229.91 366.989 229.767C360.947 229.482 354.979 229.054 349.011 228.055C346.773 227.699 344.535 227.199 342.446 226.343C340.73 225.63 339.909 223.918 339.089 222.421C338.268 220.638 337.522 218.854 337 217Z" fill="#262D38"/>
<path d="M375 230C376 230.069 377 230.345 378 230.484C376.917 230.553 375.917 230.276 375 230Z" fill="#262D38"/>
<path d="M382 219C375.786 216.758 369.573 214.66 363.433 212.346C362.619 211.984 360.77 211.333 359.956 210.972C359.586 210.755 358.699 210.538 358.551 210.032C357.367 205.475 356.479 200.702 355.666 196.073L355 196.145L355.666 196C355.74 195.928 357.885 205.403 357.885 205.475C358.181 206.705 358.625 208.874 358.995 210.032C366.096 213.069 374.973 215.962 382 219Z" fill="#262D38"/>
<path d="M382 218.307C381.027 218.307 379.973 218.162 379 218.09C379.973 217.873 381.027 218.09 382 218.307Z" fill="#262D38"/>
<path d="M29.3436 222L9.76375 245.649C5.78777 250.706 2.33691 255.122 0.836534 257.615C0.836534 257.615 0.836534 257.615 0.836534 257.687C0.236385 258.613 -0.0636897 259.254 0.011329 259.539V259.61C0.761515 261.747 42.1718 293.302 43.9723 293.943C45.7727 294.584 47.8732 289.669 47.2731 287.247C46.6729 284.825 36.5454 266.021 36.5454 266.021L55 241.66L29.3436 222Z" fill="#EB9481"/>
<path d="M43.5713 293.943C41.7872 293.306 0.752847 261.962 0.00947187 259.84C0.00947187 259.84 0.00947187 259.84 0.00947187 259.769C-0.0648657 259.486 0.306822 258.849 0.827185 257.929C0.827185 257.929 0.827185 257.929 0.827185 257.858C2.31394 255.382 5.73346 250.924 9.67335 245.972C9.67335 245.972 10.6397 244.84 12.1265 243L38.665 262.953L36.2862 266.137C36.2862 266.137 46.3218 284.816 46.9165 287.222C47.4368 289.698 45.4297 294.58 43.5713 293.943Z" fill="#DBDBDB"/>
<path d="M43.6193 292.943C41.8334 292.309 0.758182 261.075 0.0140655 258.96C-0.283581 258.184 4.18112 252.192 9.76199 245.212C9.83641 245.141 9.91082 245.071 9.91082 245L36.6246 264.882L36.2525 265.305C36.2525 265.305 46.2981 283.919 46.8934 286.316C47.4887 288.713 45.4796 293.578 43.6193 292.943Z" fill="#1398A0"/>
<path opacity="0.3" d="M43.6193 292.943C41.8334 292.309 0.758182 261.075 0.0140655 258.96C-0.283581 258.184 4.18112 252.192 9.76199 245.212C9.83641 245.141 9.91082 245.071 9.91082 245L36.6246 264.882L36.2525 265.305C36.2525 265.305 46.2981 283.919 46.8934 286.316C47.4887 288.713 45.4796 293.578 43.6193 292.943Z" fill="black"/>
<path d="M44.9188 290.839C38.1403 285.371 10.2068 263.929 3.05587 259.029C2.98138 258.958 2.98138 259.029 3.05587 259.1C9.6854 264.639 37.7678 285.868 44.8443 290.981C44.9933 291.052 45.0678 290.91 44.9188 290.839Z" fill="#262D38"/>
<path d="M38.9497 266.665C36.5862 264.014 32.8503 261.731 29.1144 262.026C28.9619 262.026 28.9619 262.247 29.1144 262.247C32.5453 263.572 35.595 264.971 38.721 266.96C38.8735 267.107 39.1022 266.813 38.9497 266.665Z" fill="#262D38"/>
<path d="M39.9497 269.665C37.5862 267.014 33.8503 264.731 30.1144 265.026C29.9619 265.026 29.9619 265.247 30.1144 265.247C33.5453 266.572 36.595 267.971 39.721 269.96C39.8735 270.107 40.1022 269.813 39.9497 269.665Z" fill="#262D38"/>
<path d="M40.9497 271.665C38.5862 269.014 34.8503 266.731 31.1144 267.026C30.9619 267.026 30.9619 267.247 31.1144 267.247C34.5453 268.572 37.595 269.971 40.721 271.96C40.8735 272.107 41.1022 271.813 40.9497 271.665Z" fill="#262D38"/>
<path d="M10 243.829L37.7496 265C37.7496 265 85.9934 209.16 87.4894 202.056C89.2097 193.957 94.1463 130.728 93.9967 127.603C93.8471 123.766 89.4341 107 89.4341 107H57.8699C57.8699 107 53.4569 189.694 52.5593 192.252C51.5122 194.951 10 243.829 10 243.829Z" fill="#262D38"/>
<path d="M39.9791 257.857C35.9421 254.055 20.0185 242.004 18.0748 241C18 241 18 241.072 18 241.072C19.4204 242.722 32.9517 253.338 39.9043 258C39.9043 258 40.0538 257.928 39.9791 257.857Z" fill="#28363E"/>
<path d="M90.9113 118.663C90.4504 118.528 90.0663 118.528 89.6053 118.393C89.1444 118.258 88.6835 118.123 88.2225 117.921C87.3775 117.516 86.5325 117.044 85.6874 116.369C84.8424 115.695 84.3046 114.75 83.7669 113.671C83.4596 113.131 82.1536 110.028 82.1536 110.028C82.1536 109.96 82 110.028 82 110.095C82.0768 110.5 82.9987 113.131 83.306 113.806C83.8437 115.02 84.4583 116.167 85.3033 116.976C86.1484 117.718 87.147 118.258 88.0689 118.595C88.5298 118.798 89.0676 118.865 89.5285 118.933C89.9894 119 90.4504 119.067 90.9113 118.865C91.0649 118.865 90.9881 118.73 90.9113 118.663Z" fill="#28363E"/>
<path d="M63 108L62.3189 124.588L61.5622 141.175L59.8973 174.28C59.5946 179.809 59.2919 185.338 58.9135 190.867C58.8378 191.576 58.8378 192.285 58.7622 192.994C58.7622 193.065 58.7622 193.136 58.6865 193.278C58.6108 193.348 58.6108 193.49 58.5351 193.561C58.4595 193.703 58.3081 193.845 58.2324 194.057C58.0054 194.341 57.8541 194.624 57.627 194.908C56.7946 196.042 55.8865 197.176 54.9784 198.24C53.1622 200.437 51.3459 202.635 49.5297 204.761C45.8216 209.085 42.1135 213.41 38.4054 217.663L21 239L38.1027 217.45C41.7351 213.126 45.4432 208.802 49.0757 204.407C50.8919 202.209 52.7081 200.012 54.4486 197.814C55.3568 196.68 56.1892 195.617 57.0973 194.483C57.3243 194.199 57.4757 193.916 57.7027 193.632C57.8541 193.348 58.1568 193.065 58.0811 192.852C58.1568 192.214 58.2324 191.505 58.2324 190.797C58.6108 185.267 58.8378 179.738 59.1405 174.209L61.0324 141.104L62.0162 124.517L63 108Z" fill="#28363E"/>
<path d="M88 197.605C87.7766 199.662 87.5532 201.152 87.4043 202.004C86.5106 205.977 66.9255 231.165 55.0851 245L53 188.026C54.4149 170.856 57.8404 107 57.8404 107H73.5532L88 197.605Z" fill="#28363E"/>
<path d="M67 255.653C67 255.653 73.1926 284.905 73.1926 284.976C74.6275 291.052 75.9869 296.422 76.9687 299.107C76.9687 299.107 76.9687 299.107 76.9687 299.178C77.3463 300.167 77.6483 300.803 77.8749 300.945C77.8749 300.945 77.8749 300.945 77.9504 300.945C80.216 301.792 132.702 292.607 134.439 291.759C136.176 290.84 133.533 286.248 131.192 285.046C128.851 283.916 107.026 278.97 107.026 278.97L99.5492 250L67 255.653Z" fill="#EB9481"/>
<path d="M134.427 291.704C132.678 292.628 79.8318 301.797 77.5507 300.944C77.5507 300.944 77.5507 300.944 77.4747 300.944C77.2466 300.802 76.9424 300.162 76.5622 299.167C76.5622 299.167 76.5622 299.167 76.5622 299.096C75.5737 296.395 74.2051 290.993 72.7604 284.88C72.7604 284.88 72.4562 283.458 72 281.184L105.837 275L106.825 278.838C106.825 278.838 128.724 283.814 131.157 284.951C133.59 286.16 136.175 290.851 134.427 291.704Z" fill="#DBDBDB"/>
<path d="M134.429 291.623C132.689 292.555 80.1113 301.804 77.8417 300.944C77.0096 300.657 75.1183 293.415 73.0757 284.668C73.0757 284.596 73 284.453 73 284.381L106.892 278L106.968 278.574C106.968 278.574 128.756 283.521 131.176 284.74C133.597 286.03 136.169 290.762 134.429 291.623Z" fill="#1398A0"/>
<path opacity="0.3" d="M134.429 291.623C132.689 292.555 80.1113 301.804 77.8417 300.944C77.0096 300.657 75.1183 293.415 73.0757 284.668C73.0757 284.596 73 284.453 73 284.381L106.892 278L106.968 278.574C106.968 278.574 128.756 283.521 131.176 284.74C133.597 286.03 136.169 290.762 134.429 291.623Z" fill="black"/>
<path d="M133.829 289.02C124.841 290.425 88.8159 296.856 80.0571 298.926C79.981 298.926 79.981 299 80.0571 299C88.9683 297.817 124.994 291.016 133.829 289.168C134.057 289.094 134.057 288.946 133.829 289.02Z" fill="#262D38"/>
<path d="M109.804 278C106.247 278 102.17 279.212 100.02 281.839C99.9461 281.974 100.094 282.041 100.168 281.974C103.356 280.425 106.395 279.28 109.804 278.404C110.101 278.337 110.027 278 109.804 278Z" fill="#262D38"/>
<path d="M112.804 279C109.247 279 105.17 280.212 103.02 282.839C102.946 282.974 103.094 283.041 103.168 282.974C106.356 281.425 109.395 280.28 112.804 279.404C113.101 279.269 113.027 279 112.804 279Z" fill="#262D38"/>
<path d="M115.778 280C112.23 280 108.164 281.212 106.02 283.839C105.946 283.974 106.094 284.041 106.168 283.974C109.347 282.425 112.378 281.28 115.778 280.404C116.074 280.337 116.074 280 115.778 280Z" fill="#262D38"/>
<path d="M84.6574 289.727C82.7863 286.147 76.4716 288.694 78.3426 292.273C80.2137 295.853 86.5284 293.306 84.6574 289.727Z" fill="#262D38"/>
<path d="M82.7444 107.071C82.7444 107.071 81.92 119.969 78.1729 129.089C78.1729 129.089 72.777 132.296 72.2524 132.795L108 277.872L72.6271 284C72.6271 284 58.5379 209.68 57.4887 205.12C55.6901 197.78 41.7508 135.502 41.1512 131.94C39.8772 124.529 47.0717 107 47.0717 107H82.7444V107.071Z" fill="#262D38"/>
<path d="M102.89 271C94.0196 272.333 77.0852 275.963 75.0326 276.852C74.9593 276.852 75.0326 277 75.0326 277C77.3052 277 97.905 272.852 102.89 271.222C103.037 271.148 103.037 271 102.89 271Z" fill="#28363E"/>
<path d="M51.0669 119.558C51.7397 119.414 52.4125 119.486 53.0853 119.414C53.7582 119.341 54.5057 119.197 55.1786 119.052C56.4494 118.691 57.7203 118.257 58.9165 117.607C60.1126 116.956 60.9349 115.945 61.6077 114.86C61.9815 114.282 63.701 111.03 63.7757 111.03C63.8505 110.958 64 111.03 64 111.102C63.9252 111.536 62.7291 114.355 62.4301 115.005C61.7573 116.306 60.9349 117.462 59.664 118.257C58.3931 119.052 56.9727 119.486 55.5523 119.775C54.8048 119.92 54.0572 119.992 53.3096 119.992C52.6368 119.992 51.8144 120.064 51.2164 119.775C50.9173 119.775 50.9921 119.631 51.0669 119.558Z" fill="#28363E"/>
<path d="M79.739 129.011C76.7425 129.95 73.821 131.393 71.0492 132.836C70.9743 132.908 70.9743 133.052 71.1241 132.98C74.0457 131.826 77.0422 130.671 79.8888 129.372C80.1136 129.228 79.9637 128.939 79.739 129.011Z" fill="#28363E"/>
<path d="M80.8413 110.085C80.8413 110.011 80.6964 109.938 80.6964 110.085C80.6964 113.454 80.4792 116.457 80.117 119.607C79.9722 121.071 78.7409 129.129 76.2058 128.543C75.7713 128.469 75.554 128.03 75.4816 127.371C75.4091 126.565 75.6988 125.686 75.8437 124.88C76.1334 123.196 76.3507 121.511 76.568 119.753C76.8577 116.53 76.9301 113.381 76.568 110.158C76.568 110.085 76.4231 110.085 76.4231 110.158C76.4231 114.553 76.2058 119.021 75.554 123.342C75.1918 125.466 74.1778 128.616 76.3507 128.982C78.596 129.348 80.0446 124.001 80.3343 122.61C81.0586 118.508 81.131 114.186 80.8413 110.085Z" fill="#28363E"/>
<path d="M75.605 128.166C75.4439 128.628 75.2828 129.155 75.1754 129.682C75.068 130.077 74.9606 130.539 75.0143 130.934C75.0143 131 75.1217 131 75.1217 131C75.3365 130.671 75.4439 130.209 75.5513 129.814C75.7124 129.353 75.8735 128.891 75.9809 128.43C76.0883 128.035 75.7124 127.837 75.605 128.166Z" fill="#28363E"/>
<path d="M50.0566 107C49.1509 110.276 48.3208 113.552 47.4906 116.828C46.7358 120.103 45.9811 123.45 45.5283 126.726L45.3774 128.008C45.3774 128.435 45.3774 128.863 45.3019 129.219L45.6792 131.711L46.6604 136.696L48.7736 146.595L57.6792 186.261L66.434 225.856L72.6981 253.202L77 273L72.3208 253.274L65.8302 225.928L56.9245 186.332C54.0566 173.158 51.1132 159.912 48.3208 146.666L46.283 136.767L45.3019 131.782L45 129.29C45 128.435 45.0755 127.581 45.2264 126.726C45.7547 123.379 46.5094 120.103 47.3396 116.828C48.1698 113.552 49.0755 110.276 50.0566 107Z" fill="#28363E"/>
<path d="M72.2006 70.4703C78.0134 73.095 103.303 76.0035 109.342 72.1019C115.382 68.2002 114.853 33.937 111.682 23.0834C110.55 19.2527 94.4705 26.5594 92.8097 29.8226C91.3754 32.5891 93.7156 58.2689 92.5832 58.8364C90.6205 59.7586 84.2792 60.468 74.0879 61.8158C64.5005 63.0217 68.1241 68.6259 72.2006 70.4703Z" fill="#EB9481"/>
<path d="M90.4231 39.292L114.462 35C114.462 35 117.392 69.1933 109.579 74.1291C107.1 75.7029 87.1178 75.2737 73.1453 71.7685C68.2624 70.4809 61.2761 63.256 75.1735 61.1815C89.0709 59.107 91.6251 58.3201 91.8504 58.034C92.0758 57.6763 90.4231 39.292 90.4231 39.292Z" fill="#30586C"/>
<path d="M113.942 41C112.176 41.1509 110.41 41.5283 108.644 41.8302C106.955 42.1321 105.189 42.434 103.5 42.7359C100.045 43.4151 96.5128 43.9434 93.0576 44.8491C92.9808 44.8491 92.9808 45 93.0576 45C96.5896 44.6981 100.122 44.0189 103.654 43.3396C105.42 43.0377 107.186 42.6604 108.875 42.283C110.564 41.9057 112.253 41.6038 113.942 41.0755C114.019 41.0755 114.019 41 113.942 41Z" fill="#262D38"/>
<path opacity="0.1" d="M88 74C83.0244 73.4972 77.8192 72.6354 73.3029 71.558C68.3273 70.337 61.2084 63.0829 75.1401 61L88 74Z" fill="black"/>
<path d="M92.9732 117.998L42.0245 119C41.4295 118.285 51.768 77.1506 63.3709 62.6286C66.0485 59.2663 73.7094 59.4094 76.4614 61.484C84.1223 67.4216 93.5683 117.355 92.9732 117.998Z" fill="#30586C"/>
<path d="M135.782 12.2833C136.227 12.5666 136.45 12.9207 136.599 13.3456L139.94 27.0846C140.089 27.5803 139.94 28.0052 139.717 28.4302C139.42 28.8551 139.049 29.0675 138.604 29.2092L119.965 33.3167C119.445 33.4584 119.297 33.7416 119.371 34.1666L138.604 113.98C138.752 114.476 138.604 114.901 138.381 115.326C138.084 115.751 137.713 115.963 137.267 116.105L119.817 119.929C119.297 120.071 118.851 120 118.406 119.717C117.96 119.433 117.737 119.079 117.589 118.654L98.3563 38.7698C98.2078 38.2741 97.9108 38.1325 97.4652 38.2033L79.5693 42.1692C79.0495 42.3108 78.6039 42.24 78.1584 41.9567C77.7128 41.6734 77.4901 41.3193 77.3416 40.8944L74.0743 27.0846C73.9257 26.5889 74 26.1639 74.297 25.739C74.5941 25.3141 74.9653 25.1016 75.4109 24.96L134.371 12.0708C134.891 11.9292 135.336 12 135.782 12.2833Z" fill="#1398A0"/>
<path d="M61.1754 74.7771C62.8829 81.7877 71.8655 109.193 81.4421 111.813C92.5033 114.858 103.787 114.645 113.438 114.999C117.595 115.141 112.547 93.6136 108.835 94.1093C102.971 94.8174 93.3942 94.0385 91.2413 93.826C89.0885 93.5428 76.6167 79.8757 69.6384 72.2986C63.2541 65.5005 60.2104 70.6699 61.1754 74.7771Z" fill="#EB9481"/>
<path d="M135.751 89.9493C137.164 91.7878 135.677 93.6263 135.677 93.6263C135.677 93.6263 137.462 94.2627 138.205 95.8183C139.098 97.5861 136.569 99.7074 136.569 99.7074C136.569 99.7074 138.205 100.697 138.875 102.394C139.544 104.162 137.313 106.637 137.313 106.637C137.313 106.637 138.28 108.334 137.759 110.173C136.792 113.355 131.66 114.769 128.462 115.617C125.189 116.537 112.843 115.617 111.653 114.769L106 96.4547C106 96.4547 115.967 88.8179 124.148 88.1108C127.421 87.8279 134.263 87.9694 135.751 89.9493Z" fill="#EB9481"/>
<path d="M135.914 93.0539C132.27 92.8173 128.626 93.4087 125.056 93.8817C124.981 93.8817 124.981 94 125.056 94C128.626 93.5269 132.27 93.5861 135.914 93.2312C136.063 93.2312 135.988 93.113 135.914 93.0539Z" fill="#262D38"/>
<path d="M137.891 99.0115C137.034 98.953 136.099 99.1284 135.242 99.3039C134.306 99.4209 133.449 99.5963 132.514 99.7718C130.721 100.123 128.851 100.474 127.058 100.883C126.981 100.883 126.981 101 127.058 101C128.851 100.649 130.721 100.357 132.514 100.064C133.449 99.9472 134.384 99.7718 135.242 99.6548C136.099 99.5378 137.034 99.4794 137.813 99.1869C138.047 99.1869 138.047 99.0115 137.891 99.0115Z" fill="#262D38"/>
<path d="M138 107.01C137.211 106.948 136.343 107.196 135.633 107.383C134.765 107.57 133.976 107.756 133.108 107.88C131.452 108.191 129.795 108.565 128.059 108.876C127.98 108.876 127.98 109 128.059 109C129.795 108.689 131.531 108.44 133.187 108.129C134.055 108.005 134.844 107.818 135.712 107.694C136.422 107.57 137.369 107.445 137.921 107.134C138 107.072 138 107.01 138 107.01Z" fill="#262D38"/>
<path d="M105.59 94.1733L109 117C109 117 87.2824 117.071 79.5738 112.378C71.8652 107.684 64.2306 89.7645 61.0434 79.4534C57.7821 69.2134 62.2294 62.0312 73.4958 74.9734C84.6882 87.9156 90.3955 93.1778 91.285 93.5333C92.0262 93.8889 105.59 94.1733 105.59 94.1733Z" fill="#30586C"/>
<path d="M89.8767 114.718C88.016 114.154 81.9128 113.237 77.596 110.347C74.47 108.232 68.8134 98.5027 64.7943 90.3245C63.0824 86.7995 61.8171 83.4154 60.1053 80.0313C60.1053 79.9608 60.0308 80.0313 60.0308 80.0313C60.7007 82.3579 61.5938 84.6139 62.487 86.87C62.4125 86.7995 62.3381 86.6585 62.2637 86.588C61.5194 85.6714 60.7751 84.8254 60.1053 83.8384C60.0308 83.7679 59.9564 83.8384 60.0308 83.9089C60.7007 84.8254 61.2217 85.8124 61.8915 86.7995C62.1893 87.293 62.487 87.716 62.8591 88.139C63.008 88.28 63.1568 88.4915 63.3057 88.6325C69.0367 100.829 74.3211 108.655 77.596 110.911C80.722 113.026 84.5178 114.154 89.9511 115C90.0255 114.93 90.0255 114.718 89.8767 114.718Z" fill="#262D38"/>
<path d="M104 115.918C103.93 114.144 103.651 112.37 103.442 110.666C103.233 108.963 103.023 107.26 102.744 105.486C102.256 102.008 101.837 98.5307 101.14 95.0532C101.14 94.9823 101 94.9823 101 95.0532C101.14 98.6017 101.628 102.079 102.116 105.628C102.326 107.402 102.605 109.105 102.884 110.879C103.163 112.583 103.372 114.286 103.791 115.918C103.86 116.06 104 115.989 104 115.918Z" fill="#262D38"/>
<path d="M105.7 93.7802C103.525 93.5655 94.9022 93.4939 92.7276 93.2791C91.7528 93.2075 90.928 92.8496 90.1781 92.2054C89.3533 91.5611 76.4558 78.5329 75.106 77.0297C75.0311 76.9581 74.9561 77.0297 75.0311 77.1012C76.5308 78.6761 86.3538 89.4136 87.9285 90.9884C88.6034 91.7043 89.2783 92.4201 90.1031 92.9928C90.853 93.5655 91.6778 93.7802 92.6526 93.7802C94.6772 93.7802 102.776 93.9234 105.55 93.995C105.625 93.995 105.775 94.9971 105.85 94.9971C105.925 94.9971 105.925 94.9971 106 94.9971C105.925 95.0687 105.775 93.7802 105.7 93.7802Z" fill="#262D38"/>
<path d="M87 21.422C89.3911 18.9235 91.6327 14.1406 93.8743 12.8556C95.9665 11.7848 97.461 13.2125 97.461 13.2125C97.461 13.2125 97.6851 10.4284 99.9268 9.64319C101.122 9.21487 102.766 10.6426 102.766 10.6426C102.766 10.6426 103.065 8.42961 105.083 7.85851C106.726 7.43019 108.221 8.92932 108.221 8.92932C108.221 8.92932 109.491 6.93048 111.359 7.00187C115.095 7.07325 120.699 20.1371 116.515 24.1348C114.572 25.9908 113.377 22.707 113.377 22.707C113.377 22.707 113.9 27.7755 111.135 28.9177C108.37 30.0599 107.1 25.7767 107.1 25.7767C107.1 25.7767 107.548 30.7024 104.559 31.6304C101.421 32.6298 100.898 28.061 100.898 28.061C100.898 28.061 100.076 31.7732 97.6104 31.9873C93.5007 32.3443 95.7424 25.0628 93.7996 22.4929L88.1955 22.8498L87 21.422Z" fill="#EB9481"/>
<path d="M90.3181 17C87.8597 19.1883 82.7939 17.1412 80.112 18.906C76.5362 21.2355 82.1979 23.9885 88.3812 22.6473L93 20.8119L90.3181 17Z" fill="#EB9481"/>
<path d="M109.033 9.03199C108.959 9.03199 109.033 8.96002 109.033 9.03199C111.998 12.8462 114 18.0278 114 22.8496C114 22.9935 113.703 23.0655 113.703 22.9215C112.666 17.9558 111.405 13.5659 109.033 9.03199Z" fill="#262D38"/>
<path d="M103 11.0732C103 11 103.081 11 103.081 11C106.323 15.101 108.592 21.0328 107.863 26.7449C107.863 26.9646 107.62 27.111 107.62 26.8913C107.782 23.01 105.35 15.1742 103 11.0732Z" fill="#262D38"/>
<path d="M101.184 28.9439C101.638 23.3298 100.198 18.1649 98 13.0749C98 13 98.0758 13 98.0758 13C99.8192 15.1708 100.956 18.614 101.563 21.3088C102.169 23.9287 102.169 26.3988 101.411 28.9439C101.335 29.0187 101.184 29.0187 101.184 28.9439Z" fill="#262D38"/>
<path d="M75.2189 68.9256C72.7723 69.5059 67.731 66.6045 66.0258 63.1954C65.8776 62.9778 66.3965 60.5841 66.8413 57.6102C67.0638 55.7968 67.3603 53.8384 67.4344 52.025C67.4344 51.6624 78.9999 55.3616 78.9999 55.3616C78.9999 55.3616 77.6654 59.1334 77.5171 62.325C77.5171 62.6151 77.5171 62.8327 77.5912 63.0503C77.5912 63.0503 77.5912 63.1229 77.5912 63.1954C77.7395 64.7186 77.8137 68.3454 75.2189 68.9256Z" fill="#EB9481"/>
<path d="M77.6159 62.8571C77.6159 62.9286 77.6159 62.9286 77.6159 63C77.2517 63 76.8874 63 76.4503 63C69.6755 62.5714 68.2914 54.1429 68 52C70.0397 52.3571 79 55.2143 79 55.2143C79 55.2143 77.6887 58.9286 77.543 62.0714C77.543 62.3571 77.543 62.6429 77.6159 62.8571Z" fill="#262D38"/>
<path d="M62.0311 40.4151C61.5701 44.5485 66.3338 55.4521 69.8682 57.4475C75.0161 60.2981 82.2386 59.3004 84.5436 53.813C86.7718 48.4681 80.3177 34.3576 76.476 32.7185C70.7902 30.2954 62.7226 34.2863 62.0311 40.4151Z" fill="#EB9481"/>
<path d="M76.0317 46C76.0317 46 75.9604 46.0625 76.0317 46.0625C76.3171 46.6875 76.6025 47.5 76.0317 47.9375V48C76.7452 47.5625 76.3885 46.5625 76.0317 46Z" fill="#262D38"/>
<path d="M74.6312 45.0429C73.3332 45.4715 74.2494 48.3857 75.471 47.9571C76.6163 47.5285 75.7001 44.6143 74.6312 45.0429Z" fill="#262D38"/>
<path d="M80 44C80 44 80.0952 44 80.0952 44.0827C80.381 44.9925 80.9524 45.9023 82 45.9023V45.985C80.8571 46.1504 80.0952 44.9098 80 44Z" fill="#262D38"/>
<path d="M80.4057 43.0832C81.6166 42.4817 82.6762 45.3173 81.4653 45.9188C80.4057 46.5203 79.4218 43.5988 80.4057 43.0832Z" fill="#262D38"/>
<path d="M73.1425 43.9101C73.492 43.7205 73.8415 43.5308 74.1036 43.3412C74.4531 43.0884 74.8025 42.962 74.9773 42.5827C75.0646 42.3931 74.8899 42.1402 74.6278 42.077C74.0162 41.8874 73.492 42.077 72.9678 42.3299C72.4436 42.5827 72.1815 42.8988 72.0067 43.4044C71.9193 43.8469 72.7057 44.1629 73.1425 43.9101Z" fill="#262D38"/>
<path d="M80.4936 41.8922C80.12 41.9851 79.7465 41.9851 79.3729 41.9851C78.9246 41.9851 78.6257 42.0781 78.2522 41.7993C78.028 41.6134 77.9533 41.2417 78.028 40.9629C78.2522 40.3123 78.7752 40.1265 79.2235 40.0335C79.7465 39.9406 80.1948 40.0335 80.6431 40.4053C81.2408 40.8699 81.0166 41.7063 80.4936 41.8922Z" fill="#262D38"/>
<path d="M77.0396 52.3798C77.3069 52.5697 77.6634 52.7596 78.0198 52.6646C78.3762 52.5697 78.6436 52.2848 78.9109 52H79C78.9109 52.4747 78.4653 52.9495 78.0198 52.9495C77.5743 53.1394 77.2178 52.7596 77.0396 52.3798C77.0396 52.2848 76.9505 52.3798 77.0396 52.3798Z" fill="#262D38"/>
<path d="M77.0676 50.3969C77.6762 50.9092 78.3524 51.0555 79.0286 50.9823C79.2991 50.9092 79.6372 50.836 79.9076 50.6896C79.9753 50.6896 80.0429 50.6164 80.0429 50.6164C80.1105 50.6164 80.1105 50.5433 80.1781 50.5433C80.2457 50.4701 80.2457 50.3969 80.2457 50.3237V50.2506V50.1774C80.0429 49.592 79.7048 48.7139 79.7048 48.7139C79.9076 48.7139 81.1248 48.8602 80.9895 48.5675C80.0429 46.0795 78.961 43.2988 77.4733 41.0303C77.4057 40.9571 77.3381 41.0303 77.3381 41.1035C78.1495 43.5183 79.4343 45.7868 80.3133 48.2748C79.9752 48.2748 79.3667 48.2016 79.0286 48.348C78.961 48.4212 79.7048 50.031 79.7724 50.3237C78.8933 50.7628 78.0819 50.7628 77 50.3969C77.0676 50.3237 77 50.3969 77.0676 50.3969Z" fill="#262D38"/>
<path d="M80 50.0797C80 50.0797 79.6707 51.0365 79.0122 51.5946C78.7652 51.8338 78.436 51.9135 78.1067 51.9932C77.3659 52.0729 77.1189 51.4351 77.0366 50.877C76.9543 50.3986 77.0366 50 77.0366 50C77.0366 50 78.3537 50.4784 80 50.0797Z" fill="#262D38"/>
<path d="M79 51.6657C78.75 51.8629 78.4167 51.9287 78.0833 51.9944C77.3333 52.0601 77.0833 51.5342 77 51.074C77.75 50.8767 78.6667 51.074 79 51.6657Z" fill="#FF9BBC"/>
<path d="M68.7815 54.9029C68.7815 54.9029 67.5146 55.2535 66.8439 54.6223C66.1733 53.9911 66.1733 51.6768 63.565 51.4664C62.6708 51.3962 62.0001 51.3962 61.404 50.9754C60.2861 50.1339 60.5097 48.9416 59.9881 48.3104C59.3174 47.5389 57.5289 48.0299 56.4856 46.3467C55.1442 44.1024 57.0072 42.6297 57.0072 41.7179C57.0072 40.7361 56.0385 39.8244 56.4856 37.8606C56.9327 36.1073 59.0193 35.7567 59.839 34.7748C60.7333 33.7228 59.5409 32.1799 61.1804 30.4967C62.3727 29.3045 64.7574 29.8655 65.7261 29.1642C67.2165 28.1122 66.5459 26.5693 68.5579 25.3771C70.7935 24.0445 75.7119 26.5693 76.8297 27.9018C78.0965 29.3746 77.2768 30.7773 78.0965 31.689C79.2143 33.0215 80.6302 32.3202 81.3009 33.6527C81.9716 34.9151 81.3009 35.8969 81.6735 36.8087C82.1206 37.9308 82.4932 38.1412 82.8658 39.123C83.2384 40.175 82.7168 41.1569 82.7168 41.1569C82.7168 41.1569 80.034 36.2476 76.6806 33.5826C75.5628 32.6708 74.3705 32.25 73.9979 32.4604C73.5508 32.741 74.5941 34.4943 73.7743 34.9852C72.9546 35.4761 70.1974 34.2839 69.3031 35.406C68.0363 36.9489 69.8993 39.123 68.5579 40.5958C67.2165 42.0686 66.0987 41.9985 65.8752 42.9803C65.6516 44.1726 66.9185 44.5232 67.8127 46.2064C68.6324 47.7493 68.4834 48.3805 68.4834 48.3805L67.3656 49.0117C67.3656 49.0117 65.4281 48.4507 65.0555 48.8013C64.6828 49.2923 68.7815 54.9029 68.7815 54.9029Z" fill="#262D38"/>
<path d="M56.4476 40C57.1279 41.7778 55.0115 43.4188 55.465 45.1966C55.9185 46.6325 57.2034 47.1111 58.7151 47.3162C59.1686 47.3846 59.7733 47.5214 60 48C59.6977 47.5897 59.1686 47.5897 58.7151 47.5214C57.7325 47.453 56.5988 47.2479 55.8429 46.4957C55.0871 45.7436 54.7848 44.7179 55.1627 43.7607C55.5406 42.5299 56.7499 41.4359 56.4476 40Z" fill="#262D38"/>
<path d="M79 32C79.7213 32.1875 80.6393 31.9375 81.2951 32.4375C82.3443 33.25 82.0164 34.25 81.623 35.3125C81.5574 35.5625 81.4918 35.75 81.5574 36C81.4262 35.8125 81.4262 35.5 81.4262 35.25C81.4918 34.5625 81.8197 33.8125 81.4918 33.1875C81.2951 32.8125 80.9016 32.5 80.5082 32.375C79.9836 32.3125 79.3934 32.3125 79 32Z" fill="#262D38"/>
<path d="M67.5562 49.171C67.5562 49.171 63.9848 45.9961 62.3891 47.3251C60.8693 48.6541 64.1368 53.6748 66.4164 53.9702C68.696 54.2655 69 52.272 69 52.272L67.5562 49.171Z" fill="#EB9481"/>
<path d="M63.0509 49.0267C62.983 49.0267 62.983 49.0267 63.0509 49.0267C64.4758 49.3219 65.4257 50.503 66.1721 51.684C65.6971 51.2411 65.0865 51.0935 64.5436 51.7578C64.5436 51.7578 64.5436 51.8316 64.6115 51.8316C65.0865 51.6102 65.4936 51.6102 65.9686 51.9793C66.3078 52.2745 66.5792 52.6436 66.7828 52.9388C66.8506 53.0865 67.0542 52.9389 66.9863 52.7912C66.6471 50.9459 64.8151 48.7314 63.0509 49.0267Z" fill="#262D38"/>
</svg>
