<svg width="32" height="32" viewBox="0 0 32 32" fill="none" xmlns="http://www.w3.org/2000/svg">
<rect width="32" height="32" rx="16" fill="#333333"/>
<path d="M15.5 16.6711L11.4011 20.77C11.2478 20.9233 11.0526 21 10.8156 21C10.5786 21 10.3834 20.9233 10.23 20.77C10.0767 20.6166 10 20.4214 10 20.1844C10 19.9474 10.0767 19.7522 10.23 19.5989L14.3289 15.5L10.23 11.4011C10.0767 11.2478 10 11.0526 10 10.8156C10 10.5786 10.0767 10.3834 10.23 10.23C10.3834 10.0767 10.5786 10 10.8156 10C11.0526 10 11.2478 10.0767 11.4011 10.23L15.5 14.3289L19.5989 10.23C19.7522 10.0767 19.9474 10 20.1844 10C20.4214 10 20.6166 10.0767 20.77 10.23C20.9233 10.3834 21 10.5786 21 10.8156C21 11.0526 20.9233 11.2478 20.77 11.4011L16.6711 15.5L20.77 19.5989C20.9233 19.7522 21 19.9474 21 20.1844C21 20.4214 20.9233 20.6166 20.77 20.77C20.6166 20.9233 20.4214 21 20.1844 21C19.9474 21 19.7522 20.9233 19.5989 20.77L15.5 16.6711Z" fill="white"/>
</svg>
