<svg width="14" height="14" viewBox="0 0 14 14" fill="none" xmlns="http://www.w3.org/2000/svg">
<path d="M7 8.49049L1.78327 13.7072C1.58809 13.9024 1.33967 14 1.03802 14C0.736375 14 0.487959 13.9024 0.292775 13.7072C0.0975915 13.512 0 13.2636 0 12.962C0 12.6603 0.0975915 12.4119 0.292775 12.2167L5.50951 7L0.292775 1.78327C0.0975915 1.58809 0 1.33967 0 1.03802C0 0.736375 0.0975915 0.487959 0.292775 0.292775C0.487959 0.0975915 0.736375 0 1.03802 0C1.33967 0 1.58809 0.0975915 1.78327 0.292775L7 5.50951L12.2167 0.292775C12.4119 0.0975915 12.6603 0 12.962 0C13.2636 0 13.512 0.0975915 13.7072 0.292775C13.9024 0.487959 14 0.736375 14 1.03802C14 1.33967 13.9024 1.58809 13.7072 1.78327L8.49049 7L13.7072 12.2167C13.9024 12.4119 14 12.6603 14 12.962C14 13.2636 13.9024 13.512 13.7072 13.7072C13.512 13.9024 13.2636 14 12.962 14C12.6603 14 12.4119 13.9024 12.2167 13.7072L7 8.49049Z" fill="white"/>
</svg>
