<svg xmlns="http://www.w3.org/2000/svg" width="21" height="21" viewBox="0 0 21 21" fill="none">
<g clip-path="url(#clip0_5112_2140)">
<path d="M12.9438 4.07567L14.1438 5.27567L11.7438 7.67567L12.9272 8.85901L15.3272 6.45901L16.5272 7.65901C16.7855 7.91734 17.2355 7.73401 17.2355 7.35901V3.78401C17.2355 3.55067 17.0522 3.36734 16.8188 3.36734H13.2438C12.8688 3.36734 12.6855 3.81734 12.9438 4.07567ZM7.89383 3.36734H4.31883C4.08549 3.36734 3.90216 3.55067 3.90216 3.78401V7.35901C3.90216 7.73401 4.35216 7.91734 4.61049 7.65067L5.81049 6.45067L9.73549 10.3673V15.8673C9.73549 16.3257 10.1105 16.7007 10.5688 16.7007C11.0272 16.7007 11.4022 16.3257 11.4022 15.8673V10.034C11.4022 9.81734 11.3105 9.60067 11.1605 9.44234L6.99383 5.26734L8.19383 4.06734C8.45216 3.81734 8.26883 3.36734 7.89383 3.36734Z" fill="#323232"/>
</g>
<defs>
<clipPath id="clip0_5112_2140">
<rect width="20" height="20" fill="white" transform="translate(0.568848 0.0339966)"/>
</clipPath>
</defs>
</svg>