<svg xmlns="http://www.w3.org/2000/svg" width="20" height="20" viewBox="0 0 20 20" fill="none">
<path d="M16.6667 8.75V5.66667C16.6667 4.26654 16.6667 3.56647 16.3942 3.03169C16.1545 2.56129 15.772 2.17883 15.3016 1.93915C14.7669 1.66667 14.0668 1.66667 12.6667 1.66667H7.33333C5.9332 1.66667 5.23313 1.66667 4.69835 1.93915C4.22795 2.17883 3.8455 2.56129 3.60581 3.03169C3.33333 3.56647 3.33333 4.26654 3.33333 5.66667V14.3333C3.33333 15.7335 3.33333 16.4335 3.60581 16.9683C3.8455 17.4387 4.22795 17.8212 4.69835 18.0609C5.23313 18.3333 5.9332 18.3333 7.33333 18.3333H10M11.6667 9.16667H6.66666M8.33333 12.5H6.66666M13.3333 5.83333H6.66666M15 17.5V12.5M12.5 15H17.5" stroke="white" stroke-width="1.67" stroke-linecap="round" stroke-linejoin="round"/>
</svg>