<svg xmlns="http://www.w3.org/2000/svg" width="21" height="21" viewBox="0 0 21 21" fill="none">
<g clip-path="url(#clip0_5112_2259)">
<path d="M15.3188 16.4507C15.6438 16.1257 15.6438 15.6007 15.3188 15.2757L13.0688 13.0257L11.8938 14.2007L14.1438 16.4507C14.4688 16.7757 15.0022 16.7757 15.3188 16.4507ZM7.82718 6.70067H9.73552V11.359L5.81051 15.2757C5.48551 15.6007 5.48551 16.1257 5.81051 16.4507C6.13551 16.7757 6.66051 16.7757 6.98551 16.4507L11.4022 12.034V6.70067H13.3105C13.6855 6.70067 13.8688 6.25067 13.6022 5.99234L10.8605 3.25067C10.6938 3.084 10.4355 3.084 10.2688 3.25067L7.52718 5.99234C7.26885 6.25067 7.45218 6.70067 7.82718 6.70067Z" fill="#323232"/>
</g>
<defs>
<clipPath id="clip0_5112_2259">
<rect width="20" height="20" fill="white" transform="translate(0.568848 0.0339966)"/>
</clipPath>
</defs>
</svg>