<svg width="46" height="46" viewBox="0 0 46 46" fill="none" xmlns="http://www.w3.org/2000/svg">
<rect x="3" y="3" width="40" height="40" rx="20" fill="#D1FADF"/>
<rect x="3" y="3" width="40" height="40" rx="20" stroke="#ECFDF3" stroke-width="6"/>
<path d="M17.1667 20.5V27.1667M20.9167 20.5V27.1667M25.0833 20.5V27.1667M28.8333 20.5V27.1667M15.5 28.5L15.5 29.1667C15.5 29.6334 15.5 29.8667 15.5908 30.045C15.6707 30.2018 15.7982 30.3293 15.955 30.4092C16.1333 30.5 16.3666 30.5 16.8333 30.5H29.1667C29.6334 30.5 29.8667 30.5 30.045 30.4092C30.2018 30.3293 30.3293 30.2018 30.4092 30.045C30.5 29.8667 30.5 29.6334 30.5 29.1667V28.5C30.5 28.0333 30.5 27.7999 30.4092 27.6217C30.3293 27.4649 30.2018 27.3374 30.045 27.2575C29.8667 27.1667 29.6334 27.1667 29.1667 27.1667H16.8333C16.3666 27.1667 16.1333 27.1667 15.955 27.2575C15.7982 27.3374 15.6707 27.4649 15.5908 27.6217C15.5 27.7999 15.5 28.0333 15.5 28.5ZM22.7108 15.5643L16.5441 16.9346C16.1715 17.0174 15.9853 17.0588 15.8462 17.159C15.7236 17.2474 15.6273 17.3674 15.5676 17.5063C15.5 17.6638 15.5 17.8546 15.5 18.2362L15.5 19.1667C15.5 19.6334 15.5 19.8667 15.5908 20.045C15.6707 20.2018 15.7982 20.3293 15.955 20.4092C16.1333 20.5 16.3666 20.5 16.8333 20.5H29.1667C29.6334 20.5 29.8667 20.5 30.045 20.4092C30.2018 20.3293 30.3293 20.2018 30.4092 20.045C30.5 19.8667 30.5 19.6334 30.5 19.1667V18.2362C30.5 17.8546 30.5 17.6638 30.4324 17.5063C30.3727 17.3674 30.2764 17.2474 30.1538 17.159C30.0147 17.0588 29.8285 17.0174 29.4559 16.9346L23.2892 15.5643C23.1813 15.5403 23.1273 15.5283 23.0728 15.5235C23.0244 15.5193 22.9756 15.5193 22.9272 15.5235C22.8727 15.5283 22.8187 15.5403 22.7108 15.5643Z" stroke="#039855" stroke-width="1.66667" stroke-linecap="round" stroke-linejoin="round"/>
</svg>
