<svg width="24" height="24" viewBox="0 0 24 24" fill="none" xmlns="http://www.w3.org/2000/svg">
<path d="M12 7.00003C12 5.93916 11.5786 4.92175 10.8284 4.1716C10.0783 3.42146 9.06087 3.00003 8 3.00003H2V18H9C9.79565 18 10.5587 18.3161 11.1213 18.8787C11.6839 19.4413 12 20.2044 12 21M12 7.00003V21M12 7.00003C12 5.93916 12.4214 4.92175 13.1716 4.1716C13.9217 3.42146 14.9391 3.00003 16 3.00003H22V18H15C14.2044 18 13.4413 18.3161 12.8787 18.8787C12.3161 19.4413 12 20.2044 12 21" stroke="#667085" stroke-width="2" stroke-linecap="round" stroke-linejoin="round"/>
</svg>
