<svg xmlns="http://www.w3.org/2000/svg" width="20" height="21" viewBox="0 0 20 21" fill="none">
<path d="M10 11.2334C10.4603 11.2334 10.8334 10.8603 10.8334 10.4C10.8334 9.9398 10.4603 9.5667 10 9.5667C9.53978 9.5667 9.16669 9.9398 9.16669 10.4C9.16669 10.8603 9.53978 11.2334 10 11.2334Z" stroke="#98A2B3" stroke-width="1.66667" stroke-linecap="round" stroke-linejoin="round"/>
<path d="M10 5.40004C10.4603 5.40004 10.8334 5.02694 10.8334 4.5667C10.8334 4.10647 10.4603 3.73337 10 3.73337C9.53978 3.73337 9.16669 4.10647 9.16669 4.5667C9.16669 5.02694 9.53978 5.40004 10 5.40004Z" stroke="#98A2B3" stroke-width="1.66667" stroke-linecap="round" stroke-linejoin="round"/>
<path d="M10 17.0667C10.4603 17.0667 10.8334 16.6936 10.8334 16.2334C10.8334 15.7731 10.4603 15.4 10 15.4C9.53978 15.4 9.16669 15.7731 9.16669 16.2334C9.16669 16.6936 9.53978 17.0667 10 17.0667Z" stroke="#98A2B3" stroke-width="1.66667" stroke-linecap="round" stroke-linejoin="round"/>
</svg>