<svg xmlns="http://www.w3.org/2000/svg" width="20" height="20" viewBox="0 0 20 20" fill="none">
<path d="M13.3333 15L15 16.6667L18.3333 13.3333M18.3333 8.33332H1.66667M18.3333 9.99999V6.83332C18.3333 5.8999 18.3333 5.43319 18.1517 5.07667C17.9919 4.76307 17.7369 4.5081 17.4233 4.34831C17.0668 4.16666 16.6001 4.16666 15.6667 4.16666H4.33334C3.39992 4.16666 2.93321 4.16666 2.57669 4.34831C2.26308 4.5081 2.00812 4.76307 1.84833 5.07667C1.66667 5.43319 1.66667 5.8999 1.66667 6.83332V13.1667C1.66667 14.1001 1.66667 14.5668 1.84833 14.9233C2.00812 15.2369 2.26308 15.4919 2.57669 15.6517C2.93321 15.8333 3.39992 15.8333 4.33334 15.8333H10" stroke="#444CE7" stroke-width="1.66667" stroke-linecap="round" stroke-linejoin="round"/>
</svg>
