<svg xmlns="http://www.w3.org/2000/svg" width="21" height="20" viewBox="0 0 21 20" fill="none">
<path d="M13.9022 5.00002V4.33335C13.9022 3.39993 13.9022 2.93322 13.7205 2.5767C13.5607 2.2631 13.3058 2.00813 12.9922 1.84834C12.6356 1.66669 12.1689 1.66669 11.2355 1.66669H9.90218C8.96876 1.66669 8.50205 1.66669 8.14553 1.84834C7.83193 2.00813 7.57696 2.2631 7.41717 2.5767C7.23551 2.93322 7.23551 3.39993 7.23551 4.33335V5.00002M8.90218 9.58335V13.75M12.2355 9.58335V13.75M3.06885 5.00002H18.0688M16.4022 5.00002V14.3334C16.4022 15.7335 16.4022 16.4336 16.1297 16.9683C15.89 17.4387 15.5076 17.8212 15.0372 18.0609C14.5024 18.3334 13.8023 18.3334 12.4022 18.3334H8.73551C7.33538 18.3334 6.63532 18.3334 6.10054 18.0609C5.63013 17.8212 5.24768 17.4387 5.008 16.9683C4.73551 16.4336 4.73551 15.7335 4.73551 14.3334V5.00002" stroke="#3538CD" stroke-width="1.67" stroke-linecap="round" stroke-linejoin="round"/>
</svg>
