<svg width="37" height="37" viewBox="0 0 37 37" fill="none" xmlns="http://www.w3.org/2000/svg">
<rect width="36.18" height="36.18" rx="9.796" fill="url(#paint0_linear_6138_3299)"/>
<path d="M31.7847 18.5696C32.0496 18.3047 32.0496 17.8752 31.7847 17.6102L27.4675 13.2931C27.2026 13.0282 26.7731 13.0282 26.5082 13.2931C26.2432 13.558 26.2432 13.9875 26.5082 14.2525L30.3456 18.0899L26.5082 21.9274C26.2432 22.1923 26.2432 22.6218 26.5082 22.8868C26.7731 23.1517 27.2026 23.1517 27.4675 22.8868L31.7847 18.5696ZM24.0319 18.0899V17.4116V18.0899ZM18.0902 24.0316H18.7686H18.0902ZM17.6105 31.7844C17.8754 32.0494 18.3049 32.0494 18.5699 31.7844L22.887 27.4673C23.1519 27.2024 23.1519 26.7728 22.887 26.5079C22.6221 26.243 22.1926 26.243 21.9277 26.5079L18.0902 30.3454L14.2527 26.5079C13.9878 26.243 13.5583 26.243 13.2933 26.5079C13.0284 26.7728 13.0284 27.2024 13.2933 27.4673L17.6105 31.7844ZM4.39565 17.6102C4.13073 17.8751 4.13073 18.3046 4.39565 18.5696L8.71281 22.8867C8.97773 23.1516 9.40726 23.1516 9.67218 22.8867C9.9371 22.6218 9.9371 22.1923 9.67218 21.9273L5.8347 18.0899L9.67217 14.2524C9.93709 13.9875 9.93709 13.558 9.67217 13.293C9.40725 13.0281 8.97773 13.0281 8.7128 13.293L4.39565 17.6102ZM12.1484 18.0899L12.1484 18.7683L12.1484 18.0899ZM18.0902 12.1482H17.4118H18.0902ZM18.5698 4.39538C18.3049 4.13046 17.8754 4.13046 17.6105 4.39538L13.2933 8.71253C13.0284 8.97745 13.0284 9.40698 13.2933 9.6719C13.5582 9.93682 13.9878 9.93682 14.2527 9.6719L18.0902 5.83443L21.9276 9.6719C22.1925 9.93682 22.6221 9.93682 22.887 9.6719C23.1519 9.40698 23.1519 8.97745 22.887 8.71253L18.5698 4.39538ZM31.305 17.4116L24.0319 17.4116L24.0319 18.7683L31.305 18.7683L31.305 17.4116ZM17.4118 24.0316L17.4118 31.3047H18.7686L18.7686 24.0316H17.4118ZM24.0319 17.4116C20.3757 17.4116 17.4118 20.3755 17.4118 24.0316H18.7686C18.7686 21.1248 21.125 18.7683 24.0319 18.7683L24.0319 17.4116ZM4.87534 18.7683L12.1484 18.7683L12.1484 17.4115L4.87534 17.4115L4.87534 18.7683ZM18.7685 12.1482V4.87506H17.4118V12.1482H18.7685ZM12.1484 18.7683C15.8046 18.7682 18.7685 15.8043 18.7685 12.1482H17.4118C17.4118 15.055 15.0553 17.4115 12.1484 17.4115L12.1484 18.7683Z" fill="white"/>
<defs>
<linearGradient id="paint0_linear_6138_3299" x1="-0.000563431" y1="36.1798" x2="36.1796" y2="-0.000440509" gradientUnits="userSpaceOnUse">
<stop stop-color="#393F95"/>
<stop offset="1" stop-color="#444CE7"/>
</linearGradient>
</defs>
</svg>
