<svg width="4" height="16" viewBox="0 0 4 16" fill="none" xmlns="http://www.w3.org/2000/svg">
<path d="M2.00002 9.03336C2.46026 9.03336 2.83335 8.66026 2.83335 8.20002C2.83335 7.73978 2.46026 7.36669 2.00002 7.36669C1.53978 7.36669 1.16669 7.73978 1.16669 8.20002C1.16669 8.66026 1.53978 9.03336 2.00002 9.03336Z" stroke="#98A2B3" stroke-width="1.66667" stroke-linecap="round" stroke-linejoin="round"/>
<path d="M2.00002 3.20002C2.46026 3.20002 2.83335 2.82693 2.83335 2.36669C2.83335 1.90645 2.46026 1.53336 2.00002 1.53336C1.53978 1.53336 1.16669 1.90645 1.16669 2.36669C1.16669 2.82693 1.53978 3.20002 2.00002 3.20002Z" stroke="#98A2B3" stroke-width="1.66667" stroke-linecap="round" stroke-linejoin="round"/>
<path d="M2.00002 14.8667C2.46026 14.8667 2.83335 14.4936 2.83335 14.0334C2.83335 13.5731 2.46026 13.2 2.00002 13.2C1.53978 13.2 1.16669 13.5731 1.16669 14.0334C1.16669 14.4936 1.53978 14.8667 2.00002 14.8667Z" stroke="#98A2B3" stroke-width="1.66667" stroke-linecap="round" stroke-linejoin="round"/>
</svg>
