<svg width="20" height="20" viewBox="0 0 20 20" fill="none" xmlns="http://www.w3.org/2000/svg">
<g clip-path="url(#clip0_1199_27104)">
<path d="M15 1.66667L18.3334 5.00001M1.66669 18.3333L2.73035 14.4332C2.79975 14.1788 2.83445 14.0515 2.88771 13.9329C2.93501 13.8276 2.99312 13.7274 3.06112 13.6341C3.1377 13.529 3.23095 13.4357 3.41744 13.2493L12.0286 4.63808C12.1936 4.47307 12.2761 4.39057 12.3713 4.35965C12.4549 4.33246 12.5451 4.33246 12.6288 4.35965C12.7239 4.39057 12.8064 4.47307 12.9714 4.63808L15.3619 7.0286C15.527 7.19361 15.6095 7.27611 15.6404 7.37125C15.6676 7.45493 15.6676 7.54508 15.6404 7.62876C15.6095 7.7239 15.527 7.8064 15.3619 7.97141L6.75077 16.5826C6.56428 16.7691 6.47103 16.8623 6.36592 16.9389C6.2726 17.0069 6.17246 17.065 6.06712 17.1123C5.94848 17.1656 5.82125 17.2003 5.5668 17.2697L1.66669 18.3333Z" stroke="#667085" stroke-width="1.67" stroke-linecap="round" stroke-linejoin="round"/>
</g>
<defs>
<clipPath id="clip0_1199_27104">
<rect width="20" height="20" fill="white"/>
</clipPath>
</defs>
</svg>
