<svg xmlns="http://www.w3.org/2000/svg" width="21" height="20" viewBox="0 0 21 20" fill="none">
<path d="M9.73553 3.33332H3.9022C3.46017 3.33332 3.03625 3.50891 2.72369 3.82147C2.41113 4.13403 2.23553 4.55796 2.23553 4.99999V16.6667C2.23553 17.1087 2.41113 17.5326 2.72369 17.8452C3.03625 18.1577 3.46017 18.3333 3.9022 18.3333H15.5689C16.0109 18.3333 16.4348 18.1577 16.7474 17.8452C17.0599 17.5326 17.2355 17.1087 17.2355 16.6667V10.8333M15.9855 2.08332C16.3171 1.7518 16.7667 1.56555 17.2355 1.56555C17.7044 1.56555 18.154 1.7518 18.4855 2.08332C18.8171 2.41484 19.0033 2.86448 19.0033 3.33332C19.0033 3.80216 18.8171 4.2518 18.4855 4.58332L10.5689 12.5L7.23553 13.3333L8.06887 9.99999L15.9855 2.08332Z" stroke="#3538CD" stroke-width="1.67" stroke-linecap="round" stroke-linejoin="round"/>
</svg>