<svg width="24" height="24" viewBox="0 0 24 24" fill="none" xmlns="http://www.w3.org/2000/svg">
<path d="M14 2.00003H6C5.46957 2.00003 4.96086 2.21074 4.58579 2.58582C4.21071 2.96089 4 3.4696 4 4.00003V20C4 20.5305 4.21071 21.0392 4.58579 21.4142C4.96086 21.7893 5.46957 22 6 22H18C18.5304 22 19.0391 21.7893 19.4142 21.4142C19.7893 21.0392 20 20.5305 20 20V8.00003M14 2.00003L20 8.00003M14 2.00003V8.00003H20M16 13H8M16 17H8M10 9.00003H8" stroke="#667085" stroke-width="2" stroke-linecap="round" stroke-linejoin="round"/>
</svg>
