<svg xmlns="http://www.w3.org/2000/svg" width="20" height="21" viewBox="0 0 20 21" fill="none">
<path d="M10 11.3333C10.4603 11.3333 10.8334 10.9602 10.8334 10.5C10.8334 10.0398 10.4603 9.66668 10 9.66668C9.53978 9.66668 9.16669 10.0398 9.16669 10.5C9.16669 10.9602 9.53978 11.3333 10 11.3333Z" stroke="#98A2B3" stroke-width="2" stroke-linecap="round" stroke-linejoin="round"/>
<path d="M10 5.50001C10.4603 5.50001 10.8334 5.12691 10.8334 4.66668C10.8334 4.20644 10.4603 3.83334 10 3.83334C9.53978 3.83334 9.16669 4.20644 9.16669 4.66668C9.16669 5.12691 9.53978 5.50001 10 5.50001Z" stroke="#98A2B3" stroke-width="2" stroke-linecap="round" stroke-linejoin="round"/>
<path d="M10 17.1667C10.4603 17.1667 10.8334 16.7936 10.8334 16.3333C10.8334 15.8731 10.4603 15.5 10 15.5C9.53978 15.5 9.16669 15.8731 9.16669 16.3333C9.16669 16.7936 9.53978 17.1667 10 17.1667Z" stroke="#98A2B3" stroke-width="2" stroke-linecap="round" stroke-linejoin="round"/>
</svg>