<svg width="18" height="18" viewBox="0 0 18 18" fill="none" xmlns="http://www.w3.org/2000/svg">
<path d="M6.57499 6.50002C6.77091 5.94308 7.15762 5.47344 7.66662 5.1743C8.17562 4.87515 8.77407 4.7658 9.35597 4.86561C9.93787 4.96543 10.4657 5.26796 10.8459 5.71963C11.2261 6.1713 11.4342 6.74296 11.4333 7.33335C11.4333 9.00002 8.93332 9.83335 8.93332 9.83335M8.99999 13.1667H9.00832M17.3333 9.00002C17.3333 13.6024 13.6024 17.3334 8.99999 17.3334C4.39762 17.3334 0.666656 13.6024 0.666656 9.00002C0.666656 4.39765 4.39762 0.666687 8.99999 0.666687C13.6024 0.666687 17.3333 4.39765 17.3333 9.00002Z" stroke="#98A2B3" stroke-width="1.33333" stroke-linecap="round" stroke-linejoin="round"/>
</svg>
