<svg width="18" height="18" viewBox="0 0 19 18" fill="none" xmlns="http://www.w3.org/2000/svg">
<path d="M7.3175 6.75C7.49383 6.24875 7.84186 5.82608 8.29997 5.55685C8.75807 5.28762 9.29667 5.1892 9.82038 5.27903C10.3441 5.36886 10.8191 5.64114 11.1613 6.04765C11.5035 6.45415 11.6908 6.96864 11.69 7.5C11.69 9 9.44 9.75 9.44 9.75M9.5 12.75H9.5075M17 9C17 13.1421 13.6421 16.5 9.5 16.5C5.35786 16.5 2 13.1421 2 9C2 4.85786 5.35786 1.5 9.5 1.5C13.6421 1.5 17 4.85786 17 9Z" stroke="#D0D5DD" stroke-width="1.67" stroke-linecap="round" stroke-linejoin="round"/>
</svg>
