<svg xmlns="http://www.w3.org/2000/svg" width="20" height="20" viewBox="0 0 20 20" fill="none">
  <g clip-path="url(#clip0_1199_27147)">
    <path d="M7.57499 7.50002C7.77091 6.94308 8.15762 6.47344 8.66662 6.1743C9.17562 5.87515 9.77407 5.7658 10.356 5.86561C10.9379 5.96543 11.4657 6.26796 11.8459 6.71963C12.2261 7.1713 12.4342 7.74296 12.4333 8.33335C12.4333 10 9.93332 10.8334 9.93332 10.8334M9.99999 14.1667H10.0083M18.3333 10C18.3333 14.6024 14.6024 18.3334 9.99999 18.3334C5.39762 18.3334 1.66666 14.6024 1.66666 10C1.66666 5.39765 5.39762 1.66669 9.99999 1.66669C14.6024 1.66669 18.3333 5.39765 18.3333 10Z" stroke="#667085" stroke-width="1.67" stroke-linecap="round" stroke-linejoin="round"/>
  </g>
  <defs>
    <clipPath id="clip0_1199_27147">
      <rect width="20" height="20" fill="white"/>
    </clipPath>
  </defs>
</svg>