<svg width="50" height="45" viewBox="0 0 50 45" fill="none" xmlns="http://www.w3.org/2000/svg">
<path d="M0 8.5C0 4.08172 3.58172 0.5 8 0.5H50V44.5H8C3.58172 44.5 0 40.9183 0 36.5V8.5Z" fill="#444CE7"/>
<path d="M19 25.5H18C17.4696 25.5 16.9609 25.2893 16.5858 24.9142C16.2107 24.5391 16 24.0304 16 23.5V14.5C16 13.9696 16.2107 13.4609 16.5858 13.0858C16.9609 12.7107 17.4696 12.5 18 12.5H27C27.5304 12.5 28.0391 12.7107 28.4142 13.0858C28.7893 13.4609 29 13.9696 29 14.5V15.5M25 19.5H34C35.1046 19.5 36 20.3954 36 21.5V30.5C36 31.6046 35.1046 32.5 34 32.5H25C23.8954 32.5 23 31.6046 23 30.5V21.5C23 20.3954 23.8954 19.5 25 19.5Z" stroke="white" stroke-width="2" stroke-linecap="round" stroke-linejoin="round"/>
</svg>
