<svg xmlns="http://www.w3.org/2000/svg" width="120" height="120" viewBox="0 0 120 120" fill="none">
  <path d="M106.055 23.3108C108.867 26.9958 111.248 30.9993 113.149 35.2408L59.2191 75.5308L36.6802 61.212V43.9857L59.2191 58.3046L106.055 23.3108Z" fill="#21A038"/>
  <path d="M13.6778 59.998C13.6778 59.225 13.6964 58.4572 13.7336 57.6937L0.0743904 57.0154C0.0278989 58.0048 1.65065e-05 59.0038 1.65065e-05 60.012C-0.00579511 67.8893 1.52306 75.69 4.49893 82.9668C7.47477 90.244 11.839 96.8539 17.3413 102.417L27.0302 92.603C22.7947 88.3279 19.4346 83.2464 17.1432 77.6509C14.8517 72.0555 13.6741 66.0561 13.6778 59.998Z" fill="url(#paint0_linear_4436_3974)"/>
  <path d="M59.2069 13.8613C59.9693 13.8613 60.7269 13.8896 61.4801 13.9272L62.1635 0.0795064C61.1844 0.0323893 60.1986 0.00883356 59.2069 0.00883356C51.4305 -0.000777187 43.7292 1.54642 36.5447 4.56159C29.3601 7.57676 22.8341 12.0005 17.3412 17.5788L27.03 27.398C31.2486 23.1042 36.2631 19.6977 41.7852 17.3746C47.3072 15.0515 53.2277 13.8575 59.2069 13.8613Z" fill="url(#paint1_linear_4436_3974)"/>
  <path d="M59.2071 106.139C58.4448 106.139 57.6868 106.139 56.9293 106.078L56.2458 119.921C57.2283 119.971 58.2155 119.997 59.2071 119.997C66.9803 120.005 74.6779 118.457 81.8586 115.441C89.0393 112.424 95.5611 108 101.05 102.422L91.3796 92.6074C87.1602 96.899 82.1463 100.304 76.6253 102.626C71.1043 104.948 65.1849 106.142 59.2071 106.139Z" fill="url(#paint2_linear_4436_3974)"/>
  <path d="M84.8714 21.9096L96.3826 13.3107C85.8612 4.67627 72.7277 -0.0239682 59.1892 9.19136e-05V13.8572C68.3569 13.8457 77.3117 16.6535 84.8714 21.9096Z" fill="url(#paint3_linear_4436_3974)"/>
  <path d="M118.41 60.0002C118.417 56.3954 118.106 52.7968 117.48 49.248L104.737 58.7657C104.737 59.1758 104.737 59.5856 104.737 60.0002C104.74 66.4472 103.406 72.8229 100.823 78.7141C98.239 84.6052 94.4625 89.8804 89.7383 94.1977L98.9298 104.493C105.072 98.8738 109.98 92.0094 113.335 84.3448C116.691 76.6798 118.42 68.3857 118.41 60.0002Z" fill="#21A038"/>
  <path d="M59.2072 106.141C52.8454 106.143 46.554 104.792 40.7402 102.173C34.9268 99.5548 29.7206 95.728 25.459 90.9412L15.3052 100.252C20.8492 106.477 27.6223 111.452 35.1854 114.854C42.7485 118.255 50.9325 120.008 59.2072 119.998V106.141Z" fill="url(#paint4_linear_4436_3974)"/>
  <path d="M28.676 25.8005L19.4893 15.5054C13.3458 21.1235 8.43604 27.9876 5.07854 35.6525C1.72109 43.3173 -0.0091536 51.6118 3.64175e-05 59.998H13.6778C13.675 53.5514 15.0087 47.1756 17.5924 41.2845C20.1761 35.3935 23.9521 30.1182 28.676 25.8005Z" fill="url(#paint5_linear_4436_3974)"/>
  <defs>
    <linearGradient id="paint0_linear_4436_3974" x1="20.1076" y1="100.688" x2="4.80464" y2="57.0381" gradientUnits="userSpaceOnUse">
      <stop offset="0.14" stop-color="#F1E813"/>
      <stop offset="0.3" stop-color="#E6E418"/>
      <stop offset="0.58" stop-color="#C9DA26"/>
      <stop offset="0.89" stop-color="#A2CC39"/>
    </linearGradient>
    <linearGradient id="paint1_linear_4436_3974" x1="21.2465" y1="20.0289" x2="59.8658" y2="5.50704" gradientUnits="userSpaceOnUse">
      <stop offset="0.06" stop-color="#0FA7DF"/>
      <stop offset="0.54" stop-color="#0098F8"/>
      <stop offset="0.92" stop-color="#0290EA"/>
    </linearGradient>
    <linearGradient id="paint2_linear_4436_3974" x1="55.344" y1="111.633" x2="98.9249" y2="101.919" gradientUnits="userSpaceOnUse">
      <stop offset="0.12" stop-color="#A2CC39"/>
      <stop offset="0.28" stop-color="#86C239"/>
      <stop offset="0.87" stop-color="#219F38"/>
    </linearGradient>
    <linearGradient id="paint3_linear_4436_3974" x1="56.3442" y1="4.64113" x2="93.6414" y2="15.9981" gradientUnits="userSpaceOnUse">
      <stop offset="0.06" stop-color="#0290EA"/>
      <stop offset="0.79" stop-color="#0C89CA"/>
    </linearGradient>
    <linearGradient id="paint4_linear_4436_3974" x1="18.7363" y1="98.5647" x2="59.3712" y2="113.55" gradientUnits="userSpaceOnUse">
      <stop offset="0.13" stop-color="#F1E813"/>
      <stop offset="0.3" stop-color="#EAE616"/>
      <stop offset="0.53" stop-color="#D8DF1F"/>
      <stop offset="0.8" stop-color="#BAD52D"/>
      <stop offset="0.98" stop-color="#A2CC39"/>
    </linearGradient>
    <linearGradient id="paint5_linear_4436_3974" x1="5.09549" y1="61.6753" x2="21.7361" y2="18.962" gradientUnits="userSpaceOnUse">
      <stop offset="0.07" stop-color="#A2CC39"/>
      <stop offset="0.26" stop-color="#81C45E"/>
      <stop offset="0.92" stop-color="#0FA7DF"/>
    </linearGradient>
  </defs>
</svg>