<svg xmlns="http://www.w3.org/2000/svg" width="120" height="120" viewBox="0 0 120 120" fill="none">
  <path d="M118.415 56.1186L120 51.1407L114.845 51.3036C112.43 51.2148 110.104 50.4 108.148 48.963H108.845C111.985 48.948 114.859 47.1555 116.252 44.3406L118.519 39.4962C116.741 39.5112 114.963 39.4074 113.2 39.1851C111.511 38.7852 110 37.8666 108.859 36.5631C107.318 34.9185 105.185 33.9852 102.933 33.9705C102.059 33.9705 101.185 34.1184 100.341 34.3851C100.459 33.9852 100.563 33.5853 100.637 33.1704C100.993 30.2814 100.178 27.363 98.3853 25.0667L94.4742 20.2519L92.0742 25.8815C91.689 26.6815 91.1112 27.3778 90.3705 27.8815C89.9556 25.8667 88.9779 24.0296 87.5259 22.5778C85.0962 20.0889 81.7629 18.6963 78.2814 18.7259C77.6742 18.7259 77.0667 18.7704 76.4742 18.8593L71.7927 19.7778C72.1926 18.2074 72.8295 16.7111 73.689 15.3333L76.2666 11.3185L69.7779 11.9259L67.7037 7.48149L63.7038 9.65925L60 6L56.2962 9.65925L52.2963 7.5852L50.2221 11.9259L43.7334 11.1852L46.311 15.2148C47.1705 16.5926 47.8074 18.0889 48.2073 19.6593L43.7631 18.7852H43.6149C42.9927 18.6963 42.3705 18.6518 41.748 18.6518C38.2668 18.6222 34.9332 20.0148 32.5038 22.5037C31.0371 23.9704 30.0297 25.837 29.6296 27.8815C28.9185 27.3926 28.3407 26.7259 27.9556 25.9407L25.5407 20.2667L21.6 25.0963C19.837 27.3926 19.0519 30.2964 19.3926 33.1704C19.4667 33.5853 19.5704 33.9852 19.6889 34.3851C18.8444 34.1184 17.9704 33.9705 17.0963 33.9705C14.8444 33.9852 12.7111 34.9185 11.1704 36.5631C10.0444 37.8519 8.54814 38.7705 6.87408 39.1851C5.09631 39.4518 3.2889 39.5556 1.48148 39.4962L3.68889 44.4147C5.08149 47.2296 7.95555 49.0221 11.0963 49.0371H11.7926C9.86667 50.4444 7.57038 51.2592 5.1852 51.363L0 51.1407L1.58519 56.1186C2.77037 60.0147 6.13332 62.874 10.1778 63.3927C9.76296 66.0147 8.10369 68.2815 5.73333 69.4668L1.76296 71.0814L3.89631 74.7999C5.65926 77.5407 8.69631 79.1703 11.9408 79.1406C12.7852 79.1406 13.6296 79.0518 14.4592 78.8742C14.6667 79.7778 14.9333 80.6814 15.2296 81.5556C15.9704 83.511 16.0148 85.6443 15.3778 87.6297L13.4519 91.674L17.763 92.8149C18.7259 93.0666 19.7333 93.1851 20.7259 93.1851C21.437 93.1851 22.1333 93.111 22.8296 92.9481C23.3333 92.8296 23.837 92.6814 24.3111 92.4888C24.8593 93.4815 25.5556 94.4001 26.3407 95.2149C29.0963 98.0445 33.0075 99.4815 37.9704 99.4815H41.511L34.2075 102.518L39.7482 105.259C41.9853 106.356 44.2668 107.348 46.5927 108.222L45.9258 110.148L47.8371 111.022C51.0075 112.267 54.3705 112.963 57.7779 113.081H62.3259C65.7186 112.963 69.0666 112.252 72.2223 111.007L74.0742 110.148L73.4223 108.222C75.7779 107.318 78.0888 106.296 80.3406 105.155L85.7778 102.518L78.489 99.5556H82.0443C87.0075 99.5556 90.9333 98.0742 93.6741 95.289C94.4742 94.4742 95.1555 93.5556 95.7036 92.5629C96.1779 92.7555 96.6816 92.9037 97.1853 93.0222C97.8816 93.1851 98.5779 93.2592 99.2889 93.2592C100.282 93.2592 101.289 93.126 102.252 92.889L106.578 91.7481L104.696 87.7779C103.985 85.7631 104.015 83.5557 104.771 81.5556C105.082 80.6517 105.333 79.7334 105.541 78.8148C106.37 78.9927 107.23 79.0815 108.074 79.0815C111.348 79.1112 114.4 77.4222 116.133 74.637L118.237 70.9629L114.326 69.363C111.956 68.1777 110.296 65.9112 109.882 63.2889C113.926 62.7555 117.289 59.9112 118.474 56.0001L118.415 56.1186Z" fill="white"/>
  <path d="M77.8076 71.8515H42.2519V85.1847C42.2519 90.6663 46.2074 94.0737 52.0592 94.0737C56.9483 94.0737 58.2371 94.2663 60.0446 96.0735C61.1852 94.8441 62.8001 94.1478 64.4891 94.1772V93.9699L65.615 90.5031L63.7037 88.4142C62.9333 88.6515 62.1335 88.7403 61.3334 88.6959C60.1334 88.6809 58.9481 88.5624 57.7778 88.3254H57.4076C57.2444 88.3254 57.2444 88.3254 57.2 88.4142L56.978 88.7847L56.5778 89.4513L55.8074 89.2737L52.3853 88.4736L51.9113 89.244V89.3328L52.3259 89.7921L52.1483 90.3846C51.8372 91.1106 51.3926 91.7625 50.8298 92.3256L49.9706 93.2439L49.1852 92.2662L48.6074 91.5402C47.9852 90.7254 47.837 89.6589 48.1928 88.6959L47.2298 89.0958L46.8002 88.1478L46.5632 87.4809C45.9557 86.0736 46.415 84.444 47.6444 83.5551L50.4002 82.0737L53.0222 82.5921C53.0222 82.3404 53.1854 81.4365 53.2595 81.2142H53.1113L51.6296 81.7773L50.1482 80.7699C49.8518 80.4735 49.8371 79.9848 50.1482 79.6737L51.5555 77.5404L47.9852 73.0959L53.3333 75.1995L53.7038 74.7552L54.4445 73.8663L55.289 74.6661C55.5113 74.8884 55.6592 75.1551 55.7333 75.4662C57.215 76.0587 59.9555 77.7921 60.1778 80.607L59.3333 80.9478C59.4371 81.0957 59.5706 81.2142 59.7335 81.2883L63.6446 81.6735L64.0001 81.57C64.6667 81.318 65.378 81.1848 66.089 81.1698C66.8 81.1698 67.4963 81.333 68.1335 81.6441C68.4149 81.5403 68.726 81.4809 69.0224 81.4662H69.215C71.3039 81.4662 72.3557 83.0367 73.1852 84.2811L73.6148 84.9033C74.3408 85.9404 75.3038 87.4515 75.3482 87.5106L75.7778 88.1772L75.2444 88.7994C74.7557 89.4513 73.9853 89.8218 73.1705 89.8218C72.9335 89.8365 72.6965 89.8365 72.4592 89.8218C72.2519 89.7774 72.0446 89.718 71.837 89.6292C71.837 89.8365 71.837 90.0885 71.7185 90.2958L71.1113 93.792C75.1409 92.9772 77.9852 89.3625 77.8223 85.2441L77.8076 71.8515ZM42.2075 70.77H69.8963C68.7704 69.585 68.3852 67.8813 68.8889 66.3255C68.5187 66.1479 68.1629 65.9109 67.8518 65.6442C66.7703 66.444 63.4076 68.844 62.6075 69.4515L62.4296 69.57L51.5555 67.644H51.3335C50.9777 67.659 50.6222 67.659 50.2667 67.644C50.1629 68.133 49.7333 68.4738 49.2446 68.4738H49.0667C48.4889 68.37 48.089 67.8219 48.1778 67.2441V67.0071C46.7705 65.9997 46.1039 64.2516 46.4741 62.5626V62.37L46.637 62.2515C46.637 62.2515 46.8446 62.1033 47.126 61.9404L46.3409 61.8219C46.0445 61.7625 45.8519 61.4961 45.8963 61.1997C45.9407 60.9033 46.2074 60.7107 46.5038 60.7551H46.5185L48.4001 61.0515L48.5777 54.4293L51.3779 51.4662L53.126 55.1403L51.2891 61.5108L52.9481 61.7775C53.2445 61.8366 53.4371 62.1033 53.3927 62.3997C53.3483 62.6664 53.126 62.844 52.8593 62.844H52.7705L51.4223 62.622V62.7255C51.5705 62.9922 51.7928 63.1998 52.0742 63.333L60.3557 63.4662L62.474 61.3776C60.8594 60.8145 59.7038 59.3922 59.5112 57.6885C58.4741 57.2886 57.6296 56.5182 57.1556 55.5255C56.7557 54.5922 56.6816 53.5404 56.963 52.5627C55.6592 52.044 54.4742 51.2589 53.5112 50.2515H41.2148C41.8076 51.7035 42.1481 53.244 42.2075 54.7998V70.77Z" fill="#FCE527"/>
  <path d="M53.5707 77.6741C53.3928 77.6741 53.2299 77.8073 53.2149 77.9852V77.9999C53.2002 78.1925 53.3484 78.3704 53.541 78.3851H53.5557C53.763 78.3851 53.9112 78.2222 53.9112 78.0296C53.9112 77.822 53.763 77.6741 53.5707 77.6741Z" fill="#222220"/>
  <path d="M53.5557 77.6595C53.5704 77.6595 53.5704 77.6742 53.5704 77.6742C53.5854 77.6742 53.5854 77.6595 53.6001 77.6595H53.5557ZM77.7627 101.956L75.7185 101.17L76.2813 99.0519L76.9035 96.7407C74.1036 98.178 71.1702 99.3333 68.148 100.193C66.6666 100.607 65.5998 100.8 65.5998 100.8V102.296C63.7776 102.593 61.9407 102.756 60.0888 102.77H59.9259C58.074 102.756 56.2368 102.593 54.4146 102.296V100.815C54.4146 100.815 53.3331 100.607 51.8517 100.193C48.8295 99.3333 45.8961 98.178 43.0962 96.7407L43.7037 99.0519L44.2812 101.17L42.222 101.956L39.9999 102.8C43.0518 104.385 46.2369 105.704 49.5258 106.741L48.7407 108.874C52.311 110.237 56.1333 110.904 59.9553 110.815H60.0444C63.8664 110.904 67.6887 110.237 71.259 108.874L70.4886 106.741C73.7628 105.704 76.9479 104.385 79.9998 102.8L77.7627 101.956ZM42.474 102.933L45.7923 101.822L44.7999 98.5632C46.9776 99.6444 49.2294 100.548 51.5553 101.259L49.9257 105.704C47.3628 105.022 44.859 104.089 42.474 102.933ZM60.0888 109.763L60.0147 109.704C56.7555 109.689 53.511 109.244 50.3703 108.385L52.3701 102.963C54.8592 103.585 57.4221 103.926 59.9997 103.941H60.1629C62.7405 103.911 65.3034 103.585 67.7925 102.963L69.7923 108.385C66.6369 109.274 63.3627 109.733 60.0888 109.763ZM70.1925 105.793V105.748L68.5629 101.304C70.8888 100.593 73.1406 99.6891 75.3183 98.6076L74.3259 101.867L77.6886 102.993C75.2886 104.163 72.7701 105.111 70.1925 105.793ZM60 17.3927C63.348 17.3038 66.6369 18.3112 69.3627 20.252C69.7926 18.0594 70.6074 15.9557 71.7777 14.0446L68.4147 14.4298L66.6666 10.6816L63.2739 12.4297L60 9.1853L56.7258 12.4297L53.3331 10.6816L51.585 14.4298L48.222 14.0446C49.3926 15.9557 50.2074 18.0594 50.637 20.252C53.3628 18.3112 56.6517 17.3038 60 17.3927ZM51.4368 15.7334L52.3704 15.8371L52.7703 14.9927L53.9406 12.4742L56.1183 13.6001L56.9628 14.0297L57.6444 13.4075L60 11.0223L62.3553 13.4075L63.0369 14.0742L63.8814 13.6446L66.0444 12.5186L67.2294 15.0371L67.6296 15.8816L68.5629 15.7779L69.4518 15.6742C69.0963 16.489 68.7852 17.3335 68.5332 18.1927C63.1851 15.452 56.8296 15.452 51.4815 18.1927C51.2295 17.3335 50.9184 16.489 50.5629 15.6742L51.4368 15.7334ZM103.941 47.9703L103.541 47.4816C100.785 43.9704 98.163 40.6371 93.4818 39.111C93.6744 38.9481 93.867 38.7999 94.0743 38.6667C96.2964 37.4073 97.8669 35.2446 98.3706 32.7408C98.6223 30.474 97.9854 28.2074 96.5928 26.4L95.1114 24.5482L94.1781 26.7556C94.1781 26.8889 92.5335 30.4296 89.2149 30.4296H88.2372C88.4151 28.1037 87.5706 25.8074 85.926 24.1482C83.9262 22.1037 81.1707 20.963 78.3114 20.9778C77.778 20.9778 77.2446 21.0223 76.7262 21.0963L74.4594 21.5408L75.867 23.3926C76.9632 24.8741 77.9556 27.4371 76.7853 28.8148C76.2225 29.3037 75.5853 29.6889 74.889 29.9556C73.4076 30.6519 71.2743 31.6446 71.2743 34.1334C71.2743 35.7483 72.5334 37.437 74.8002 38.874C81.4818 43.1112 85.6149 47.4816 87.4077 52.4001C90.1779 59.8962 86.5632 64.1631 83.052 66.4149L81.4818 67.4223L82.8594 68.6814C84.0891 69.7335 85.6002 70.3851 87.2151 70.5483H88.563C89.9409 70.5483 91.3038 70.3557 92.6223 69.9555C92.2965 70.5333 91.8966 71.0814 91.467 71.5851C89.4669 73.911 86.5038 75.1851 83.4372 75.0222H82.1187L82.0149 76.3407C82.0002 78.1926 82.815 79.9407 84.2223 81.1407C84.5928 81.4668 85.0077 81.7335 85.452 81.9408C83.2593 84.0741 82.0149 86.9925 81.9705 90.0594C81.9705 91.7334 81.5853 93.3927 80.8593 94.9038L79.3779 97.1259H82.0149C86.3706 97.1259 89.7039 95.9259 92.0151 93.5409C93.2151 92.2815 94.104 90.7557 94.6224 89.0964C95.4816 89.8221 96.489 90.3261 97.5855 90.5778C98.1039 90.6963 98.6373 90.7557 99.1707 90.7557C99.9705 90.7557 100.771 90.6519 101.541 90.474L103.23 90.0297L102.489 88.4592C101.556 85.9557 101.556 83.1852 102.489 80.6814C103.037 79.0518 103.422 77.3631 103.63 75.6444C104.963 76.326 106.445 76.6668 107.941 76.6518C110.4 76.6815 112.697 75.4668 114.03 73.4073L114.845 71.9259L113.363 71.3037C108.4 69.2445 107.304 63.7038 107.082 60.711C107.571 60.8148 108.059 60.8742 108.563 60.8889L108.978 61.1703C114.371 61.1703 116.178 55.674 116.252 55.437L116.859 53.4963H114.83C110.563 53.3481 106.578 51.3333 103.941 47.9703ZM108.993 59.6742H108.785C107.704 59.6889 106.637 59.3925 105.719 58.8297C105.719 58.8297 104.933 69.5409 112.919 72.8592V72.9036C111.867 74.5038 110.06 75.4518 108.148 75.4221C105.986 75.5556 103.897 74.637 102.533 72.963C102.578 75.4815 102.163 78 101.319 80.3703C100.237 83.2296 100.237 86.4 101.319 89.2593C100.652 89.4222 99.9855 89.511 99.3039 89.511C98.889 89.511 98.4594 89.4666 98.0595 89.3631C96.0891 88.8888 94.5186 87.4371 93.8817 85.5258C93.8817 85.5258 94.1928 95.8074 82.2075 95.8074H82.1187C83.0223 94.089 83.4966 92.1777 83.4816 90.237C84.0003 82.6371 89.1558 81.5556 89.1558 81.5556C87.7335 81.3777 86.3853 80.874 85.2003 80.0742C84.1188 79.1703 83.4966 77.8371 83.4669 76.4298C86.9334 76.5777 90.2817 75.1407 92.5482 72.5037C93.9114 70.9482 94.815 69.0519 95.2002 67.0221C93.2892 68.4594 90.9336 69.1851 88.5483 69.0816H87.3336C86.0445 68.9481 84.8151 68.4444 83.8224 67.5999C88.3854 64.6371 91.5855 59.5704 88.7556 51.8814C86.4744 45.7185 81.0075 41.1111 75.5112 37.6446C73.689 36.5184 72.5928 35.2446 72.5928 34.1481C72.5928 31.5705 76.2519 31.4964 77.7633 29.7037C79.4964 27.6889 78.4149 24.4297 76.9038 22.4741C77.3334 22.4 77.778 22.3704 78.2076 22.3704C80.6817 22.3408 83.067 23.3334 84.7854 25.1111C86.5335 26.7704 87.2001 29.2741 86.5335 31.5852L87.3336 31.7481C87.8223 31.8372 88.3113 31.8816 88.815 31.8963H89.1408C93.4818 31.8963 95.4372 27.3482 95.4372 27.3482C95.4372 27.3482 100.059 33.0372 93.2595 37.4814C92.0892 38.2371 91.5705 38.9631 91.7781 39.7038L91.8816 40.1925L92.3706 40.2816C97.3038 41.6148 99.7779 45.0222 102.845 48.8889C105.748 52.5777 110.134 54.8001 114.83 54.963H114.919C114.919 54.963 113.437 59.6742 108.993 59.6742Z" fill="#222220"/>
  <path d="M99.4812 39.7779C101.14 40.7259 102.577 42.015 103.704 43.5555C104.548 44.8593 105.748 45.8964 107.17 46.5186C107.704 46.6965 108.281 46.7853 108.844 46.7853C111.111 46.7853 113.185 45.4965 114.222 43.4814L115.081 41.5557L112.992 41.4372C110.74 41.0223 108.711 39.8667 107.215 38.1333C106.104 36.9333 104.548 36.237 102.904 36.2223C101.629 36.237 100.4 36.6222 99.3333 37.3038L97.4073 38.652L99.4812 39.7779ZM102.948 37.6593L102.904 37.674C104.163 37.674 105.348 38.2224 106.192 39.1557C107.926 41.1408 110.296 42.4593 112.903 42.8889C112.104 44.3853 110.548 45.3186 108.844 45.3333C108.43 45.3333 108.015 45.2592 107.615 45.126C105.215 44.3112 104.37 40.6815 100.207 38.4891C101.022 37.9557 101.97 37.674 102.948 37.6593ZM100.459 58.8741L100.43 58.8444C99.2148 49.0665 92.1186 42 84.2223 37.7184C83.4963 37.3185 82.815 36.9927 82.1631 36.6813C85.4223 37.3482 88.815 36.5481 91.437 34.5036C91.437 34.5036 86.8593 37.8666 77.4963 34.8147C80.0889 36.5037 85.1259 38.874 89.7333 42.726C101.23 52.8297 93.0075 62.6964 93.0075 62.6964C96.4446 59.4369 97.6446 54.4593 96.1038 49.9851C98.5335 54.0297 99.7038 58.7112 99.4518 63.4221C99.126 71.1852 94.815 77.9703 90.3705 83.3778C89.037 85.0815 88.1187 87.0813 87.7335 89.2149C88.4889 87.0963 89.6298 85.1406 91.1112 83.4519C95.9259 77.8074 100 71.9556 100.578 63.5259C101.082 65.0073 103.126 69.3186 106.385 70.9332C106.385 70.9332 102.296 68.4741 100.459 58.8741ZM39.126 95.0076C38.415 93.4965 38.0298 91.8372 38.0148 90.1632C37.9704 87.0966 36.7113 84.1779 34.5186 82.0446C34.9629 81.8373 35.3778 81.5706 35.7483 81.2448C37.1556 80.0448 37.9704 78.2964 37.9557 76.4448L37.8666 75.126H36.5334C33.4815 75.2742 30.5187 74.0151 28.5186 71.6892C28.089 71.1855 27.7038 70.6374 27.363 70.0596C28.6815 70.4595 30.0444 70.6521 31.4223 70.6521H32.7705C34.3854 70.4892 35.9112 69.8373 37.1409 68.7855L38.5185 67.5261L36.9483 66.5187C33.4224 64.2669 29.8223 60.0003 32.5926 52.5039C34.3854 47.6298 38.5185 43.2297 45.2592 38.9928C47.526 37.5114 48.7704 35.8668 48.7704 34.2522C48.7704 31.7631 46.6815 30.7707 45.1557 30.0744C44.4594 29.8076 43.8222 29.4224 43.2594 28.9335C42.0741 27.5558 43.0668 24.9335 44.1777 23.5113L45.6594 21.6595L43.3779 21.215C42.8592 21.1261 42.3261 21.0965 41.7927 21.0965C38.9037 21.0076 36.1185 22.1187 34.074 24.1483C32.4 25.7928 31.5261 28.1039 31.689 30.4446H30.8001C27.4667 30.4446 25.8963 26.9187 25.8371 26.7706L24.9038 24.5632L23.4223 26.415C22.0445 28.2224 21.4075 30.489 21.6593 32.7558C22.163 35.2596 23.7186 37.4223 25.9408 38.6817C26.1482 38.8149 26.3556 38.9631 26.5334 39.126C21.8519 40.6077 19.2297 43.9854 16.4741 47.4966L16.0741 48.0003C13.4371 51.3633 9.43709 53.3781 5.17043 53.526H3.14081L3.76301 55.467C3.76301 55.704 5.6297 61.2003 11.0371 61.2003H11.3037C11.8075 61.1853 12.2964 61.1262 12.7852 61.0224C12.563 63.9855 11.4667 69.5559 6.48896 71.6151L5.00747 72.2373L5.82227 73.7187C7.15562 75.7779 9.45191 76.9929 11.9112 76.9632C13.4075 76.9779 14.8741 76.6371 16.2075 75.9558C16.4149 77.6742 16.8 79.3632 17.3482 80.9928C18.2815 83.4966 18.2815 86.2668 17.3482 88.7706L16.6075 90.3411L18.2964 90.7854C19.0667 90.9633 19.8667 91.0668 20.6667 91.0668C21.2001 91.0668 21.7334 91.0077 22.2519 90.8892C23.3482 90.6372 24.3556 90.1335 25.2149 89.4075C25.7334 91.0668 26.6223 92.5929 27.8223 93.852C30.1482 96.2373 33.4815 97.4223 37.8222 97.4373H40.4592L39.126 95.0076ZM37.8519 95.8371C25.8667 95.8371 26.163 85.5558 26.163 85.5558C25.526 87.4668 23.9556 88.9188 21.9852 89.3928C21.5852 89.4966 21.1556 89.541 20.7408 89.541C20.0593 89.541 19.3926 89.4522 18.7408 89.289C19.8223 86.4297 19.8223 83.2596 18.7408 80.4003C17.8963 78.0297 17.4963 75.5112 17.5408 72.9927C16.1778 74.667 14.0889 75.5853 11.926 75.4521H11.8519C9.92597 75.4818 8.11859 74.5188 7.06673 72.9186C15.0519 69.6003 14.2667 58.8891 14.2667 58.8891C13.3482 59.4522 12.2815 59.7483 11.2001 59.7336H11.0371C6.59264 59.7336 5.11118 55.0224 5.11118 55.0224H5.20007C9.89636 54.8742 14.2963 52.6521 17.2001 48.9633C20.2519 45.0966 22.7408 41.6892 27.6741 40.3557L28.163 40.2669L28.2667 39.7779C28.4001 39.0225 27.8815 38.2965 26.7852 37.5558C19.9852 33.1113 24.6075 27.4224 24.6075 27.4224C24.6075 27.4224 26.5334 31.9707 30.9039 31.9707H31.1112C31.6149 31.9557 32.1039 31.9113 32.5926 31.8225L33.3927 31.6596C32.7111 29.3484 33.3927 26.8447 35.1408 25.1854C36.8592 23.4076 39.2445 22.415 41.7186 22.4446C42.1482 22.4446 42.5928 22.4743 43.0224 22.5484C41.5407 24.5187 40.4445 27.778 42.1779 29.778C43.6593 31.5114 47.3334 31.5855 47.3334 34.2225C47.3334 35.3187 46.3113 36.5928 44.4891 37.7334C38.9778 41.2002 33.5112 45.8076 31.2444 51.9705C28.4149 59.6595 31.6149 64.7706 36.1779 67.689C35.1852 68.5188 33.9555 69.0372 32.6667 69.1707H31.437C29.0519 69.2742 26.6964 68.5485 24.7852 67.1112C25.1704 69.141 26.0741 71.0373 27.4223 72.5928C29.6889 75.2151 33.0519 76.6668 36.5187 76.5186C36.489 77.9262 35.8668 79.2594 34.7853 80.1633C33.6 80.9631 32.2518 81.4668 30.8298 81.6447C30.8298 81.6447 36 82.6965 36.5631 90.3261C36.5481 92.2668 37.0224 94.1781 37.926 95.8965L37.8519 95.8371Z" fill="#222220"/>
  <path d="M11.1408 46.7703H11.1556C11.7186 46.7703 12.2964 46.6815 12.8297 46.5039C14.2519 45.8814 15.4519 44.8446 16.2964 43.5408C17.4075 42 18.8445 40.7112 20.5038 39.7629L22.5779 38.652L20.6519 37.3038C19.5853 36.6222 18.3556 36.237 17.0964 36.2223C15.4519 36.237 13.8964 36.9333 12.7853 38.1483C11.3038 39.8667 9.25932 41.037 7.02231 41.4519L4.93341 41.5557L5.77785 43.4814C6.81489 45.4965 8.87415 46.7556 11.1408 46.7703ZM13.8075 39.1557C14.6371 38.2224 15.8223 37.674 17.0816 37.674C18.0445 37.689 18.9927 37.9854 19.8075 38.5038C15.6149 40.7409 14.7408 44.3259 12.4001 45.1407C12.0149 45.2742 11.6001 45.3483 11.1853 45.3483C9.46674 45.3483 7.89636 44.4 7.09638 42.8889C9.70377 42.4593 12.0742 41.1408 13.8075 39.1557ZM20.578 63.4815C20.3261 58.7703 21.4817 54.0888 23.9261 50.0445C22.3854 54.5184 23.5854 59.4963 27.0224 62.7555C27.0224 62.7555 18.7854 52.8888 30.2965 42.7851C34.9039 38.9334 39.9262 36.5631 42.5188 34.8741C33.1558 37.926 28.578 34.563 28.578 34.563C31.2001 36.6075 34.5781 37.4073 37.8373 36.7407C37.1854 37.0518 36.5038 37.3926 35.7781 37.7778C27.8817 42.0741 20.7409 49.1409 19.5706 58.9185V58.8444C17.7335 68.4444 13.6447 70.9038 13.6447 70.9038C16.8891 69.3036 18.9484 64.9779 19.4372 63.4962C19.9854 71.9409 24.1039 77.7927 28.9187 83.4222C30.3853 85.1112 31.5409 87.0666 32.2966 89.1852C31.8964 87.0666 30.9781 85.0668 29.6298 83.3778C25.1854 77.9703 20.8891 71.1852 20.578 63.4815ZM57.289 45.6444C57.8074 45.1407 58.5334 44.9037 59.2594 44.9925V47.7924C59.2447 48.4887 59.0668 49.1556 58.726 49.7628H61.5259C61.1854 49.1556 61.0075 48.4887 60.9928 47.7924V44.9925C61.7038 44.9037 62.4298 45.1407 62.9482 45.6444V43.7037H57.289V45.6444ZM56.1187 32.2074H56.089C56.5186 32.5779 57.0223 32.874 57.5707 33.0519L57.9262 33.2148V31.3779L54.6373 30C54.8002 30.9186 55.3336 31.7184 56.1187 32.2074ZM63.9262 32.1927L63.9112 32.2074C64.6966 31.7184 65.2297 30.9186 65.3929 30L62.104 31.3779V33.2001L62.4445 33.0369C62.9929 32.8593 63.4966 32.5629 63.9262 32.1927Z" fill="#222220"/>
  <path d="M69.8223 24.7703C69.8223 21.9999 65.1555 19.511 60.0147 19.511C54.8739 19.511 50.2074 21.9999 50.2074 24.7703L50.3109 25.4517L52.3704 37.3035L50.3109 38.5035L44.9334 41.5554C44.9334 41.5554 43.7334 42.1776 43.1703 42.5481C41.1408 44.0295 40.7109 46.0146 41.8815 46.8741C42.1776 44.859 43.9407 43.3776 45.9852 43.437C47.6889 43.4814 49.2741 44.3406 50.2371 45.7479C50.5332 46.1037 50.7999 46.4889 51.0369 46.8741C51.348 47.3778 51.6591 47.8221 51.9702 48.2517H38.2518C39.4074 50.2368 40.074 52.4739 40.2222 54.7701V85.2444C40.2222 92.6517 45.8961 96.1332 52.074 96.1332C56.8149 96.1332 57.4518 95.9109 60.0591 98.5185C62.6667 95.9109 63.3036 96.1332 68.0445 96.1332C74.1777 96.1332 79.8963 92.622 79.8963 85.2444V54.7998C80.0445 52.5036 80.7111 50.2665 81.8667 48.2814H67.9998C68.3109 47.8518 68.6223 47.4072 68.9334 46.9035C69.1851 46.5183 69.4518 46.1331 69.7332 45.7776C70.7109 44.3703 72.2961 43.5111 73.9998 43.4664C76.0443 43.4073 77.8074 44.8887 78.1035 46.9035C79.2888 46.059 78.8592 43.9407 76.8147 42.5778C76.2666 42.1926 75.0666 41.5851 75.0666 41.5851L69.7332 38.4444L67.674 37.2444L69.7332 25.3925L69.8223 24.7703ZM52.1925 26.1332L59.4222 28.5776V39.9258L54.1035 37.1109L52.1925 26.1332ZM41.2146 50.2518H53.6739C54.6369 51.2592 55.8222 52.059 57.126 52.5627C56.8443 53.5407 56.9184 54.5925 57.3186 55.5258C57.7926 56.5185 58.6371 57.2889 59.6739 57.6888C59.8665 59.3925 61.0221 60.8148 62.637 61.3776C61.7481 62.2815 60.8739 63.1257 60.5184 63.4665L52.2369 63.3333C51.9555 63.1998 51.7332 62.9925 51.585 62.7258V62.622L52.9332 62.8443H53.0223C53.2887 62.8443 53.511 62.6664 53.5554 62.4C53.5998 62.1036 53.4072 61.8369 53.1111 61.7778L51.4518 61.5111L53.2887 55.1406L51.5406 51.4665L48.7407 54.4296L48.5628 61.0518L46.6815 60.7554C46.3851 60.6963 46.1184 60.8889 46.0593 61.185V61.2C46.0146 61.4961 46.2072 61.7628 46.5036 61.8222L47.2887 61.9407C47.0073 62.1036 46.8147 62.2221 46.8 62.2518L46.6371 62.3703V62.5629C46.2666 64.2516 46.9482 66 48.3408 67.0074V67.2444C48.2517 67.8222 48.6519 68.3703 49.2297 68.4738H49.4073C49.8963 68.4738 50.3259 68.1333 50.4297 67.6443C50.7852 67.659 51.126 67.659 51.4815 67.6443H51.7035L62.5629 69.6147L62.7408 69.4962C63.6 68.8887 66.9036 66.5331 67.9851 65.6889C68.2962 65.9553 68.6517 66.1926 69.0222 66.3702C68.5185 67.9257 68.9037 69.6294 70.0296 70.8147H42.2073V54.7998C42.1482 53.2443 41.8074 51.7035 41.2146 50.2518ZM67.0518 64.9035C65.9259 65.7333 63.1554 67.7481 62.148 68.4591L52.2963 66.7407V66.474C52.4592 65.8074 52.548 65.1258 52.563 64.4442L60.8592 64.5777L61.0221 64.4148C61.1556 64.2813 63.7776 61.7481 65.1111 60.2814C65.4666 60.7257 65.8815 61.0962 66.3555 61.3926C66.1185 62.6073 66.3702 63.8664 67.0518 64.9035ZM50.5926 63.1257V63.1701C50.8149 63.585 51.1407 63.9405 51.5406 64.1778C51.5259 64.785 51.4665 65.3778 51.363 65.9703C51.363 66.1035 51.363 66.237 51.2592 66.3702V66.5778C50.5776 66.5778 49.911 66.474 49.2591 66.2664C48.0741 65.6295 47.4072 64.3257 47.5998 62.9925C48.1332 62.622 48.7407 62.385 49.3776 62.2962C49.926 62.2815 50.4147 62.6073 50.5926 63.1257ZM49.5702 61.1553L49.7334 54.8889L51.2148 53.4072L52.1184 55.2888L50.3556 61.3926L49.5702 61.1553ZM66.9777 94.1628H65.5554L66.6666 90.5331C66.8445 90.0294 65.9259 89.3775 65.5407 88.8C66.4443 89.3481 67.3776 89.8368 68.3406 90.2814C68.3406 90.3999 66.9777 94.1628 66.9777 94.1628ZM70.785 90.1035L70.6665 90L69.8961 93.9999C69.4074 93.9999 68.8887 94.1037 68.4147 94.1331L69.2295 90.2814C69.4665 89.1405 66.3999 88.8 64.8888 86.5332C63.8961 87.3627 62.6223 87.7479 61.3482 87.6147C60.2223 87.6 59.1111 87.4812 58.0146 87.2592C57.8223 87.2442 57.6297 87.2442 57.4371 87.2592C56.9778 87.2295 56.5332 87.4665 56.2962 87.8664L56.0739 88.2369L51.8517 87.2148L50.8443 88.9629C50.6814 89.1999 50.7111 89.5257 50.9184 89.7333L51.1998 90.0444C50.9184 90.5925 50.5629 91.0962 50.1333 91.5258L49.5111 90.7554C49.0371 89.985 49.0815 88.9926 49.6149 88.2666L51.2739 85.4664L54.8148 85.9998L54.2667 84.7407C53.526 83.0814 54.6519 80.9628 54.7704 79.7481C54.7704 80.1183 54.3852 80.1924 54 80.1924H52.9776C52.9035 80.1777 52.8147 80.1777 52.7406 80.1924L51.7776 80.7702L51.0222 80.0739C50.9037 79.8516 50.9481 79.5852 51.126 79.422L52.8741 77.4516L50.7999 75.0369L53.763 76.5183L54.6519 75.4518C54.8889 75.6888 54.7851 76.311 54.7851 76.311C56.9334 76.8444 58.4295 78.7998 58.3704 81.0222V81.4518C58.6665 81.9258 59.1408 82.2516 59.6739 82.3851L63.6888 82.785C64.4889 82.5333 65.3037 82.3701 66.1332 82.2666C66.8445 82.2666 67.5555 82.4889 68.148 82.8738C68.4297 82.6815 68.7702 82.5627 69.111 82.548H69.2445C71.037 82.548 71.7924 84.1776 72.7554 85.5111C73.4814 86.5332 74.4591 88.074 74.4591 88.074C74.1777 88.4889 73.7184 88.7406 73.2147 88.7406C73.0371 88.7553 72.8739 88.7553 72.6963 88.7406C70.7703 88.3851 70.4889 84.4146 69.3924 84.1035H69.2148C69.0072 84.1035 68.8149 84.222 68.7111 84.4146C69.2148 85.7628 68.9184 86.3109 69.4665 87.3777C69.8667 88.0146 70.3704 88.5924 70.9482 89.0814C70.9482 89.0814 70.8741 89.6739 70.785 90.1035ZM49.2 86.2221H49.1703L49.3482 86.6814C49.2297 87.0813 47.8665 87.6591 47.8665 87.6591L47.5704 87.0072C47.1852 86.0739 47.4666 85.0074 48.2814 84.3999L50.5185 83.037L52.9035 83.5407C52.8888 84.0147 53.037 84.474 53.3184 84.8592L50.8146 84.3852L49.3332 85.422C49.0962 85.6296 49.0518 85.9554 49.2 86.2221ZM77.8518 85.2591C78.0147 89.3778 75.1554 92.9925 71.1111 93.7926L71.7924 90.2073C71.7924 90 71.8665 89.748 71.8962 89.5407C72.1035 89.6295 72.3111 89.6889 72.5184 89.7333C72.7554 89.748 72.9924 89.748 73.2297 89.7333C74.0445 89.7333 74.8149 89.3628 75.3036 88.7109L75.837 88.0887L75.3924 87.4815C75.3924 87.4815 74.4 85.911 73.6593 84.8739L73.2444 84.2517C72.4146 83.0073 71.3628 81.4368 69.2739 81.4368H69.0813C68.7852 81.4518 68.4741 81.5109 68.1924 81.6147C67.5555 81.3036 66.8592 81.1407 66.1482 81.1407C65.4369 81.1554 64.7259 81.2889 64.0593 81.5406L63.7035 81.6444L59.7924 81.2592C59.6295 81.1851 59.4963 81.0666 59.3925 80.9184L60.237 80.5776C60 77.748 57.2739 76.0146 55.7925 75.4368C55.7184 75.1257 55.5702 74.859 55.3482 74.637L54.5037 73.8369L53.763 74.7258L53.3925 75.1701L47.9109 72.9183L51.4815 77.3628L50.0739 79.4961C49.7778 79.7925 49.7628 80.2815 50.0739 80.5926L51.5556 81.6L53.037 81.0369H53.1852C53.1852 81.2592 53.0223 82.1628 52.9482 82.4148L50.3703 81.9702L47.6148 83.4516C46.3407 84.3702 45.8961 86.0592 46.563 87.4815L46.8741 88.1481L47.3037 89.0961L48.2667 88.6962C47.9109 89.6592 48.0591 90.7257 48.6813 91.5405L49.2591 92.2815L50.0295 93.2592L50.8887 92.3406C51.4518 91.7778 51.8961 91.1259 52.2072 90.3999L52.3851 89.8074L51.9702 89.3481V89.259L52.4445 88.4889L55.8666 89.2887L56.637 89.4666L57.0519 88.785L57.2739 88.4148C57.2739 88.3407 57.2739 88.3257 57.4815 88.3257H57.8517C59.0223 88.5627 60.2073 88.6815 61.3926 88.6962C62.1924 88.7406 62.9925 88.6518 63.7629 88.4148L65.6592 90.5778L64.5333 94.0443V94.2516C62.8443 94.2222 61.2297 94.9185 60.0888 96.1479C58.2666 94.3407 56.9778 94.1481 52.1037 94.1481C46.2519 94.1481 42.2961 90.7257 42.2961 85.2591V71.9259H77.8518V85.2591ZM78.8148 50.2518C78.2073 51.6888 77.8815 53.2296 77.8221 54.7998V64.785C76.5333 64.5036 75.5703 63.4074 75.4815 62.0889V61.6296H75.0369C74.2665 61.5702 73.5555 61.2147 73.0221 60.6666C72.3702 59.9109 72.0147 58.9629 72 57.9702C71.3628 59.0073 71.4222 60.3405 72.1629 61.3185C72.7407 62.0442 73.5852 62.5332 74.5035 62.6517C74.7702 64.3701 76.1481 65.7036 77.8665 65.9259V70.8147H71.6445C70.0149 69.9852 69.3333 68.0442 70.0593 66.3702L70.2963 65.8368L69.7482 65.6295C67.9704 65.0073 66.9924 63.0963 67.5555 61.2888L67.674 60.8442L67.2591 60.6516C65.7036 59.748 64.8444 57.9852 65.0961 56.2074C64.2813 57.0369 64.074 58.2963 64.5924 59.3331C64.2963 59.6739 63.9111 60.0738 63.4815 60.5184C61.926 60.1926 60.7998 58.8444 60.7407 57.2592V56.8887L60.3999 56.7555C59.4963 56.4888 58.7556 55.8666 58.326 55.0368C58.0443 54.3555 57.9852 53.5851 58.1778 52.8738C58.4739 52.9332 58.7703 52.9776 59.0667 53.0073C59.3628 53.022 59.6739 53.022 59.9703 53.0073C62.3703 53.0073 64.6518 51.9702 66.2517 50.1924L78.8148 50.2518ZM69.2148 40.1481L71.6445 41.6295L72.2517 41.985C70.9926 42.3258 69.8517 43.0074 68.9481 43.9554L68.8443 44.0442C68.637 44.2665 68.4444 44.4888 68.2518 44.7258L68.1333 44.874C67.9407 45.111 67.7628 45.3627 67.5999 45.6294L67.5111 45.7629C67.3035 46.059 67.1109 46.3851 66.9186 46.7109C65.5704 49.3926 62.9481 51.1851 59.9703 51.4815C56.9925 51.1851 54.3702 49.3926 53.0223 46.7109C52.8297 46.3851 52.6371 46.074 52.4445 45.7629L52.326 45.6L51.8517 44.8296L51.7185 44.6664C51.5259 44.4294 51.3333 44.2074 51.1407 43.9998L51.0369 43.8963C50.1333 42.948 48.9924 42.2664 47.7333 41.9259L48.3555 41.5701L50.7999 40.0887L53.3037 38.6073L59.985 42.237L66.6666 38.7258L69.2148 40.1481ZM65.9259 37.185L60.6072 39.9852V28.5925L67.8222 26.148L65.9259 37.185ZM60 27.3925L52.0887 24.2221C52.7556 22.6221 55.8666 21.2591 60 21.2591C64.1334 21.2591 67.2444 22.6221 67.911 24.2221L60 27.3925Z" fill="#222220"/>
</svg>