<svg width="20" height="20" viewBox="0 0 20 21" fill="none" xmlns="http://www.w3.org/2000/svg">
<path d="M13.3333 5.50002V4.83335C13.3333 3.89993 13.3333 3.43322 13.1517 3.0767C12.9919 2.7631 12.7369 2.50813 12.4233 2.34834C12.0668 2.16669 11.6001 2.16669 10.6667 2.16669H9.33333C8.39991 2.16669 7.9332 2.16669 7.57668 2.34834C7.26308 2.50813 7.00811 2.7631 6.84832 3.0767C6.66667 3.43322 6.66667 3.89993 6.66667 4.83335V5.50002M8.33333 10.0834V14.25M11.6667 10.0834V14.25M2.5 5.50002H17.5M15.8333 5.50002V14.8334C15.8333 16.2335 15.8333 16.9336 15.5608 17.4683C15.3212 17.9387 14.9387 18.3212 14.4683 18.5609C13.9335 18.8334 13.2335 18.8334 11.8333 18.8334H8.16667C6.76654 18.8334 6.06647 18.8334 5.53169 18.5609C5.06129 18.3212 4.67883 17.9387 4.43915 17.4683C4.16667 16.9336 4.16667 16.2335 4.16667 14.8334V5.50002" stroke="#F04438" stroke-width="1.67" stroke-linecap="round" stroke-linejoin="round"/>
</svg>
